NotoSans-CondensedMediumItalic.ufo
<glyph name="asterisk" format="2">
  <advance width="739"/>
  <unicode hex="002A"/>
  <outline>
    <contour>
      <point x="588" y="881" type="line"/>
      <point x="723" y="950" type="line"/>
      <point x="584" y="1186" type="line"/>
      <point x="821" y="1188" type="line"/>
      <point x="809" y="1337" type="line"/>
      <point x="573" y="1288" type="line"/>
      <point x="633" y="1544" type="line"/>
      <point x="477" y="1565" type="line"/>
      <point x="467" y="1300" type="line"/>
      <point x="250" y="1411" type="line"/>
      <point x="201" y="1270" type="line"/>
      <point x="426" y="1204" type="line"/>
      <point x="231" y="1014" type="line"/>
      <point x="342" y="913" type="line"/>
      <point x="500" y="1128" type="line"/>
    </contour>
  </outline>
</glyph>
<glyph name="period" format="2">
  <advance width="414"/>
  <unicode hex="002E"/>
  <outline>
    <contour>
      <point x="109" y="-16" type="curve" smooth="yes"/>
      <point x="180" y="-16"/>
      <point x="238" y="53"/>
      <point x="238" y="145" type="curve" smooth="yes"/>
      <point x="238" y="201"/>
      <point x="207" y="236"/>
      <point x="156" y="236" type="curve" smooth="yes"/>
      <point x="70" y="236"/>
      <point x="23" y="158"/>
      <point x="23" y="72" type="curve" smooth="yes"/>
      <point x="23" y="14"/>
      <point x="57" y="-16"/>
    </contour>
  </outline>
</glyph>
<glyph name="less" format="2">
  <advance width="881"/>
  <unicode hex="003C"/>
  <outline>
    <contour>
      <point x="840" y="270" type="line"/>
      <point x="840" y="430" type="line"/>
      <point x="268" y="727" type="line"/>
      <point x="840" y="1024" type="line"/>
      <point x="840" y="1184" type="line"/>
      <point x="80" y="778" type="line"/>
      <point x="80" y="680" type="line"/>
    </contour>
  </outline>
</glyph>
<glyph name="J" format="2">
  <advance width="414"/>
  <unicode hex="004A"/>
  <anchor x="-164" y="-393" name="bottom"/>
  <anchor x="401" y="1462" name="top"/>
  <anchor x="567" y="1462" name="topright"/>
  <outline>
    <contour>
      <point x="-164" y="-393" type="curve" smooth="yes"/>
      <point x="2" y="-393"/>
      <point x="106" y="-285"/>
      <point x="160" y="-29" type="curve" smooth="yes"/>
      <point x="475" y="1462" type="line"/>
      <point x="311" y="1462" type="line"/>
      <point x="2" y="0" type="line" smooth="yes"/>
      <point x="-31" y="-152"/>
      <point x="-72" y="-246"/>
      <point x="-168" y="-246" type="curve" smooth="yes"/>
      <point x="-201" y="-246"/>
      <point x="-233" y="-236"/>
      <point x="-264" y="-221" type="curve"/>
      <point x="-301" y="-369" type="line"/>
      <point x="-266" y="-385"/>
      <point x="-223" y="-393"/>
    </contour>
  </outline>
</glyph>
<glyph name="T" format="2">
  <advance width="705"/>
  <unicode hex="0054"/>
  <anchor x="238" y="0" name="bottom"/>
  <anchor x="403" y="731" name="center"/>
  <anchor x="547" y="1462" name="top"/>
  <anchor x="858" y="1462" name="topright"/>
  <outline>
    <contour>
      <point x="135" y="0" type="line"/>
      <point x="299" y="0" type="line"/>
      <point x="578" y="1313" type="line"/>
      <point x="829" y="1313" type="line"/>
      <point x="862" y="1462" type="line"/>
      <point x="195" y="1462" type="line"/>
      <point x="162" y="1313" type="line"/>
      <point x="414" y="1313" type="line"/>
    </contour>
  </outline>
</glyph>
<glyph name="grave" format="2">
  <advance width="510"/>
  <unicode hex="0060"/>
  <anchor x="465" y="1083" name="_top"/>
  <outline>
    <contour>
      <point x="475" y="1241" type="curve"/>
      <point x="575" y="1241" type="line"/>
      <point x="578" y="1262" type="line"/>
      <point x="535" y="1370"/>
      <point x="506" y="1470"/>
      <point x="483" y="1567" type="curve"/>
      <point x="299" y="1567" type="line"/>
      <point x="299" y="1550" type="line"/>
      <point x="328" y="1464"/>
      <point x="420" y="1313"/>
    </contour>
  </outline>
</glyph>
<glyph name="o" format="2">
  <advance width="834"/>
  <unicode hex="006F"/>
  <anchor x="303" y="0" name="bottom"/>
  <anchor x="453" y="543" name="center"/>
  <anchor x="532" y="1083" name="top"/>
  <anchor x="907" y="1083" name="topright"/>
  <outline>
    <contour>
      <point x="313" y="-20" type="curve" smooth="yes"/>
      <point x="635" y="-20"/>
      <point x="782" y="444"/>
      <point x="782" y="782" type="curve" smooth="yes"/>
      <point x="782" y="997"/>
      <point x="686" y="1118"/>
      <point x="522" y="1118" type="curve" smooth="yes"/>
      <point x="174" y="1118"/>
      <point x="51" y="590"/>
      <point x="51" y="311" type="curve" smooth="yes"/>
      <point x="51" y="96"/>
      <point x="147" y="-20"/>
    </contour>
    <contour>
      <point x="330" y="119" type="curve" smooth="yes"/>
      <point x="250" y="119"/>
      <point x="211" y="186"/>
      <point x="211" y="309" type="curve" smooth="yes"/>
      <point x="211" y="526"/>
      <point x="301" y="981"/>
      <point x="502" y="981" type="curve" smooth="yes"/>
      <point x="582" y="981"/>
      <point x="621" y="909"/>
      <point x="621" y="786" type="curve" smooth="yes"/>
      <point x="621" y="532"/>
      <point x="516" y="119"/>
    </contour>
  </outline>
</glyph>
<glyph name="p" format="2">
  <advance width="854"/>
  <unicode hex="0070"/>
  <anchor x="211" y="-477" name="bottom"/>
  <anchor x="543" y="1083" name="top"/>
  <anchor x="928" y="1083" name="topright"/>
  <outline>
    <contour>
      <point x="-98" y="-477" type="line"/>
      <point x="57" y="-477" type="line"/>
      <point x="145" y="-66" type="line" smooth="yes"/>
      <point x="158" y="-8"/>
      <point x="170" y="63"/>
      <point x="180" y="133" type="curve"/>
      <point x="186" y="133" type="line"/>
      <point x="209" y="41"/>
      <point x="276" y="-20"/>
      <point x="369" y="-20" type="curve" smooth="yes"/>
      <point x="668" y="-20"/>
      <point x="811" y="500"/>
      <point x="811" y="813" type="curve" smooth="yes"/>
      <point x="811" y="1018"/>
      <point x="735" y="1118"/>
      <point x="600" y="1118" type="curve" smooth="yes"/>
      <point x="504" y="1118"/>
      <point x="424" y="1059"/>
      <point x="350" y="940" type="curve"/>
      <point x="344" y="940" type="line"/>
      <point x="365" y="1098" type="line"/>
      <point x="233" y="1098" type="line"/>
    </contour>
    <contour>
      <point x="352" y="119" type="curve" smooth="yes"/>
      <point x="276" y="119"/>
      <point x="238" y="176"/>
      <point x="238" y="285" type="curve" smooth="yes"/>
      <point x="238" y="510"/>
      <point x="346" y="983"/>
      <point x="545" y="983" type="curve" smooth="yes"/>
      <point x="616" y="983"/>
      <point x="649" y="926"/>
      <point x="649" y="805" type="curve" smooth="yes"/>
      <point x="649" y="551"/>
      <point x="537" y="119"/>
    </contour>
  </outline>
</glyph>
<glyph name="logicalnot" format="2">
  <advance width="881"/>
  <unicode hex="00AC"/>
  <outline>
    <contour>
      <point x="821" y="793" type="line"/>
      <point x="82" y="793" type="line"/>
      <point x="82" y="653" type="line"/>
      <point x="680" y="653" type="line"/>
      <point x="680" y="246" type="line"/>
      <point x="821" y="246" type="line"/>
    </contour>
  </outline>
</glyph>
<glyph name="micro" format="2">
  <advance width="842"/>
  <unicode hex="00B5"/>
  <outline>
    <contour>
      <point x="-106" y="-492" type="line"/>
      <point x="49" y="-492" type="line"/>
      <point x="137" y="-80" type="line" smooth="yes"/>
      <point x="147" y="-31"/>
      <point x="154" y="10"/>
      <point x="156" y="57" type="curve"/>
      <point x="160" y="57" type="line"/>
      <point x="182" y="8"/>
      <point x="219" y="-20"/>
      <point x="276" y="-20" type="curve" smooth="yes"/>
      <point x="356" y="-20"/>
      <point x="424" y="25"/>
      <point x="483" y="127" type="curve"/>
      <point x="487" y="127" type="line"/>
      <point x="479" y="0" type="line"/>
      <point x="604" y="0" type="line"/>
      <point x="836" y="1098" type="line"/>
      <point x="680" y="1098" type="line"/>
      <point x="551" y="500" type="line" smooth="yes"/>
      <point x="496" y="236"/>
      <point x="420" y="125"/>
      <point x="305" y="125" type="curve" smooth="yes"/>
      <point x="246" y="125"/>
      <point x="217" y="166"/>
      <point x="217" y="244" type="curve" smooth="yes"/>
      <point x="217" y="285"/>
      <point x="225" y="334"/>
      <point x="238" y="393" type="curve" smooth="yes"/>
      <point x="387" y="1098" type="line"/>
      <point x="229" y="1098" type="line"/>
    </contour>
  </outline>
</glyph>
<glyph name="uni0180" format="2">
  <advance width="854"/>
  <unicode hex="0180"/>
  <anchor x="313" y="0" name="bottom"/>
  <anchor x="643" y="1556" name="top"/>
  <outline>
    <contour>
      <point x="367" y="-20" type="curve" smooth="yes"/>
      <point x="659" y="-20"/>
      <point x="811" y="473"/>
      <point x="811" y="815" type="curve" smooth="yes"/>
      <point x="811" y="1014"/>
      <point x="733" y="1118"/>
      <point x="600" y="1118" type="curve" smooth="yes"/>
      <point x="504" y="1118"/>
      <point x="420" y="1059"/>
      <point x="354" y="950" type="curve"/>
      <point x="350" y="950" type="line"/>
      <point x="365" y="995"/>
      <point x="371" y="1028"/>
      <point x="420" y="1251" type="curve"/>
      <point x="612" y="1251" type="line"/>
      <point x="639" y="1374" type="line"/>
      <point x="446" y="1374" type="line"/>
      <point x="485" y="1556" type="line"/>
      <point x="328" y="1556" type="line"/>
      <point x="289" y="1374" type="line"/>
      <point x="170" y="1374" type="line"/>
      <point x="143" y="1251" type="line"/>
      <point x="262" y="1251" type="line"/>
      <point x="-2" y="0" type="line"/>
      <point x="125" y="0" type="line"/>
      <point x="174" y="135" type="line"/>
      <point x="180" y="135" type="line"/>
      <point x="203" y="41"/>
      <point x="268" y="-20"/>
    </contour>
    <contour>
      <point x="352" y="117" type="curve" smooth="yes"/>
      <point x="274" y="117"/>
      <point x="236" y="174"/>
      <point x="236" y="289" type="curve" smooth="yes"/>
      <point x="236" y="518"/>
      <point x="342" y="979"/>
      <point x="543" y="979" type="curve" smooth="yes"/>
      <point x="614" y="979"/>
      <point x="647" y="924"/>
      <point x="647" y="803" type="curve" smooth="yes"/>
      <point x="647" y="578"/>
      <point x="539" y="117"/>
    </contour>
  </outline>
</glyph>
<glyph name="uni018A" format="2">
  <advance width="1163"/>
  <unicode hex="018A"/>
  <anchor x="467" y="0" name="bottom"/>
  <anchor x="778" y="1462" name="top"/>
  <outline>
    <contour>
      <point x="209" y="0" type="line"/>
      <point x="451" y="0" type="line" smooth="yes"/>
      <point x="946" y="0"/>
      <point x="1130" y="586"/>
      <point x="1130" y="1030" type="curve" smooth="yes"/>
      <point x="1130" y="1315"/>
      <point x="997" y="1462"/>
      <point x="758" y="1462" type="curve" smooth="yes"/>
      <point x="467" y="1462" type="line" smooth="yes"/>
      <point x="262" y="1462"/>
      <point x="162" y="1343"/>
      <point x="162" y="1188" type="curve" smooth="yes"/>
      <point x="162" y="1149"/>
      <point x="166" y="1116"/>
      <point x="174" y="1094" type="curve"/>
      <point x="317" y="1094" type="line"/>
      <point x="311" y="1118"/>
      <point x="307" y="1147"/>
      <point x="307" y="1178" type="curve" smooth="yes"/>
      <point x="307" y="1257"/>
      <point x="344" y="1319"/>
      <point x="465" y="1319" type="curve" smooth="yes"/>
      <point x="487" y="1319" type="line"/>
    </contour>
    <contour>
      <point x="403" y="150" type="line"/>
      <point x="651" y="1313" type="line"/>
      <point x="739" y="1313" type="line" smooth="yes"/>
      <point x="885" y="1313"/>
      <point x="956" y="1223"/>
      <point x="956" y="1020" type="curve" smooth="yes"/>
      <point x="956" y="653"/>
      <point x="815" y="150"/>
      <point x="475" y="150" type="curve" smooth="yes"/>
    </contour>
  </outline>
</glyph>
<glyph name="uni0194" format="2">
  <advance width="819"/>
  <unicode hex="0194"/>
  <anchor x="193" y="-483" name="bottom"/>
  <anchor x="604" y="1462" name="top"/>
  <outline>
    <contour>
      <point x="201" y="-483" type="curve" smooth="yes"/>
      <point x="365" y="-483"/>
      <point x="457" y="-356"/>
      <point x="457" y="-141" type="curve" smooth="yes"/>
      <point x="457" y="-33"/>
      <point x="440" y="115"/>
      <point x="416" y="248" type="curve"/>
      <point x="987" y="1462" type="line"/>
      <point x="811" y="1462" type="line"/>
      <point x="465" y="692" type="line" smooth="yes"/>
      <point x="416" y="584"/>
      <point x="383" y="492"/>
      <point x="362" y="420" type="curve"/>
      <point x="373" y="526"/>
      <point x="375" y="666"/>
      <point x="371" y="743" type="curve" smooth="yes"/>
      <point x="342" y="1462" type="line"/>
      <point x="176" y="1462" type="line"/>
      <point x="242" y="274" type="line"/>
      <point x="76" y="37"/>
      <point x="10" y="-147"/>
      <point x="10" y="-274" type="curve" smooth="yes"/>
      <point x="10" y="-399"/>
      <point x="80" y="-483"/>
    </contour>
    <contour>
      <point x="215" y="-358" type="curve" smooth="yes"/>
      <point x="178" y="-358"/>
      <point x="164" y="-322"/>
      <point x="164" y="-266" type="curve" smooth="yes"/>
      <point x="164" y="-174"/>
      <point x="211" y="-41"/>
      <point x="295" y="119" type="curve"/>
      <point x="299" y="43"/>
      <point x="307" y="-41"/>
      <point x="307" y="-131" type="curve" smooth="yes"/>
      <point x="307" y="-260"/>
      <point x="274" y="-358"/>
    </contour>
  </outline>
</glyph>
<glyph name="Ohorn" format="2">
  <advance width="1028"/>
  <unicode hex="01A0"/>
  <anchor x="399" y="0" name="bottom"/>
  <anchor x="709" y="1462" name="top"/>
  <outline>
    <contour>
      <point x="391" y="-20" type="curve" smooth="yes"/>
      <point x="778" y="-20"/>
      <point x="985" y="602"/>
      <point x="985" y="1069" type="curve" smooth="yes"/>
      <point x="985" y="1098"/>
      <point x="983" y="1124"/>
      <point x="981" y="1151" type="curve"/>
      <point x="1145" y="1214"/>
      <point x="1233" y="1343"/>
      <point x="1268" y="1534" type="curve"/>
      <point x="1260" y="1556" type="line"/>
      <point x="1118" y="1556" type="line"/>
      <point x="1096" y="1415"/>
      <point x="1042" y="1319"/>
      <point x="952" y="1276" type="curve"/>
      <point x="911" y="1415"/>
      <point x="817" y="1483"/>
      <point x="670" y="1483" type="curve" smooth="yes"/>
      <point x="272" y="1483"/>
      <point x="72" y="860"/>
      <point x="72" y="410" type="curve" smooth="yes"/>
      <point x="72" y="117"/>
      <point x="176" y="-20"/>
    </contour>
    <contour>
      <point x="403" y="129" type="curve" smooth="yes"/>
      <point x="297" y="129"/>
      <point x="242" y="211"/>
      <point x="242" y="408" type="curve" smooth="yes"/>
      <point x="242" y="737"/>
      <point x="383" y="1335"/>
      <point x="655" y="1335" type="curve" smooth="yes"/>
      <point x="764" y="1335"/>
      <point x="817" y="1251"/>
      <point x="817" y="1071" type="curve" smooth="yes"/>
      <point x="817" y="748"/>
      <point x="678" y="129"/>
    </contour>
  </outline>
</glyph>
<glyph name="uni01AB" format="2">
  <advance width="487"/>
  <unicode hex="01AB"/>
  <anchor x="47" y="-389" name="bottom"/>
  <anchor x="416" y="1348" name="top"/>
  <outline>
    <contour>
      <point x="68" y="-389" type="curve" smooth="yes"/>
      <point x="211" y="-389"/>
      <point x="272" y="-311"/>
      <point x="301" y="-180" type="curve" smooth="yes"/>
      <point x="371" y="139" type="line"/>
      <point x="340" y="127"/>
      <point x="299" y="121"/>
      <point x="276" y="121" type="curve" smooth="yes"/>
      <point x="229" y="121"/>
      <point x="207" y="143"/>
      <point x="207" y="190" type="curve" smooth="yes"/>
      <point x="207" y="217"/>
      <point x="215" y="258"/>
      <point x="223" y="299" type="curve" smooth="yes"/>
      <point x="365" y="963" type="line"/>
      <point x="520" y="963" type="line"/>
      <point x="549" y="1098" type="line"/>
      <point x="393" y="1098" type="line"/>
      <point x="446" y="1348" type="line"/>
      <point x="332" y="1348" type="line"/>
      <point x="244" y="1096" type="line"/>
      <point x="127" y="1053" type="line"/>
      <point x="109" y="963" type="line"/>
      <point x="207" y="963" type="line"/>
      <point x="68" y="309" type="line" smooth="yes"/>
      <point x="55" y="252"/>
      <point x="49" y="203"/>
      <point x="49" y="164" type="curve" smooth="yes"/>
      <point x="49" y="59"/>
      <point x="88" y="-4"/>
      <point x="178" y="-16" type="curve"/>
      <point x="154" y="-129" type="line" smooth="yes"/>
      <point x="139" y="-203"/>
      <point x="113" y="-250"/>
      <point x="47" y="-250" type="curve" smooth="yes"/>
      <point x="20" y="-250"/>
      <point x="-10" y="-244"/>
      <point x="-41" y="-231" type="curve"/>
      <point x="-41" y="-369" type="line"/>
      <point x="-10" y="-381"/>
      <point x="18" y="-389"/>
    </contour>
  </outline>
</glyph>
<glyph name="Uhorn" format="2">
  <advance width="1053"/>
  <unicode hex="01AF"/>
  <anchor x="412" y="0" name="bottom"/>
  <anchor x="723" y="1462" name="top"/>
  <outline>
    <contour>
      <point x="360" y="-20" type="curve" smooth="yes"/>
      <point x="621" y="-20"/>
      <point x="741" y="162"/>
      <point x="803" y="457" type="curve" smooth="yes"/>
      <point x="948" y="1135" type="line"/>
      <point x="1151" y="1163"/>
      <point x="1266" y="1305"/>
      <point x="1309" y="1534" type="curve"/>
      <point x="1303" y="1556" type="line"/>
      <point x="1159" y="1556" type="line"/>
      <point x="1130" y="1389"/>
      <point x="1073" y="1280"/>
      <point x="973" y="1253" type="curve"/>
      <point x="1020" y="1462" type="line"/>
      <point x="856" y="1462" type="line"/>
      <point x="643" y="473" type="line" smooth="yes"/>
      <point x="590" y="233"/>
      <point x="520" y="129"/>
      <point x="381" y="129" type="curve" smooth="yes"/>
      <point x="285" y="129"/>
      <point x="233" y="186"/>
      <point x="233" y="307" type="curve" smooth="yes"/>
      <point x="233" y="348"/>
      <point x="240" y="399"/>
      <point x="250" y="451" type="curve" smooth="yes"/>
      <point x="465" y="1462" type="line"/>
      <point x="301" y="1462" type="line"/>
      <point x="88" y="459" type="line" smooth="yes"/>
      <point x="74" y="397"/>
      <point x="68" y="336"/>
      <point x="68" y="287" type="curve" smooth="yes"/>
      <point x="68" y="92"/>
      <point x="176" y="-20"/>
    </contour>
  </outline>
</glyph>
<glyph name="uni01B4" format="2">
  <advance width="737"/>
  <unicode hex="01B4"/>
  <anchor x="129" y="-494" name="bottom"/>
  <anchor x="465" y="1083" name="top"/>
  <outline>
    <contour>
      <point x="-84" y="-494" type="curve" smooth="yes"/>
      <point x="74" y="-494"/>
      <point x="152" y="-381"/>
      <point x="227" y="-211" type="curve" smooth="yes"/>
      <point x="698" y="864" type="line" smooth="yes"/>
      <point x="737" y="956"/>
      <point x="756" y="981"/>
      <point x="797" y="981" type="curve" smooth="yes"/>
      <point x="815" y="981"/>
      <point x="836" y="973"/>
      <point x="852" y="963" type="curve"/>
      <point x="852" y="1100" type="line"/>
      <point x="827" y="1110"/>
      <point x="801" y="1118"/>
      <point x="762" y="1118" type="curve" smooth="yes"/>
      <point x="664" y="1118"/>
      <point x="616" y="1049"/>
      <point x="565" y="926" type="curve" smooth="yes"/>
      <point x="371" y="463" type="line" smooth="yes"/>
      <point x="344" y="406"/>
      <point x="315" y="322"/>
      <point x="289" y="238" type="curve"/>
      <point x="283" y="238" type="line"/>
      <point x="289" y="322"/>
      <point x="291" y="408"/>
      <point x="291" y="489" type="curve" smooth="yes"/>
      <point x="289" y="1098" type="line"/>
      <point x="131" y="1098" type="line"/>
      <point x="158" y="4" type="line"/>
      <point x="80" y="-174" type="line" smooth="yes"/>
      <point x="33" y="-285"/>
      <point x="-8" y="-348"/>
      <point x="-88" y="-348" type="curve" smooth="yes"/>
      <point x="-119" y="-348"/>
      <point x="-145" y="-342"/>
      <point x="-172" y="-330" type="curve"/>
      <point x="-193" y="-473" type="line"/>
      <point x="-164" y="-485"/>
      <point x="-129" y="-494"/>
    </contour>
  </outline>
</glyph>
<glyph name="uni01B8" format="2">
  <advance width="758"/>
  <unicode hex="01B8"/>
  <anchor x="264" y="0" name="bottom"/>
  <anchor x="573" y="1462" name="top"/>
  <outline>
    <contour>
      <point x="338" y="-20" type="curve" smooth="yes"/>
      <point x="434" y="-20"/>
      <point x="535" y="2"/>
      <point x="608" y="41" type="curve"/>
      <point x="608" y="197" type="line"/>
      <point x="535" y="156"/>
      <point x="455" y="129"/>
      <point x="365" y="129" type="curve" smooth="yes"/>
      <point x="252" y="129"/>
      <point x="188" y="199"/>
      <point x="188" y="332" type="curve" smooth="yes"/>
      <point x="188" y="530"/>
      <point x="293" y="682"/>
      <point x="500" y="682" type="curve" smooth="yes"/>
      <point x="608" y="682" type="line"/>
      <point x="635" y="809" type="line"/>
      <point x="403" y="1315" type="line"/>
      <point x="821" y="1315" type="line"/>
      <point x="850" y="1462" type="line"/>
      <point x="252" y="1462" type="line"/>
      <point x="223" y="1325" type="line"/>
      <point x="455" y="821" type="line"/>
      <point x="170" y="797"/>
      <point x="16" y="594"/>
      <point x="16" y="319" type="curve" smooth="yes"/>
      <point x="16" y="106"/>
      <point x="127" y="-20"/>
    </contour>
  </outline>
</glyph>
<glyph name="uni01BC" format="2">
  <advance width="795"/>
  <unicode hex="01BC"/>
  <anchor x="283" y="0" name="bottom"/>
  <anchor x="592" y="1462" name="top"/>
  <outline>
    <contour>
      <point x="205" y="-20" type="curve" smooth="yes"/>
      <point x="500" y="-20"/>
      <point x="678" y="203"/>
      <point x="678" y="481" type="curve" smooth="yes"/>
      <point x="678" y="684"/>
      <point x="575" y="834"/>
      <point x="379" y="834" type="curve" smooth="yes"/>
      <point x="369" y="834" type="line"/>
      <point x="469" y="1315" type="line"/>
      <point x="801" y="1315" type="line"/>
      <point x="831" y="1462" type="line"/>
      <point x="256" y="1462" type="line"/>
      <point x="223" y="1315" type="line"/>
      <point x="313" y="1315" type="line"/>
      <point x="184" y="709" type="line"/>
      <point x="295" y="709" type="line" smooth="yes"/>
      <point x="434" y="709"/>
      <point x="510" y="643"/>
      <point x="510" y="485" type="curve" smooth="yes"/>
      <point x="510" y="289"/>
      <point x="410" y="129"/>
      <point x="199" y="129" type="curve" smooth="yes"/>
      <point x="102" y="129"/>
      <point x="10" y="158"/>
      <point x="-53" y="209" type="curve"/>
      <point x="-53" y="37" type="line"/>
      <point x="14" y="-2"/>
      <point x="111" y="-20"/>
    </contour>
  </outline>
</glyph>
<glyph name="uni01E4" format="2">
  <advance width="1008"/>
  <unicode hex="01E4"/>
  <anchor x="389" y="0" name="bottom"/>
  <anchor x="698" y="1462" name="top"/>
  <outline>
    <contour>
      <point x="465" y="-20" type="curve" smooth="yes"/>
      <point x="563" y="-20"/>
      <point x="674" y="2"/>
      <point x="780" y="43" type="curve"/>
      <point x="846" y="352" type="line"/>
      <point x="956" y="352" type="line"/>
      <point x="981" y="469" type="line"/>
      <point x="872" y="469" type="line"/>
      <point x="940" y="795" type="line"/>
      <point x="598" y="795" type="line"/>
      <point x="569" y="662" type="line"/>
      <point x="748" y="662" type="line"/>
      <point x="709" y="469" type="line"/>
      <point x="492" y="469" type="line"/>
      <point x="467" y="352" type="line"/>
      <point x="682" y="352" type="line"/>
      <point x="641" y="152" type="line"/>
      <point x="590" y="135"/>
      <point x="537" y="127"/>
      <point x="479" y="127" type="curve" smooth="yes"/>
      <point x="322" y="127"/>
      <point x="244" y="225"/>
      <point x="244" y="453" type="curve" smooth="yes"/>
      <point x="244" y="866"/>
      <point x="434" y="1335"/>
      <point x="731" y="1335" type="curve" smooth="yes"/>
      <point x="817" y="1335"/>
      <point x="891" y="1311"/>
      <point x="971" y="1251" type="curve"/>
      <point x="1053" y="1393" type="line"/>
      <point x="975" y="1448"/>
      <point x="866" y="1485"/>
      <point x="745" y="1485" type="curve" smooth="yes"/>
      <point x="356" y="1485"/>
      <point x="74" y="1020"/>
      <point x="74" y="444" type="curve" smooth="yes"/>
      <point x="74" y="139"/>
      <point x="201" y="-20"/>
    </contour>
  </outline>
</glyph>
<glyph name="uni01E5" format="2">
  <advance width="866"/>
  <unicode hex="01E5"/>
  <anchor x="215" y="-492" name="bottom"/>
  <anchor x="549" y="1083" name="top"/>
  <outline>
    <contour>
      <point x="186" y="-492" type="curve" smooth="yes"/>
      <point x="393" y="-492"/>
      <point x="520" y="-391"/>
      <point x="582" y="-201" type="curve"/>
      <point x="688" y="-201" type="line"/>
      <point x="711" y="-90" type="line"/>
      <point x="608" y="-90" type="line"/>
      <point x="860" y="1098" type="line"/>
      <point x="725" y="1098" type="line"/>
      <point x="684" y="958" type="line"/>
      <point x="678" y="958" type="line"/>
      <point x="651" y="1063"/>
      <point x="596" y="1118"/>
      <point x="496" y="1118" type="curve" smooth="yes"/>
      <point x="190" y="1118"/>
      <point x="57" y="623"/>
      <point x="57" y="315" type="curve" smooth="yes"/>
      <point x="57" y="121"/>
      <point x="133" y="18"/>
      <point x="266" y="18" type="curve" smooth="yes"/>
      <point x="362" y="18"/>
      <point x="438" y="72"/>
      <point x="512" y="182" type="curve"/>
      <point x="516" y="182" type="line"/>
      <point x="500" y="127"/>
      <point x="485" y="72"/>
      <point x="477" y="37" type="curve"/>
      <point x="451" y="-90" type="line"/>
      <point x="174" y="-90" type="line"/>
      <point x="152" y="-201" type="line"/>
      <point x="420" y="-201" type="line"/>
      <point x="383" y="-295"/>
      <point x="307" y="-360"/>
      <point x="190" y="-360" type="curve" smooth="yes"/>
      <point x="102" y="-360"/>
      <point x="6" y="-319"/>
      <point x="-45" y="-281" type="curve"/>
      <point x="-45" y="-428" type="line"/>
      <point x="8" y="-461"/>
      <point x="96" y="-492"/>
    </contour>
    <contour>
      <point x="326" y="158" type="curve" smooth="yes"/>
      <point x="252" y="158"/>
      <point x="221" y="215"/>
      <point x="221" y="334" type="curve" smooth="yes"/>
      <point x="221" y="565"/>
      <point x="319" y="977"/>
      <point x="508" y="977" type="curve" smooth="yes"/>
      <point x="582" y="977"/>
      <point x="625" y="924"/>
      <point x="625" y="827" type="curve" smooth="yes"/>
      <point x="625" y="606"/>
      <point x="522" y="158"/>
    </contour>
  </outline>
</glyph>
<glyph name="aringacute" format="2">
  <advance width="866"/>
  <unicode hex="01FB"/>
  <anchor x="319" y="0" name="bottom"/>
  <anchor x="731" y="1948" name="top"/>
  <outline>
    <contour>
      <point x="266" y="-20" type="curve" smooth="yes"/>
      <point x="354" y="-20"/>
      <point x="432" y="41"/>
      <point x="506" y="150" type="curve"/>
      <point x="512" y="150" type="line"/>
      <point x="500" y="0" type="line"/>
      <point x="627" y="0" type="line"/>
      <point x="860" y="1098" type="line"/>
      <point x="725" y="1098" type="line"/>
      <point x="682" y="967" type="line"/>
      <point x="676" y="967" type="line"/>
      <point x="645" y="1071"/>
      <point x="582" y="1118"/>
      <point x="494" y="1118" type="curve" smooth="yes"/>
      <point x="184" y="1118"/>
      <point x="49" y="582"/>
      <point x="49" y="279" type="curve" smooth="yes"/>
      <point x="49" y="84"/>
      <point x="123" y="-20"/>
    </contour>
    <contour>
      <point x="313" y="119" type="curve" smooth="yes"/>
      <point x="240" y="119"/>
      <point x="213" y="174"/>
      <point x="213" y="285" type="curve" smooth="yes"/>
      <point x="213" y="543"/>
      <point x="324" y="977"/>
      <point x="510" y="977" type="curve" smooth="yes"/>
      <point x="582" y="977"/>
      <point x="625" y="918"/>
      <point x="625" y="815" type="curve" smooth="yes"/>
      <point x="625" y="721"/>
      <point x="610" y="623"/>
      <point x="578" y="492" type="curve" smooth="yes"/>
      <point x="528" y="309"/>
      <point x="451" y="119"/>
    </contour>
    <contour>
      <point x="582" y="1194" type="curve" smooth="yes"/>
      <point x="711" y="1194"/>
      <point x="791" y="1276"/>
      <point x="791" y="1403" type="curve" smooth="yes"/>
      <point x="788" y="1522"/>
      <point x="705" y="1602"/>
      <point x="582" y="1602" type="curve" smooth="yes"/>
      <point x="455" y="1602"/>
      <point x="375" y="1520"/>
      <point x="375" y="1397" type="curve" smooth="yes"/>
      <point x="375" y="1272"/>
      <point x="455" y="1194"/>
    </contour>
    <contour>
      <point x="582" y="1286" type="curve" smooth="yes"/>
      <point x="506" y="1286"/>
      <point x="471" y="1323"/>
      <point x="471" y="1397" type="curve" smooth="yes"/>
      <point x="471" y="1464"/>
      <point x="512" y="1511"/>
      <point x="582" y="1511" type="curve" smooth="yes"/>
      <point x="651" y="1511"/>
      <point x="694" y="1464"/>
      <point x="694" y="1397" type="curve" smooth="yes"/>
      <point x="694" y="1329"/>
      <point x="647" y="1286"/>
    </contour>
    <contour>
      <point x="559" y="1673" type="line"/>
      <point x="670" y="1673" type="line"/>
      <point x="768" y="1745"/>
      <point x="899" y="1864"/>
      <point x="958" y="1933" type="curve"/>
      <point x="958" y="1948" type="line"/>
      <point x="754" y="1948" type="line"/>
      <point x="694" y="1847"/>
      <point x="623" y="1763"/>
      <point x="561" y="1690" type="curve"/>
    </contour>
  </outline>
</glyph>
<glyph name="uni0220" format="2">
  <advance width="979"/>
  <unicode hex="0220"/>
  <anchor x="270" y="-492" name="bottom"/>
  <anchor x="684" y="1462" name="top"/>
  <outline>
    <contour>
      <point x="449" y="-492" type="line"/>
      <point x="612" y="-492" type="line"/>
      <point x="934" y="1018" type="line" smooth="yes"/>
      <point x="954" y="1110"/>
      <point x="969" y="1198"/>
      <point x="969" y="1262" type="curve" smooth="yes"/>
      <point x="969" y="1401"/>
      <point x="887" y="1483"/>
      <point x="735" y="1483" type="curve" smooth="yes"/>
      <point x="602" y="1483"/>
      <point x="496" y="1415"/>
      <point x="426" y="1298" type="curve"/>
      <point x="422" y="1298" type="line"/>
      <point x="444" y="1462" type="line"/>
      <point x="311" y="1462" type="line"/>
      <point x="2" y="0" type="line"/>
      <point x="166" y="0" type="line"/>
      <point x="367" y="950" type="line" smooth="yes"/>
      <point x="424" y="1217"/>
      <point x="532" y="1331"/>
      <point x="674" y="1331" type="curve" smooth="yes"/>
      <point x="762" y="1331"/>
      <point x="797" y="1286"/>
      <point x="797" y="1208" type="curve" smooth="yes"/>
      <point x="797" y="1161"/>
      <point x="784" y="1098"/>
      <point x="770" y="1032" type="curve" smooth="yes"/>
    </contour>
  </outline>
</glyph>
<glyph name="jdotless" format="2">
  <advance width="393"/>
  <unicode hex="0237"/>
  <anchor x="-23" y="-492" name="bottom"/>
  <anchor x="311" y="1083" name="top"/>
  <outline>
    <contour>
      <point x="-160" y="-492" type="curve" smooth="yes"/>
      <point x="33" y="-492"/>
      <point x="88" y="-332"/>
      <point x="135" y="-102" type="curve" smooth="yes"/>
      <point x="391" y="1098" type="line"/>
      <point x="233" y="1098" type="line"/>
      <point x="-18" y="-90" type="line" smooth="yes"/>
      <point x="-57" y="-289"/>
      <point x="-86" y="-348"/>
      <point x="-178" y="-348" type="curve" smooth="yes"/>
      <point x="-207" y="-348"/>
      <point x="-242" y="-344"/>
      <point x="-264" y="-334" type="curve"/>
      <point x="-264" y="-477" type="line"/>
      <point x="-233" y="-487"/>
      <point x="-199" y="-492"/>
    </contour>
  </outline>
</glyph>
<glyph name="uni0238" format="2">
  <advance width="1327"/>
  <unicode hex="0238"/>
  <anchor x="549" y="0" name="bottom"/>
  <anchor x="879" y="1556" name="top"/>
  <outline>
    <contour>
      <point x="283" y="-20" type="curve" smooth="yes"/>
      <point x="406" y="-20"/>
      <point x="520" y="59"/>
      <point x="600" y="236" type="curve"/>
      <point x="612" y="55"/>
      <point x="690" y="-20"/>
      <point x="821" y="-20" type="curve" smooth="yes"/>
      <point x="1149" y="-20"/>
      <point x="1282" y="512"/>
      <point x="1282" y="815" type="curve" smooth="yes"/>
      <point x="1282" y="1014"/>
      <point x="1208" y="1118"/>
      <point x="1069" y="1118" type="curve" smooth="yes"/>
      <point x="973" y="1118"/>
      <point x="889" y="1057"/>
      <point x="827" y="950" type="curve"/>
      <point x="823" y="950" type="line"/>
      <point x="838" y="1001"/>
      <point x="850" y="1049"/>
      <point x="862" y="1108" type="curve" smooth="yes"/>
      <point x="956" y="1556" type="line"/>
      <point x="799" y="1556" type="line"/>
      <point x="713" y="1147" type="line" smooth="yes"/>
      <point x="702" y="1094"/>
      <point x="690" y="1026"/>
      <point x="682" y="963" type="curve"/>
      <point x="676" y="963" type="line"/>
      <point x="657" y="1055"/>
      <point x="592" y="1118"/>
      <point x="492" y="1118" type="curve" smooth="yes"/>
      <point x="188" y="1118"/>
      <point x="49" y="598"/>
      <point x="49" y="293" type="curve" smooth="yes"/>
      <point x="49" y="88"/>
      <point x="125" y="-20"/>
    </contour>
    <contour>
      <point x="315" y="117" type="curve" smooth="yes"/>
      <point x="246" y="117"/>
      <point x="213" y="174"/>
      <point x="213" y="293" type="curve" smooth="yes"/>
      <point x="213" y="526"/>
      <point x="317" y="977"/>
      <point x="510" y="977" type="curve" smooth="yes"/>
      <point x="588" y="977"/>
      <point x="621" y="922"/>
      <point x="621" y="819" type="curve" smooth="yes"/>
      <point x="621" y="629"/>
      <point x="535" y="117"/>
    </contour>
    <contour>
      <point x="823" y="117" type="curve" smooth="yes"/>
      <point x="748" y="117"/>
      <point x="713" y="174"/>
      <point x="713" y="289" type="curve" smooth="yes"/>
      <point x="713" y="520"/>
      <point x="815" y="979"/>
      <point x="1014" y="979" type="curve" smooth="yes"/>
      <point x="1085" y="979"/>
      <point x="1118" y="924"/>
      <point x="1118" y="803" type="curve" smooth="yes"/>
      <point x="1118" y="559"/>
      <point x="1006" y="117"/>
    </contour>
  </outline>
</glyph>
<glyph name="uni0243" format="2">
  <advance width="883"/>
  <unicode hex="0243"/>
  <anchor x="328" y="0" name="bottom"/>
  <anchor x="637" y="1462" name="top"/>
  <outline>
    <contour>
      <point x="0" y="0" type="line"/>
      <point x="322" y="0" type="line" smooth="yes"/>
      <point x="606" y="0"/>
      <point x="778" y="221"/>
      <point x="778" y="504" type="curve" smooth="yes"/>
      <point x="778" y="623"/>
      <point x="725" y="733"/>
      <point x="616" y="766" type="curve"/>
      <point x="618" y="772" type="line"/>
      <point x="813" y="823"/>
      <point x="895" y="999"/>
      <point x="895" y="1186" type="curve" smooth="yes"/>
      <point x="895" y="1370"/>
      <point x="752" y="1462"/>
      <point x="580" y="1462" type="curve" smooth="yes"/>
      <point x="309" y="1462" type="line"/>
      <point x="102" y="487" type="line"/>
      <point x="20" y="487" type="line"/>
      <point x="-6" y="367" type="line"/>
      <point x="78" y="367" type="line"/>
    </contour>
    <contour>
      <point x="193" y="135" type="line"/>
      <point x="242" y="367" type="line"/>
      <point x="430" y="367" type="line"/>
      <point x="457" y="487" type="line"/>
      <point x="268" y="487" type="line"/>
      <point x="313" y="705" type="line"/>
      <point x="438" y="705" type="line" smooth="yes"/>
      <point x="545" y="705"/>
      <point x="608" y="639"/>
      <point x="608" y="498" type="curve" smooth="yes"/>
      <point x="608" y="297"/>
      <point x="520" y="135"/>
      <point x="322" y="135" type="curve" smooth="yes"/>
    </contour>
    <contour>
      <point x="340" y="834" type="line"/>
      <point x="442" y="1319" type="line"/>
      <point x="547" y="1319" type="line" smooth="yes"/>
      <point x="666" y="1319"/>
      <point x="721" y="1264"/>
      <point x="721" y="1153" type="curve" smooth="yes"/>
      <point x="721" y="983"/>
      <point x="625" y="834"/>
      <point x="457" y="834" type="curve" smooth="yes"/>
    </contour>
  </outline>
</glyph>
<glyph name="uni026C" format="2">
  <advance width="647"/>
  <unicode hex="026C"/>
  <anchor x="209" y="0" name="bottom"/>
  <anchor x="539" y="1556" name="top"/>
  <outline>
    <contour>
      <point x="182" y="0" type="line"/>
      <point x="340" y="0" type="line"/>
      <point x="457" y="547" type="line"/>
      <point x="610" y="547" type="line"/>
      <point x="633" y="662" type="line"/>
      <point x="481" y="662" type="line"/>
      <point x="672" y="1556" type="line"/>
      <point x="514" y="1556" type="line"/>
      <point x="387" y="958" type="line"/>
      <point x="369" y="995"/>
      <point x="330" y="1018"/>
      <point x="281" y="1018" type="curve" smooth="yes"/>
      <point x="135" y="1018"/>
      <point x="51" y="897"/>
      <point x="51" y="754" type="curve" smooth="yes"/>
      <point x="51" y="633"/>
      <point x="119" y="547"/>
      <point x="260" y="547" type="curve" smooth="yes"/>
      <point x="299" y="547" type="line"/>
    </contour>
    <contour>
      <point x="279" y="662" type="line" smooth="yes"/>
      <point x="201" y="662"/>
      <point x="166" y="694"/>
      <point x="166" y="764" type="curve" smooth="yes"/>
      <point x="166" y="840"/>
      <point x="201" y="907"/>
      <point x="268" y="907" type="curve" smooth="yes"/>
      <point x="317" y="907"/>
      <point x="346" y="879"/>
      <point x="346" y="799" type="curve" smooth="yes"/>
      <point x="346" y="780"/>
      <point x="342" y="756"/>
      <point x="338" y="731" type="curve" smooth="yes"/>
      <point x="324" y="662" type="line"/>
    </contour>
  </outline>
</glyph>
<glyph name="uni0282" format="2">
  <advance width="647"/>
  <unicode hex="0282"/>
  <anchor x="123" y="-410" name="bottom"/>
  <anchor x="438" y="1083" name="top"/>
  <outline>
    <contour>
      <point x="66" y="-410" type="curve" smooth="yes"/>
      <point x="113" y="-410"/>
      <point x="158" y="-401"/>
      <point x="184" y="-393" type="curve"/>
      <point x="184" y="-258" type="line"/>
      <point x="166" y="-268"/>
      <point x="139" y="-274"/>
      <point x="113" y="-274" type="curve" smooth="yes"/>
      <point x="80" y="-274"/>
      <point x="51" y="-258"/>
      <point x="51" y="-213" type="curve" smooth="yes"/>
      <point x="51" y="-186"/>
      <point x="57" y="-154"/>
      <point x="66" y="-125" type="curve" smooth="yes"/>
      <point x="90" y="-4" type="line"/>
      <point x="123" y="-14"/>
      <point x="166" y="-20"/>
      <point x="205" y="-20" type="curve" smooth="yes"/>
      <point x="410" y="-20"/>
      <point x="528" y="113"/>
      <point x="528" y="317" type="curve" smooth="yes"/>
      <point x="528" y="455"/>
      <point x="485" y="514"/>
      <point x="377" y="627" type="curve" smooth="yes"/>
      <point x="295" y="709"/>
      <point x="274" y="756"/>
      <point x="274" y="829" type="curve" smooth="yes"/>
      <point x="274" y="922"/>
      <point x="334" y="983"/>
      <point x="426" y="983" type="curve" smooth="yes"/>
      <point x="489" y="983"/>
      <point x="553" y="961"/>
      <point x="604" y="920" type="curve"/>
      <point x="674" y="1047" type="line"/>
      <point x="614" y="1090"/>
      <point x="528" y="1118"/>
      <point x="424" y="1118" type="curve" smooth="yes"/>
      <point x="227" y="1118"/>
      <point x="113" y="981"/>
      <point x="113" y="807" type="curve" smooth="yes"/>
      <point x="113" y="690"/>
      <point x="160" y="612"/>
      <point x="250" y="522" type="curve" smooth="yes"/>
      <point x="342" y="426"/>
      <point x="365" y="379"/>
      <point x="365" y="301" type="curve" smooth="yes"/>
      <point x="365" y="184"/>
      <point x="297" y="121"/>
      <point x="188" y="121" type="curve" smooth="yes"/>
      <point x="115" y="121"/>
      <point x="25" y="152"/>
      <point x="-25" y="190" type="curve"/>
      <point x="-90" y="-121" type="line" smooth="yes"/>
      <point x="-102" y="-176"/>
      <point x="-109" y="-215"/>
      <point x="-109" y="-252" type="curve" smooth="yes"/>
      <point x="-109" y="-346"/>
      <point x="-47" y="-410"/>
    </contour>
  </outline>
</glyph>
<glyph name="uni0284" format="2">
  <advance width="418"/>
  <unicode hex="0284"/>
  <anchor x="-10" y="-492" name="bottom"/>
  <anchor x="426" y="1567" name="top"/>
  <outline>
    <contour>
      <point x="-152" y="-492" type="curve" smooth="yes"/>
      <point x="43" y="-492"/>
      <point x="96" y="-332"/>
      <point x="141" y="-119" type="curve" smooth="yes"/>
      <point x="276" y="512" type="line"/>
      <point x="410" y="512" type="line"/>
      <point x="434" y="635" type="line"/>
      <point x="303" y="635" type="line"/>
      <point x="428" y="1214" type="line" smooth="yes"/>
      <point x="463" y="1382"/>
      <point x="494" y="1427"/>
      <point x="573" y="1427" type="curve" smooth="yes"/>
      <point x="598" y="1427"/>
      <point x="637" y="1421"/>
      <point x="664" y="1407" type="curve"/>
      <point x="664" y="1542" type="line"/>
      <point x="633" y="1559"/>
      <point x="596" y="1567"/>
      <point x="551" y="1567" type="curve" smooth="yes"/>
      <point x="387" y="1567"/>
      <point x="324" y="1468"/>
      <point x="270" y="1225" type="curve" smooth="yes"/>
      <point x="145" y="635" type="line"/>
      <point x="23" y="635" type="line"/>
      <point x="-2" y="512" type="line"/>
      <point x="119" y="512" type="line"/>
      <point x="-12" y="-106" type="line" smooth="yes"/>
      <point x="-45" y="-268"/>
      <point x="-70" y="-350"/>
      <point x="-168" y="-350" type="curve" smooth="yes"/>
      <point x="-199" y="-350"/>
      <point x="-231" y="-344"/>
      <point x="-256" y="-336" type="curve"/>
      <point x="-256" y="-477" type="line"/>
      <point x="-223" y="-487"/>
      <point x="-190" y="-492"/>
    </contour>
  </outline>
</glyph>
<glyph name="uni0289" format="2">
  <advance width="846"/>
  <unicode hex="0289"/>
  <anchor x="307" y="0" name="bottom"/>
  <anchor x="537" y="1083" name="top"/>
  <outline>
    <contour>
      <point x="-6" y="506" type="line"/>
      <point x="834" y="506" type="line"/>
      <point x="862" y="635" type="line"/>
      <point x="23" y="635" type="line"/>
    </contour>
    <component base="u"/>
  </outline>
</glyph>
<glyph name="uni02A7" format="2">
  <advance width="778"/>
  <unicode hex="02A7"/>
  <anchor x="170" y="-492" name="bottom"/>
  <anchor x="608" y="1567" name="top"/>
  <outline>
    <contour>
      <point x="211" y="-492" type="curve" smooth="yes"/>
      <point x="403" y="-492"/>
      <point x="459" y="-332"/>
      <point x="504" y="-119" type="curve" smooth="yes"/>
      <point x="788" y="1214" type="line" smooth="yes"/>
      <point x="825" y="1382"/>
      <point x="856" y="1427"/>
      <point x="936" y="1427" type="curve" smooth="yes"/>
      <point x="961" y="1427"/>
      <point x="999" y="1421"/>
      <point x="1026" y="1407" type="curve"/>
      <point x="1026" y="1542" type="line"/>
      <point x="995" y="1559"/>
      <point x="958" y="1567"/>
      <point x="911" y="1567" type="curve" smooth="yes"/>
      <point x="750" y="1567"/>
      <point x="686" y="1468"/>
      <point x="633" y="1225" type="curve" smooth="yes"/>
      <point x="606" y="1098" type="line"/>
      <point x="393" y="1098" type="line"/>
      <point x="446" y="1348" type="line"/>
      <point x="332" y="1348" type="line"/>
      <point x="244" y="1096" type="line"/>
      <point x="127" y="1053" type="line"/>
      <point x="109" y="963" type="line"/>
      <point x="207" y="963" type="line"/>
      <point x="68" y="309" type="line" smooth="yes"/>
      <point x="55" y="252"/>
      <point x="49" y="203"/>
      <point x="49" y="164" type="curve" smooth="yes"/>
      <point x="49" y="49"/>
      <point x="102" y="-20"/>
      <point x="231" y="-20" type="curve" smooth="yes"/>
      <point x="274" y="-20"/>
      <point x="326" y="-14"/>
      <point x="371" y="0" type="curve"/>
      <point x="350" y="-106" type="line" smooth="yes"/>
      <point x="313" y="-268"/>
      <point x="291" y="-350"/>
      <point x="193" y="-350" type="curve" smooth="yes"/>
      <point x="164" y="-350"/>
      <point x="129" y="-344"/>
      <point x="106" y="-336" type="curve"/>
      <point x="106" y="-477" type="line"/>
      <point x="137" y="-487"/>
      <point x="172" y="-492"/>
    </contour>
    <contour>
      <point x="287" y="121" type="curve" smooth="yes"/>
      <point x="225" y="121"/>
      <point x="207" y="143"/>
      <point x="207" y="190" type="curve" smooth="yes"/>
      <point x="207" y="217"/>
      <point x="213" y="258"/>
      <point x="221" y="299" type="curve" smooth="yes"/>
      <point x="362" y="963" type="line"/>
      <point x="575" y="963" type="line"/>
      <point x="401" y="139" type="line"/>
      <point x="362" y="127"/>
      <point x="317" y="121"/>
    </contour>
  </outline>
</glyph>
<glyph name="uni02AB" format="2">
  <advance width="795"/>
  <unicode hex="02AB"/>
  <anchor x="254" y="0" name="bottom"/>
  <anchor x="584" y="1556" name="top"/>
  <outline>
    <contour>
      <point x="0" y="0" type="line"/>
      <point x="637" y="0" type="line"/>
      <point x="666" y="137" type="line"/>
      <point x="350" y="137" type="line"/>
      <point x="834" y="985" type="line"/>
      <point x="856" y="1098" type="line"/>
      <point x="391" y="1098" type="line"/>
      <point x="489" y="1556" type="line"/>
      <point x="332" y="1556" type="line"/>
    </contour>
    <contour>
      <point x="188" y="150" type="line"/>
      <point x="362" y="963" type="line"/>
      <point x="651" y="963" type="line"/>
    </contour>
  </outline>
</glyph>
<glyph name="uni02D0" format="2">
  <advance width="498"/>
  <unicode hex="02D0"/>
  <outline>
    <contour>
      <point x="291" y="844" type="line"/>
      <point x="475" y="1098" type="line"/>
      <point x="217" y="1098" type="line"/>
    </contour>
    <contour>
      <point x="18" y="0" type="line"/>
      <point x="274" y="0" type="line"/>
      <point x="199" y="254" type="line"/>
    </contour>
  </outline>
</glyph>
<glyph name="breve" format="2">
  <advance width="627"/>
  <unicode hex="02D8"/>
  <outline>
    <contour>
      <point x="485" y="1241" type="curve" smooth="yes"/>
      <point x="631" y="1241"/>
      <point x="719" y="1339"/>
      <point x="750" y="1513" type="curve"/>
      <point x="645" y="1513" type="line"/>
      <point x="616" y="1407"/>
      <point x="571" y="1366"/>
      <point x="494" y="1366" type="curve" smooth="yes"/>
      <point x="420" y="1366"/>
      <point x="389" y="1409"/>
      <point x="389" y="1513" type="curve"/>
      <point x="287" y="1513" type="line"/>
      <point x="283" y="1493"/>
      <point x="281" y="1468"/>
      <point x="281" y="1442" type="curve" smooth="yes"/>
      <point x="281" y="1321"/>
      <point x="342" y="1241"/>
    </contour>
  </outline>
</glyph>
<glyph name="commaaccentcomb" format="2">
  <unicode hex="0326"/>
  <anchor x="352" y="0" name="_bottom"/>
  <anchor x="258" y="-453" name="bottom"/>
  <outline>
    <contour>
      <point x="150" y="-453" type="line"/>
      <point x="244" y="-453" type="line"/>
      <point x="313" y="-383"/>
      <point x="420" y="-231"/>
      <point x="449" y="-145" type="curve"/>
      <point x="449" y="-125" type="line"/>
      <point x="293" y="-125" type="line"/>
      <point x="266" y="-211"/>
      <point x="195" y="-356"/>
      <point x="150" y="-424" type="curve"/>
    </contour>
  </outline>
</glyph>
<glyph name="arrowheadrightbelowcomb" format="2">
  <unicode hex="0355"/>
  <anchor x="-96" y="0" name="_bottom"/>
  <anchor x="-186" y="-492" name="bottom"/>
  <outline>
    <contour>
      <point x="-274" y="-492" type="line"/>
      <point x="-260" y="-492" type="line"/>
      <point x="-186" y="-422"/>
      <point x="-102" y="-362"/>
      <point x="-41" y="-332" type="curve"/>
      <point x="-41" y="-242" type="line"/>
      <point x="-106" y="-207"/>
      <point x="-205" y="-129"/>
      <point x="-260" y="-80" type="curve"/>
      <point x="-274" y="-80" type="line"/>
      <point x="-274" y="-158" type="line"/>
      <point x="-233" y="-203"/>
      <point x="-188" y="-242"/>
      <point x="-135" y="-287" type="curve"/>
      <point x="-186" y="-328"/>
      <point x="-233" y="-369"/>
      <point x="-274" y="-414" type="curve"/>
    </contour>
  </outline>
</glyph>
<glyph name="Theta" format="2">
  <advance width="1049"/>
  <unicode hex="0398"/>
  <anchor x="412" y="0" name="bottom"/>
  <anchor x="721" y="1462" name="top"/>
  <outline>
    <contour>
      <point x="399" y="-20" type="curve" smooth="yes"/>
      <point x="797" y="-20"/>
      <point x="1012" y="598"/>
      <point x="1012" y="1069" type="curve" smooth="yes"/>
      <point x="1012" y="1354"/>
      <point x="895" y="1483"/>
      <point x="686" y="1483" type="curve" smooth="yes"/>
      <point x="248" y="1483"/>
      <point x="72" y="786"/>
      <point x="72" y="410" type="curve" smooth="yes"/>
      <point x="72" y="117"/>
      <point x="178" y="-20"/>
    </contour>
    <contour>
      <point x="412" y="129" type="curve" smooth="yes"/>
      <point x="299" y="129"/>
      <point x="240" y="211"/>
      <point x="240" y="408" type="curve" smooth="yes"/>
      <point x="240" y="668"/>
      <point x="362" y="1335"/>
      <point x="674" y="1335" type="curve" smooth="yes"/>
      <point x="788" y="1335"/>
      <point x="846" y="1251"/>
      <point x="846" y="1071" type="curve" smooth="yes"/>
      <point x="846" y="774"/>
      <point x="702" y="129"/>
    </contour>
    <contour>
      <point x="406" y="678" type="line"/>
      <point x="649" y="678" type="line"/>
      <point x="682" y="823" type="line"/>
      <point x="438" y="823" type="line"/>
    </contour>
  </outline>
</glyph>
<glyph name="zeta" format="2">
  <advance width="629"/>
  <unicode hex="03B6"/>
  <anchor x="113" y="-406" name="bottom"/>
  <anchor x="530" y="1556" name="top"/>
  <outline>
    <contour>
      <point x="131" y="-406" type="curve"/>
      <point x="299" y="-406" type="line"/>
      <point x="395" y="-301"/>
      <point x="465" y="-188"/>
      <point x="465" y="-68" type="curve" smooth="yes"/>
      <point x="465" y="23"/>
      <point x="410" y="80"/>
      <point x="342" y="129" type="curve" smooth="yes"/>
      <point x="256" y="199"/>
      <point x="197" y="250"/>
      <point x="197" y="365" type="curve" smooth="yes"/>
      <point x="197" y="688"/>
      <point x="502" y="1120"/>
      <point x="791" y="1442" type="curve"/>
      <point x="815" y="1556" type="line"/>
      <point x="324" y="1556" type="line"/>
      <point x="295" y="1419" type="line"/>
      <point x="453" y="1419" type="line" smooth="yes"/>
      <point x="514" y="1419"/>
      <point x="565" y="1421"/>
      <point x="606" y="1427" type="curve"/>
      <point x="313" y="1096"/>
      <point x="29" y="696"/>
      <point x="29" y="319" type="curve" smooth="yes"/>
      <point x="29" y="166"/>
      <point x="90" y="102"/>
      <point x="188" y="29" type="curve" smooth="yes"/>
      <point x="246" y="-14"/>
      <point x="293" y="-53"/>
      <point x="293" y="-113" type="curve" smooth="yes"/>
      <point x="293" y="-213"/>
      <point x="201" y="-330"/>
    </contour>
  </outline>
</glyph>
<glyph name="xi" format="2">
  <advance width="653"/>
  <unicode hex="03BE"/>
  <anchor x="125" y="-406" name="bottom"/>
  <anchor x="543" y="1556" name="top"/>
  <outline>
    <contour>
      <point x="129" y="-406" type="curve"/>
      <point x="297" y="-406" type="line"/>
      <point x="401" y="-291"/>
      <point x="465" y="-178"/>
      <point x="465" y="-61" type="curve" smooth="yes"/>
      <point x="465" y="43"/>
      <point x="414" y="92"/>
      <point x="334" y="145" type="curve" smooth="yes"/>
      <point x="240" y="209"/>
      <point x="197" y="248"/>
      <point x="197" y="373" type="curve" smooth="yes"/>
      <point x="197" y="590"/>
      <point x="311" y="748"/>
      <point x="512" y="748" type="curve" smooth="yes"/>
      <point x="592" y="748" type="line"/>
      <point x="621" y="889" type="line"/>
      <point x="551" y="889" type="line" smooth="yes"/>
      <point x="438" y="889"/>
      <point x="385" y="940"/>
      <point x="385" y="1055" type="curve" smooth="yes"/>
      <point x="385" y="1235"/>
      <point x="510" y="1423"/>
      <point x="715" y="1423" type="curve" smooth="yes"/>
      <point x="768" y="1423" type="line"/>
      <point x="797" y="1556" type="line"/>
      <point x="309" y="1556" type="line"/>
      <point x="279" y="1419" type="line"/>
      <point x="367" y="1419" type="line" smooth="yes"/>
      <point x="403" y="1419"/>
      <point x="442" y="1421"/>
      <point x="489" y="1427" type="curve"/>
      <point x="319" y="1372"/>
      <point x="223" y="1210"/>
      <point x="223" y="1044" type="curve" smooth="yes"/>
      <point x="223" y="942"/>
      <point x="260" y="872"/>
      <point x="354" y="829" type="curve"/>
      <point x="352" y="823" type="line"/>
      <point x="135" y="772"/>
      <point x="31" y="561"/>
      <point x="31" y="350" type="curve" smooth="yes"/>
      <point x="31" y="182"/>
      <point x="92" y="102"/>
      <point x="205" y="29" type="curve" smooth="yes"/>
      <point x="264" y="-10"/>
      <point x="299" y="-43"/>
      <point x="301" y="-104" type="curve" smooth="yes"/>
      <point x="305" y="-203"/>
      <point x="203" y="-324"/>
    </contour>
  </outline>
</glyph>
<glyph name="uni03D9" format="2">
  <advance width="834"/>
  <unicode hex="03D9"/>
  <anchor x="199" y="-492" name="bottom"/>
  <anchor x="532" y="1083" name="top"/>
  <outline>
    <contour>
      <point x="113" y="-492" type="line"/>
      <point x="270" y="-492" type="line"/>
      <point x="373" y="-12" type="line"/>
      <point x="651" y="33"/>
      <point x="782" y="465"/>
      <point x="782" y="782" type="curve" smooth="yes"/>
      <point x="782" y="997"/>
      <point x="686" y="1118"/>
      <point x="522" y="1118" type="curve" smooth="yes"/>
      <point x="174" y="1118"/>
      <point x="51" y="590"/>
      <point x="51" y="311" type="curve" smooth="yes"/>
      <point x="51" y="141"/>
      <point x="111" y="33"/>
      <point x="217" y="-4" type="curve"/>
    </contour>
    <contour>
      <point x="330" y="119" type="curve" smooth="yes"/>
      <point x="250" y="119"/>
      <point x="211" y="186"/>
      <point x="211" y="309" type="curve" smooth="yes"/>
      <point x="211" y="526"/>
      <point x="301" y="981"/>
      <point x="502" y="981" type="curve" smooth="yes"/>
      <point x="582" y="981"/>
      <point x="621" y="909"/>
      <point x="621" y="786" type="curve" smooth="yes"/>
      <point x="621" y="532"/>
      <point x="516" y="119"/>
    </contour>
  </outline>
</glyph>
<glyph name="uni03DC" format="2">
  <advance width="670"/>
  <unicode hex="03DC"/>
  <anchor x="219" y="0" name="bottom"/>
  <anchor x="530" y="1462" name="top"/>
  <outline>
    <contour>
      <point x="0" y="0" type="line"/>
      <point x="164" y="0" type="line"/>
      <point x="305" y="674" type="line"/>
      <point x="479" y="674" type="line"/>
      <point x="432" y="457" type="line"/>
      <point x="563" y="457" type="line"/>
      <point x="643" y="821" type="line"/>
      <point x="338" y="821" type="line"/>
      <point x="440" y="1313" type="line"/>
      <point x="774" y="1313" type="line"/>
      <point x="805" y="1462" type="line"/>
      <point x="309" y="1462" type="line"/>
    </contour>
  </outline>
</glyph>
<glyph name="afii10053" format="2">
  <advance width="836"/>
  <unicode hex="0404"/>
  <anchor x="303" y="0" name="bottom"/>
  <anchor x="612" y="1462" name="top"/>
  <outline>
    <contour>
      <point x="414" y="-20" type="curve" smooth="yes"/>
      <point x="483" y="-20"/>
      <point x="582" y="0"/>
      <point x="649" y="33" type="curve"/>
      <point x="649" y="180" type="line"/>
      <point x="582" y="150"/>
      <point x="510" y="127"/>
      <point x="446" y="127" type="curve" smooth="yes"/>
      <point x="293" y="127"/>
      <point x="246" y="252"/>
      <point x="246" y="465" type="curve" smooth="yes"/>
      <point x="246" y="532"/>
      <point x="254" y="610"/>
      <point x="266" y="688" type="curve"/>
      <point x="664" y="688" type="line"/>
      <point x="696" y="836" type="line"/>
      <point x="301" y="836" type="line"/>
      <point x="362" y="1069"/>
      <point x="498" y="1335"/>
      <point x="713" y="1335" type="curve" smooth="yes"/>
      <point x="772" y="1335"/>
      <point x="823" y="1317"/>
      <point x="870" y="1278" type="curve"/>
      <point x="956" y="1411" type="line"/>
      <point x="897" y="1460"/>
      <point x="813" y="1485"/>
      <point x="711" y="1485" type="curve" smooth="yes"/>
      <point x="311" y="1485"/>
      <point x="76" y="913"/>
      <point x="76" y="457" type="curve" smooth="yes"/>
      <point x="76" y="139"/>
      <point x="184" y="-20"/>
    </contour>
  </outline>
</glyph>
<glyph name="afii10060" format="2">
  <advance width="948"/>
  <unicode hex="040B"/>
  <anchor x="360" y="0" name="bottom"/>
  <anchor x="670" y="1462" name="top"/>
  <outline>
    <contour>
      <point x="109" y="0" type="line"/>
      <point x="272" y="0" type="line"/>
      <point x="432" y="748" type="line"/>
      <point x="539" y="748" type="line" smooth="yes"/>
      <point x="631" y="748"/>
      <point x="672" y="717"/>
      <point x="672" y="639" type="curve" smooth="yes"/>
      <point x="672" y="612"/>
      <point x="670" y="578"/>
      <point x="662" y="545" type="curve" smooth="yes"/>
      <point x="545" y="0" type="line"/>
      <point x="709" y="0" type="line"/>
      <point x="821" y="524" type="line" smooth="yes"/>
      <point x="829" y="569"/>
      <point x="838" y="621"/>
      <point x="838" y="670" type="curve" smooth="yes"/>
      <point x="838" y="811"/>
      <point x="754" y="897"/>
      <point x="569" y="897" type="curve" smooth="yes"/>
      <point x="463" y="897" type="line"/>
      <point x="551" y="1313" type="line"/>
      <point x="793" y="1313" type="line"/>
      <point x="823" y="1462" type="line"/>
      <point x="201" y="1462" type="line"/>
      <point x="170" y="1313" type="line"/>
      <point x="387" y="1313" type="line"/>
    </contour>
  </outline>
</glyph>
<glyph name="afii10026" format="2">
  <advance width="1057"/>
  <unicode hex="0418"/>
  <anchor x="416" y="0" name="bottom"/>
  <anchor x="725" y="1462" name="top"/>
  <outline>
    <contour>
      <point x="0" y="0" type="line"/>
      <point x="195" y="0" type="line"/>
      <point x="885" y="1153" type="line"/>
      <point x="891" y="1153" type="line"/>
      <point x="850" y="1024"/>
      <point x="803" y="791"/>
      <point x="762" y="606" type="curve" smooth="yes"/>
      <point x="635" y="0" type="line"/>
      <point x="795" y="0" type="line"/>
      <point x="1104" y="1462" type="line"/>
      <point x="911" y="1462" type="line"/>
      <point x="225" y="319" type="line"/>
      <point x="219" y="319" type="line"/>
      <point x="264" y="485"/>
      <point x="303" y="676"/>
      <point x="340" y="848" type="curve" smooth="yes"/>
      <point x="469" y="1462" type="line"/>
      <point x="309" y="1462" type="line"/>
    </contour>
  </outline>
</glyph>
<glyph name="afii10068" format="2">
  <advance width="651"/>
  <unicode hex="0433"/>
  <anchor x="211" y="0" name="bottom"/>
  <anchor x="440" y="1083" name="top"/>
  <outline>
    <contour>
      <point x="268" y="-20" type="curve" smooth="yes"/>
      <point x="348" y="-20"/>
      <point x="428" y="0"/>
      <point x="498" y="39" type="curve"/>
      <point x="498" y="182" type="line"/>
      <point x="438" y="147"/>
      <point x="371" y="119"/>
      <point x="297" y="119" type="curve" smooth="yes"/>
      <point x="215" y="119"/>
      <point x="162" y="160"/>
      <point x="162" y="242" type="curve" smooth="yes"/>
      <point x="162" y="362"/>
      <point x="215" y="424"/>
      <point x="385" y="524" type="curve" smooth="yes"/>
      <point x="528" y="608"/>
      <point x="639" y="702"/>
      <point x="639" y="885" type="curve" smooth="yes"/>
      <point x="639" y="1032"/>
      <point x="551" y="1118"/>
      <point x="393" y="1118" type="curve" smooth="yes"/>
      <point x="309" y="1118"/>
      <point x="231" y="1094"/>
      <point x="154" y="1047" type="curve"/>
      <point x="195" y="926" type="line"/>
      <point x="246" y="954"/>
      <point x="301" y="981"/>
      <point x="369" y="981" type="curve" smooth="yes"/>
      <point x="436" y="981"/>
      <point x="479" y="948"/>
      <point x="479" y="881" type="curve" smooth="yes"/>
      <point x="479" y="758"/>
      <point x="387" y="698"/>
      <point x="266" y="625" type="curve" smooth="yes"/>
      <point x="106" y="535"/>
      <point x="-2" y="432"/>
      <point x="-2" y="231" type="curve" smooth="yes"/>
      <point x="0" y="57"/>
      <point x="111" y="-20"/>
    </contour>
  </outline>
</glyph>
<glyph name="uni0462" format="2">
  <advance width="887"/>
  <unicode hex="0462"/>
  <anchor x="332" y="0" name="bottom"/>
  <anchor x="641" y="1462" name="top"/>
  <outline>
    <contour>
      <point x="47" y="0" type="line"/>
      <point x="324" y="0" type="line" smooth="yes"/>
      <point x="649" y="0"/>
      <point x="797" y="250"/>
      <point x="797" y="526" type="curve" smooth="yes"/>
      <point x="797" y="721"/>
      <point x="694" y="848"/>
      <point x="461" y="848" type="curve" smooth="yes"/>
      <point x="391" y="848" type="line"/>
      <point x="453" y="1147" type="line"/>
      <point x="684" y="1147" type="line"/>
      <point x="713" y="1276" type="line"/>
      <point x="479" y="1276" type="line"/>
      <point x="541" y="1559" type="line"/>
      <point x="377" y="1559" type="line"/>
      <point x="315" y="1276" type="line"/>
      <point x="143" y="1276" type="line"/>
      <point x="117" y="1147" type="line"/>
      <point x="289" y="1147" type="line"/>
    </contour>
    <contour>
      <point x="242" y="145" type="line"/>
      <point x="360" y="702" type="line"/>
      <point x="422" y="702" type="line" smooth="yes"/>
      <point x="557" y="702"/>
      <point x="629" y="647"/>
      <point x="629" y="516" type="curve" smooth="yes"/>
      <point x="629" y="311"/>
      <point x="541" y="145"/>
      <point x="344" y="145" type="curve" smooth="yes"/>
    </contour>
  </outline>
</glyph>
<glyph name="uni0480" format="2">
  <advance width="815"/>
  <unicode hex="0480"/>
  <anchor x="193" y="-481" name="bottom"/>
  <anchor x="604" y="1462" name="top"/>
  <outline>
    <contour>
      <point x="317" y="-481" type="line"/>
      <point x="479" y="-481" type="line"/>
      <point x="616" y="168" type="line"/>
      <point x="559" y="141"/>
      <point x="500" y="127"/>
      <point x="451" y="127" type="curve" smooth="yes"/>
      <point x="307" y="127"/>
      <point x="246" y="227"/>
      <point x="246" y="465" type="curve" smooth="yes"/>
      <point x="246" y="801"/>
      <point x="418" y="1335"/>
      <point x="705" y="1335" type="curve" smooth="yes"/>
      <point x="762" y="1335"/>
      <point x="813" y="1317"/>
      <point x="858" y="1278" type="curve"/>
      <point x="944" y="1411" type="line"/>
      <point x="885" y="1460"/>
      <point x="805" y="1485"/>
      <point x="707" y="1485" type="curve" smooth="yes"/>
      <point x="301" y="1485"/>
      <point x="76" y="887"/>
      <point x="76" y="451" type="curve" smooth="yes"/>
      <point x="76" y="133"/>
      <point x="178" y="-20"/>
      <point x="416" y="-20" type="curve"/>
    </contour>
  </outline>
</glyph>
<glyph name="uni048C" format="2">
  <advance width="844"/>
  <unicode hex="048C"/>
  <anchor x="313" y="0" name="bottom"/>
  <anchor x="625" y="1462" name="top"/>
  <outline>
    <contour>
      <point x="4" y="0" type="line"/>
      <point x="283" y="0" type="line" smooth="yes"/>
      <point x="606" y="0"/>
      <point x="754" y="248"/>
      <point x="754" y="526" type="curve" smooth="yes"/>
      <point x="754" y="737"/>
      <point x="637" y="848"/>
      <point x="418" y="848" type="curve" smooth="yes"/>
      <point x="346" y="848" type="line"/>
      <point x="406" y="1124" type="line"/>
      <point x="635" y="1124" type="line" smooth="yes"/>
      <point x="664" y="1253" type="line" smooth="yes"/>
      <point x="432" y="1253" type="line"/>
      <point x="475" y="1462" type="line"/>
      <point x="311" y="1462" type="line"/>
      <point x="268" y="1253" type="line"/>
      <point x="137" y="1253" type="line"/>
      <point x="111" y="1124" type="line"/>
      <point x="240" y="1124" type="line"/>
    </contour>
    <contour>
      <point x="199" y="145" type="line"/>
      <point x="317" y="702" type="line"/>
      <point x="379" y="702" type="line" smooth="yes"/>
      <point x="514" y="702"/>
      <point x="586" y="647"/>
      <point x="586" y="516" type="curve" smooth="yes"/>
      <point x="586" y="311"/>
      <point x="496" y="145"/>
      <point x="301" y="145" type="curve" smooth="yes"/>
    </contour>
  </outline>
</glyph>
<glyph name="uni0496" format="2">
  <advance width="1192"/>
  <unicode hex="0496"/>
  <anchor x="399" y="-391" name="bottom"/>
  <anchor x="791" y="1462" name="top"/>
  <outline>
    <contour>
      <point x="827" y="-391" type="line"/>
      <point x="989" y="-391" type="line"/>
      <point x="1104" y="147" type="line"/>
      <point x="995" y="147" type="line"/>
      <point x="844" y="750" type="line"/>
      <point x="1333" y="1462" type="line"/>
      <point x="1155" y="1462" type="line"/>
      <point x="686" y="760" type="line"/>
      <point x="836" y="1462" type="line"/>
      <point x="676" y="1462" type="line"/>
      <point x="526" y="758" type="line"/>
      <point x="344" y="1462" type="line"/>
      <point x="176" y="1462" type="line"/>
      <point x="367" y="764" type="line"/>
      <point x="-137" y="0" type="line"/>
      <point x="45" y="0" type="line"/>
      <point x="524" y="748" type="line"/>
      <point x="367" y="0" type="line"/>
      <point x="526" y="0" type="line"/>
      <point x="684" y="748" type="line"/>
      <point x="858" y="0" type="line"/>
      <point x="911" y="0" type="line"/>
    </contour>
  </outline>
</glyph>
<glyph name="uni049A" format="2">
  <advance width="870"/>
  <unicode hex="049A"/>
  <anchor x="238" y="-391" name="bottom"/>
  <anchor x="631" y="1462" name="top"/>
  <outline>
    <contour>
      <point x="489" y="-391" type="line"/>
      <point x="651" y="-391" type="line"/>
      <point x="766" y="147" type="line"/>
      <point x="659" y="147" type="line"/>
      <point x="485" y="748" type="line"/>
      <point x="989" y="1462" type="line"/>
      <point x="809" y="1462" type="line"/>
      <point x="324" y="758" type="line"/>
      <point x="473" y="1462" type="line"/>
      <point x="309" y="1462" type="line"/>
      <point x="0" y="0" type="line"/>
      <point x="164" y="0" type="line"/>
      <point x="322" y="745" type="line"/>
      <point x="520" y="0" type="line"/>
      <point x="573" y="0" type="line"/>
    </contour>
  </outline>
</glyph>
<glyph name="uni04A8" format="2">
  <advance width="1120"/>
  <unicode hex="04A8"/>
  <anchor x="446" y="0" name="bottom"/>
  <anchor x="756" y="1462" name="top"/>
  <outline>
    <contour>
      <point x="788" y="-84" type="curve" smooth="yes"/>
      <point x="838" y="-84"/>
      <point x="889" y="-78"/>
      <point x="934" y="-59" type="curve"/>
      <point x="950" y="82" type="line"/>
      <point x="911" y="66"/>
      <point x="874" y="57"/>
      <point x="840" y="57" type="curve" smooth="yes"/>
      <point x="797" y="57"/>
      <point x="754" y="76"/>
      <point x="725" y="106" type="curve"/>
      <point x="946" y="281"/>
      <point x="1079" y="604"/>
      <point x="1079" y="899" type="curve" smooth="yes"/>
      <point x="1079" y="1073"/>
      <point x="1006" y="1167"/>
      <point x="858" y="1167" type="curve" smooth="yes"/>
      <point x="598" y="1167"/>
      <point x="463" y="774"/>
      <point x="463" y="420" type="curve" smooth="yes"/>
      <point x="463" y="311"/>
      <point x="481" y="213"/>
      <point x="516" y="145" type="curve"/>
      <point x="485" y="133"/>
      <point x="453" y="127"/>
      <point x="424" y="127" type="curve" smooth="yes"/>
      <point x="305" y="127"/>
      <point x="244" y="227"/>
      <point x="244" y="449" type="curve" smooth="yes"/>
      <point x="244" y="817"/>
      <point x="418" y="1335"/>
      <point x="694" y="1335" type="curve" smooth="yes"/>
      <point x="741" y="1335"/>
      <point x="778" y="1325"/>
      <point x="809" y="1303" type="curve"/>
      <point x="879" y="1442" type="line"/>
      <point x="829" y="1468"/>
      <point x="770" y="1485"/>
      <point x="694" y="1485" type="curve" smooth="yes"/>
      <point x="307" y="1485"/>
      <point x="76" y="913"/>
      <point x="76" y="434" type="curve" smooth="yes"/>
      <point x="76" y="143"/>
      <point x="188" y="-20"/>
      <point x="389" y="-20" type="curve" smooth="yes"/>
      <point x="453" y="-20"/>
      <point x="514" y="-6"/>
      <point x="571" y="16" type="curve"/>
      <point x="621" y="-47"/>
      <point x="696" y="-84"/>
    </contour>
    <contour>
      <point x="655" y="213" type="curve"/>
      <point x="631" y="266"/>
      <point x="618" y="342"/>
      <point x="618" y="432" type="curve" smooth="yes"/>
      <point x="618" y="653"/>
      <point x="694" y="1026"/>
      <point x="848" y="1026" type="curve" smooth="yes"/>
      <point x="897" y="1026"/>
      <point x="926" y="981"/>
      <point x="926" y="887" type="curve" smooth="yes"/>
      <point x="926" y="662"/>
      <point x="817" y="348"/>
    </contour>
  </outline>
</glyph>
<glyph name="uni04B0" format="2">
  <advance width="721"/>
  <unicode hex="04B0"/>
  <anchor x="246" y="0" name="bottom"/>
  <anchor x="555" y="1462" name="top"/>
  <outline>
    <contour>
      <point x="150" y="0" type="line"/>
      <point x="315" y="0" type="line"/>
      <point x="391" y="367" type="line"/>
      <point x="565" y="367" type="line"/>
      <point x="596" y="508" type="line"/>
      <point x="422" y="508" type="line"/>
      <point x="434" y="567" type="line"/>
      <point x="907" y="1462" type="line"/>
      <point x="731" y="1462" type="line"/>
      <point x="395" y="784" type="line"/>
      <point x="344" y="1462" type="line"/>
      <point x="174" y="1462" type="line"/>
      <point x="270" y="565" type="line"/>
      <point x="256" y="508" type="line"/>
      <point x="90" y="508" type="line"/>
      <point x="59" y="367" type="line"/>
      <point x="227" y="367" type="line"/>
    </contour>
  </outline>
</glyph>
<glyph name="uni04B2" format="2">
  <advance width="770"/>
  <unicode hex="04B2"/>
  <anchor x="188" y="-391" name="bottom"/>
  <anchor x="580" y="1462" name="top"/>
  <outline>
    <contour>
      <point x="434" y="-391" type="line"/>
      <point x="596" y="-391" type="line"/>
      <point x="711" y="147" type="line"/>
      <point x="582" y="147" type="line"/>
      <point x="508" y="748" type="line"/>
      <point x="905" y="1462" type="line"/>
      <point x="729" y="1462" type="line"/>
      <point x="451" y="924" type="line"/>
      <point x="389" y="1462" type="line"/>
      <point x="219" y="1462" type="line"/>
      <point x="319" y="770" type="line"/>
      <point x="-121" y="0" type="line"/>
      <point x="55" y="0" type="line"/>
      <point x="377" y="588" type="line"/>
      <point x="434" y="0" type="line"/>
      <point x="518" y="0" type="line"/>
    </contour>
  </outline>
</glyph>
<glyph name="uni04F6" format="2">
  <advance width="674"/>
  <unicode hex="04F6"/>
  <anchor x="139" y="-391" name="bottom"/>
  <anchor x="532" y="1462" name="top"/>
  <outline>
    <contour>
      <point x="41" y="-391" type="line"/>
      <point x="201" y="-391" type="line"/>
      <point x="315" y="147" type="line"/>
      <point x="195" y="147" type="line"/>
      <point x="442" y="1313" type="line"/>
      <point x="805" y="1313" type="line"/>
      <point x="836" y="1462" type="line"/>
      <point x="309" y="1462" type="line"/>
      <point x="0" y="0" type="line"/>
      <point x="125" y="0" type="line"/>
    </contour>
  </outline>
</glyph>
<glyph name="uni04FE" format="2">
  <advance width="756"/>
  <unicode hex="04FE"/>
  <anchor x="262" y="0" name="bottom"/>
  <anchor x="573" y="1462" name="top"/>
  <outline>
    <contour>
      <point x="-121" y="0" type="line"/>
      <point x="55" y="0" type="line"/>
      <point x="377" y="588" type="line"/>
      <point x="434" y="0" type="line"/>
      <point x="608" y="0" type="line"/>
      <point x="520" y="690" type="line"/>
      <point x="698" y="690" type="line"/>
      <point x="729" y="834" type="line"/>
      <point x="555" y="834" type="line"/>
      <point x="905" y="1462" type="line"/>
      <point x="729" y="1462" type="line"/>
      <point x="451" y="924" type="line"/>
      <point x="389" y="1462" type="line"/>
      <point x="219" y="1462" type="line"/>
      <point x="309" y="834" type="line"/>
      <point x="137" y="834" type="line"/>
      <point x="109" y="690" type="line"/>
      <point x="272" y="690" type="line"/>
    </contour>
  </outline>
</glyph>
<glyph name="uni0502" format="2">
  <advance width="1249"/>
  <unicode hex="0502"/>
  <anchor x="510" y="0" name="bottom"/>
  <anchor x="819" y="1462" name="top"/>
  <outline>
    <contour>
      <point x="743" y="-20" type="curve" smooth="yes"/>
      <point x="956" y="-20"/>
      <point x="1051" y="127"/>
      <point x="1102" y="373" type="curve" smooth="yes"/>
      <point x="1204" y="848" type="line"/>
      <point x="1040" y="848" type="line"/>
      <point x="936" y="365" type="line" smooth="yes"/>
      <point x="903" y="221"/>
      <point x="866" y="129"/>
      <point x="754" y="129" type="curve" smooth="yes"/>
      <point x="684" y="129"/>
      <point x="643" y="174"/>
      <point x="643" y="256" type="curve" smooth="yes"/>
      <point x="643" y="285"/>
      <point x="647" y="317"/>
      <point x="655" y="356" type="curve" smooth="yes"/>
      <point x="891" y="1462" type="line"/>
      <point x="727" y="1462" type="line"/>
      <point x="604" y="879" type="line"/>
      <point x="512" y="879" type="line" smooth="yes"/>
      <point x="213" y="879"/>
      <point x="27" y="618"/>
      <point x="27" y="309" type="curve" smooth="yes"/>
      <point x="27" y="94"/>
      <point x="123" y="-20"/>
      <point x="279" y="-20" type="curve" smooth="yes"/>
      <point x="393" y="-20"/>
      <point x="469" y="29"/>
      <point x="528" y="131" type="curve"/>
      <point x="547" y="37"/>
      <point x="616" y="-20"/>
    </contour>
    <contour>
      <point x="315" y="129" type="curve" smooth="yes"/>
      <point x="233" y="129"/>
      <point x="197" y="195"/>
      <point x="197" y="322" type="curve" smooth="yes"/>
      <point x="197" y="535"/>
      <point x="301" y="735"/>
      <point x="506" y="735" type="curve" smooth="yes"/>
      <point x="573" y="735" type="line"/>
      <point x="487" y="322" type="line" smooth="yes"/>
      <point x="461" y="197"/>
      <point x="403" y="129"/>
    </contour>
  </outline>
</glyph>
<glyph name="uni0505" format="2">
  <advance width="1055"/>
  <unicode hex="0505"/>
  <anchor x="414" y="0" name="bottom"/>
  <anchor x="643" y="1083" name="top"/>
  <outline>
    <contour>
      <point x="584" y="-20" type="curve" smooth="yes"/>
      <point x="760" y="-20"/>
      <point x="856" y="100"/>
      <point x="909" y="354" type="curve" smooth="yes"/>
      <point x="983" y="700" type="line"/>
      <point x="825" y="700" type="line"/>
      <point x="754" y="358" type="line" smooth="yes"/>
      <point x="719" y="197"/>
      <point x="676" y="117"/>
      <point x="590" y="117" type="curve" smooth="yes"/>
      <point x="528" y="117"/>
      <point x="498" y="150"/>
      <point x="498" y="211" type="curve" smooth="yes"/>
      <point x="498" y="264"/>
      <point x="516" y="352"/>
      <point x="516" y="399" type="curve" smooth="yes"/>
      <point x="516" y="494"/>
      <point x="469" y="553"/>
      <point x="383" y="580" type="curve"/>
      <point x="385" y="588" type="line"/>
      <point x="510" y="629"/>
      <point x="590" y="737"/>
      <point x="590" y="887" type="curve" smooth="yes"/>
      <point x="590" y="1036"/>
      <point x="508" y="1118"/>
      <point x="360" y="1118" type="curve" smooth="yes"/>
      <point x="281" y="1118"/>
      <point x="207" y="1102"/>
      <point x="129" y="1057" type="curve"/>
      <point x="170" y="936" type="line"/>
      <point x="221" y="965"/>
      <point x="264" y="981"/>
      <point x="319" y="981" type="curve" smooth="yes"/>
      <point x="393" y="981"/>
      <point x="432" y="942"/>
      <point x="432" y="856" type="curve" smooth="yes"/>
      <point x="432" y="741"/>
      <point x="348" y="641"/>
      <point x="231" y="641" type="curve" smooth="yes"/>
      <point x="158" y="641" type="line"/>
      <point x="129" y="514" type="line"/>
      <point x="215" y="514" type="line" smooth="yes"/>
      <point x="309" y="514"/>
      <point x="358" y="471"/>
      <point x="358" y="393" type="curve" smooth="yes"/>
      <point x="358" y="338"/>
      <point x="340" y="246"/>
      <point x="340" y="193" type="curve" smooth="yes"/>
      <point x="340" y="55"/>
      <point x="414" y="-20"/>
    </contour>
  </outline>
</glyph>
<glyph name="uni0507" format="2">
  <advance width="698"/>
  <unicode hex="0507"/>
  <anchor x="156" y="-379" name="bottom"/>
  <anchor x="465" y="1083" name="top"/>
  <outline>
    <contour>
      <point x="309" y="-379" type="line"/>
      <point x="465" y="-379" type="line"/>
      <point x="575" y="139" type="line"/>
      <point x="467" y="139" type="line"/>
      <point x="500" y="301" type="line" smooth="yes"/>
      <point x="506" y="330"/>
      <point x="510" y="360"/>
      <point x="510" y="383" type="curve" smooth="yes"/>
      <point x="510" y="483"/>
      <point x="465" y="555"/>
      <point x="379" y="580" type="curve"/>
      <point x="381" y="588" type="line"/>
      <point x="508" y="629"/>
      <point x="586" y="737"/>
      <point x="586" y="883" type="curve" smooth="yes"/>
      <point x="586" y="1036"/>
      <point x="502" y="1118"/>
      <point x="352" y="1118" type="curve" smooth="yes"/>
      <point x="274" y="1118"/>
      <point x="203" y="1102"/>
      <point x="125" y="1057" type="curve"/>
      <point x="166" y="936" type="line"/>
      <point x="217" y="965"/>
      <point x="260" y="981"/>
      <point x="315" y="981" type="curve" smooth="yes"/>
      <point x="389" y="981"/>
      <point x="428" y="942"/>
      <point x="428" y="856" type="curve" smooth="yes"/>
      <point x="428" y="739"/>
      <point x="338" y="641"/>
      <point x="227" y="641" type="curve" smooth="yes"/>
      <point x="154" y="641" type="line"/>
      <point x="125" y="514" type="line"/>
      <point x="211" y="514" type="line" smooth="yes"/>
      <point x="303" y="514"/>
      <point x="354" y="467"/>
      <point x="354" y="383" type="curve" smooth="yes"/>
      <point x="354" y="365"/>
      <point x="350" y="334"/>
      <point x="344" y="301" type="curve" smooth="yes"/>
      <point x="281" y="0" type="line"/>
      <point x="391" y="0" type="line"/>
    </contour>
  </outline>
</glyph>
<glyph name="uni050F" format="2">
  <advance width="862"/>
  <unicode hex="050F"/>
  <anchor x="317" y="0" name="bottom"/>
  <anchor x="547" y="1083" name="top"/>
  <outline>
    <contour>
      <point x="393" y="-20" type="curve" smooth="yes"/>
      <point x="575" y="-20"/>
      <point x="670" y="119"/>
      <point x="719" y="344" type="curve" smooth="yes"/>
      <point x="795" y="700" type="line"/>
      <point x="637" y="700" type="line"/>
      <point x="561" y="348" type="line" smooth="yes"/>
      <point x="528" y="190"/>
      <point x="489" y="117"/>
      <point x="399" y="117" type="curve" smooth="yes"/>
      <point x="336" y="117"/>
      <point x="305" y="160"/>
      <point x="305" y="242" type="curve" smooth="yes"/>
      <point x="305" y="283"/>
      <point x="313" y="326"/>
      <point x="334" y="420" type="curve" smooth="yes"/>
      <point x="449" y="961" type="line"/>
      <point x="639" y="961" type="line"/>
      <point x="668" y="1098" type="line"/>
      <point x="129" y="1098" type="line"/>
      <point x="100" y="961" type="line"/>
      <point x="293" y="961" type="line"/>
      <point x="178" y="426" type="line" smooth="yes"/>
      <point x="158" y="328"/>
      <point x="150" y="274"/>
      <point x="150" y="223" type="curve" smooth="yes"/>
      <point x="150" y="63"/>
      <point x="225" y="-20"/>
    </contour>
  </outline>
</glyph>
<glyph name="uni051F" format="2">
  <advance width="727"/>
  <unicode hex="051F"/>
  <anchor x="250" y="0" name="bottom"/>
  <anchor x="479" y="1083" name="top"/>
  <outline>
    <contour>
      <point x="0" y="0" type="line"/>
      <point x="158" y="0" type="line"/>
      <point x="276" y="561" type="line"/>
      <point x="440" y="0" type="line"/>
      <point x="610" y="0" type="line"/>
      <point x="436" y="569" type="line"/>
      <point x="580" y="760" type="line"/>
      <point x="651" y="651" type="line"/>
      <point x="731" y="707" type="line"/>
      <point x="639" y="846" type="line"/>
      <point x="823" y="1098" type="line"/>
      <point x="647" y="1098" type="line"/>
      <point x="549" y="963" type="line"/>
      <point x="487" y="1057" type="line"/>
      <point x="410" y="1001" type="line"/>
      <point x="492" y="877" type="line"/>
      <point x="281" y="584" type="line"/>
      <point x="391" y="1098" type="line"/>
      <point x="233" y="1098" type="line"/>
    </contour>
  </outline>
</glyph>
<glyph name="uni1AB2" format="2">
  <unicode hex="1AB2"/>
  <anchor x="115" y="1083" name="_top"/>
  <anchor x="231" y="1712" name="top"/>
  <outline>
    <contour>
      <point x="-16" y="1247" type="curve" smooth="yes"/>
      <point x="78" y="1247"/>
      <point x="145" y="1325"/>
      <point x="197" y="1395" type="curve"/>
      <point x="252" y="1313"/>
      <point x="315" y="1247"/>
      <point x="416" y="1247" type="curve" smooth="yes"/>
      <point x="539" y="1247"/>
      <point x="625" y="1352"/>
      <point x="625" y="1477" type="curve" smooth="yes"/>
      <point x="625" y="1616"/>
      <point x="539" y="1710"/>
      <point x="416" y="1710" type="curve" smooth="yes"/>
      <point x="313" y="1710"/>
      <point x="252" y="1634"/>
      <point x="201" y="1561" type="curve"/>
      <point x="145" y="1647"/>
      <point x="80" y="1712"/>
      <point x="-16" y="1712" type="curve" smooth="yes"/>
      <point x="-143" y="1712"/>
      <point x="-225" y="1610"/>
      <point x="-225" y="1481" type="curve" smooth="yes"/>
      <point x="-225" y="1337"/>
      <point x="-139" y="1247"/>
    </contour>
    <contour>
      <point x="-10" y="1335" type="curve" smooth="yes"/>
      <point x="-90" y="1335"/>
      <point x="-133" y="1403"/>
      <point x="-133" y="1479" type="curve" smooth="yes"/>
      <point x="-133" y="1561"/>
      <point x="-84" y="1624"/>
      <point x="-12" y="1624" type="curve" smooth="yes"/>
      <point x="55" y="1624"/>
      <point x="98" y="1579"/>
      <point x="147" y="1483" type="curve"/>
      <point x="96" y="1380"/>
      <point x="51" y="1335"/>
    </contour>
    <contour>
      <point x="410" y="1335" type="curve" smooth="yes"/>
      <point x="348" y="1335"/>
      <point x="299" y="1389"/>
      <point x="250" y="1479" type="curve"/>
      <point x="303" y="1577"/>
      <point x="352" y="1622"/>
      <point x="406" y="1622" type="curve" smooth="yes"/>
      <point x="481" y="1622"/>
      <point x="530" y="1563"/>
      <point x="530" y="1479" type="curve" smooth="yes"/>
      <point x="530" y="1397"/>
      <point x="481" y="1335"/>
    </contour>
  </outline>
</glyph>
<glyph name="uni1ABE" format="2">
  <unicode hex="1ABE"/>
  <anchor x="-18" y="455" name="_center"/>
  <outline>
    <contour>
      <point x="494" y="225" type="curve"/>
      <point x="606" y="225" type="line"/>
      <point x="715" y="301"/>
      <point x="772" y="395"/>
      <point x="772" y="504" type="curve" smooth="yes"/>
      <point x="772" y="565"/>
      <point x="750" y="637"/>
      <point x="702" y="684" type="curve"/>
      <point x="592" y="684" type="line"/>
      <point x="631" y="635"/>
      <point x="655" y="563"/>
      <point x="655" y="502" type="curve" smooth="yes"/>
      <point x="655" y="399"/>
      <point x="596" y="303"/>
    </contour>
    <contour>
      <point x="-741" y="225" type="curve"/>
      <point x="-631" y="225" type="line"/>
      <point x="-670" y="272"/>
      <point x="-692" y="344"/>
      <point x="-692" y="403" type="curve" smooth="yes"/>
      <point x="-692" y="506"/>
      <point x="-633" y="604"/>
      <point x="-532" y="684" type="curve"/>
      <point x="-645" y="684" type="line"/>
      <point x="-752" y="606"/>
      <point x="-809" y="512"/>
      <point x="-809" y="403" type="curve" smooth="yes"/>
      <point x="-809" y="342"/>
      <point x="-788" y="272"/>
    </contour>
  </outline>
</glyph>
<glyph name="uni1C85" format="2">
  <advance width="1260"/>
  <unicode hex="1C85"/>
  <anchor x="514" y="0" name="bottom"/>
  <anchor x="743" y="1083" name="top"/>
  <outline>
    <contour>
      <point x="0" y="0" type="line"/>
      <point x="158" y="0" type="line"/>
      <point x="362" y="961" type="line"/>
      <point x="635" y="961" type="line"/>
      <point x="430" y="0" type="line"/>
      <point x="588" y="0" type="line"/>
      <point x="793" y="961" type="line"/>
      <point x="1065" y="961" type="line"/>
      <point x="860" y="0" type="line"/>
      <point x="1018" y="0" type="line"/>
      <point x="1253" y="1098" type="line"/>
      <point x="233" y="1098" type="line"/>
    </contour>
  </outline>
</glyph>
<glyph name="uni1C86" format="2">
  <advance width="838"/>
  <unicode hex="1C86"/>
  <anchor x="305" y="0" name="bottom"/>
  <anchor x="635" y="1556" name="top"/>
  <outline>
    <contour>
      <point x="74" y="0" type="line"/>
      <point x="379" y="0" type="line" smooth="yes"/>
      <point x="604" y="0"/>
      <point x="739" y="154"/>
      <point x="739" y="379" type="curve" smooth="yes"/>
      <point x="739" y="563"/>
      <point x="645" y="653"/>
      <point x="469" y="653" type="curve" smooth="yes"/>
      <point x="369" y="653" type="line"/>
      <point x="559" y="1556" type="line"/>
      <point x="190" y="1556" type="line"/>
      <point x="162" y="1415" type="line"/>
      <point x="371" y="1415" type="line"/>
    </contour>
    <contour>
      <point x="260" y="127" type="line"/>
      <point x="342" y="524" type="line"/>
      <point x="440" y="524" type="line" smooth="yes"/>
      <point x="535" y="524"/>
      <point x="578" y="473"/>
      <point x="578" y="367" type="curve" smooth="yes"/>
      <point x="578" y="238"/>
      <point x="514" y="127"/>
      <point x="395" y="127" type="curve" smooth="yes"/>
    </contour>
  </outline>
</glyph>
<glyph name="uni1D03" format="2">
  <advance width="754"/>
  <unicode hex="1D03"/>
  <anchor x="252" y="0" name="bottom"/>
  <anchor x="485" y="1098" name="top"/>
  <outline>
    <contour>
      <point x="10" y="512" type="line"/>
      <point x="715" y="512" type="line"/>
      <point x="741" y="639" type="line"/>
      <point x="35" y="639" type="line"/>
    </contour>
    <component base="uni0299"/>
  </outline>
</glyph>
<glyph name="uni1D09" format="2">
  <advance width="377"/>
  <unicode hex="1D09"/>
  <anchor x="-6" y="-379" name="bottom"/>
  <anchor x="305" y="1083" name="top"/>
  <outline>
    <contour>
      <point x="8" y="0" type="line"/>
      <point x="166" y="0" type="line"/>
      <point x="408" y="1102" type="line"/>
      <point x="248" y="1102" type="line"/>
    </contour>
    <contour>
      <point x="8" y="-379" type="curve" smooth="yes"/>
      <point x="80" y="-379"/>
      <point x="123" y="-307"/>
      <point x="123" y="-225" type="curve" smooth="yes"/>
      <point x="123" y="-172"/>
      <point x="98" y="-150"/>
      <point x="45" y="-150" type="curve" smooth="yes"/>
      <point x="-27" y="-150"/>
      <point x="-70" y="-219"/>
      <point x="-70" y="-301" type="curve" smooth="yes"/>
      <point x="-70" y="-354"/>
      <point x="-45" y="-379"/>
    </contour>
  </outline>
</glyph>
<glyph name="uni1D0F" format="2">
  <advance width="877"/>
  <unicode hex="1D0F"/>
  <anchor x="322" y="0" name="bottom"/>
  <anchor x="555" y="1098" name="top"/>
  <outline>
    <contour>
      <point x="360" y="-14" type="curve" smooth="yes"/>
      <point x="702" y="-14"/>
      <point x="852" y="502"/>
      <point x="852" y="795" type="curve" smooth="yes"/>
      <point x="852" y="1010"/>
      <point x="748" y="1118"/>
      <point x="551" y="1118" type="curve" smooth="yes"/>
      <point x="215" y="1118"/>
      <point x="55" y="657"/>
      <point x="55" y="317" type="curve" smooth="yes"/>
      <point x="55" y="92"/>
      <point x="164" y="-14"/>
    </contour>
    <contour>
      <point x="369" y="125" type="curve" smooth="yes"/>
      <point x="276" y="125"/>
      <point x="217" y="178"/>
      <point x="217" y="317" type="curve" smooth="yes"/>
      <point x="217" y="510"/>
      <point x="301" y="981"/>
      <point x="535" y="981" type="curve" smooth="yes"/>
      <point x="631" y="981"/>
      <point x="688" y="922"/>
      <point x="688" y="797" type="curve" smooth="yes"/>
      <point x="688" y="563"/>
      <point x="569" y="125"/>
    </contour>
  </outline>
</glyph>
<glyph name="uni1D15" format="2">
  <advance width="784"/>
  <unicode hex="1D15"/>
  <anchor x="279" y="0" name="bottom"/>
  <anchor x="508" y="1083" name="top"/>
  <outline>
    <contour>
      <point x="319" y="-14" type="curve" smooth="yes"/>
      <point x="551" y="-14"/>
      <point x="680" y="197"/>
      <point x="680" y="446" type="curve" smooth="yes"/>
      <point x="680" y="551"/>
      <point x="647" y="629"/>
      <point x="586" y="670" type="curve"/>
      <point x="664" y="709"/>
      <point x="705" y="786"/>
      <point x="731" y="913" type="curve" smooth="yes"/>
      <point x="772" y="1102" type="line"/>
      <point x="616" y="1102" type="line"/>
      <point x="575" y="913" type="line" smooth="yes"/>
      <point x="553" y="809"/>
      <point x="524" y="748"/>
      <point x="432" y="748" type="curve"/>
      <point x="362" y="748"/>
      <point x="336" y="774"/>
      <point x="336" y="844" type="curve" smooth="yes"/>
      <point x="336" y="866"/>
      <point x="340" y="893"/>
      <point x="346" y="924" type="curve" smooth="yes"/>
      <point x="383" y="1102" type="line"/>
      <point x="227" y="1102" type="line"/>
      <point x="195" y="944" type="line" smooth="yes"/>
      <point x="186" y="907"/>
      <point x="180" y="862"/>
      <point x="180" y="834" type="curve" smooth="yes"/>
      <point x="180" y="764"/>
      <point x="201" y="717"/>
      <point x="238" y="686" type="curve"/>
      <point x="104" y="621"/>
      <point x="39" y="449"/>
      <point x="39" y="279" type="curve" smooth="yes"/>
      <point x="39" y="82"/>
      <point x="154" y="-14"/>
    </contour>
    <contour>
      <point x="324" y="125" type="curve" smooth="yes"/>
      <point x="246" y="125"/>
      <point x="201" y="176"/>
      <point x="201" y="297" type="curve" smooth="yes"/>
      <point x="201" y="455"/>
      <point x="264" y="621"/>
      <point x="401" y="621" type="curve" smooth="yes"/>
      <point x="479" y="621"/>
      <point x="520" y="561"/>
      <point x="520" y="453" type="curve" smooth="yes"/>
      <point x="520" y="295"/>
      <point x="457" y="125"/>
    </contour>
  </outline>
</glyph>
<glyph name="uni1D24" format="2">
  <advance width="811"/>
  <unicode hex="1D24"/>
  <anchor x="315" y="0" name="bottom"/>
  <anchor x="641" y="1567" name="top"/>
  <outline>
    <contour>
      <point x="326" y="-25" type="curve" smooth="yes"/>
      <point x="432" y="-25"/>
      <point x="530" y="14"/>
      <point x="596" y="70" type="curve"/>
      <point x="549" y="186" type="line"/>
      <point x="479" y="137"/>
      <point x="424" y="115"/>
      <point x="350" y="115" type="curve" smooth="yes"/>
      <point x="254" y="115"/>
      <point x="203" y="172"/>
      <point x="203" y="276" type="curve" smooth="yes"/>
      <point x="203" y="387"/>
      <point x="295" y="514"/>
      <point x="541" y="672" type="curve"/>
      <point x="569" y="819" type="line"/>
      <point x="819" y="985"/>
      <point x="922" y="1137"/>
      <point x="922" y="1300" type="curve" smooth="yes"/>
      <point x="922" y="1464"/>
      <point x="817" y="1567"/>
      <point x="637" y="1567" type="curve" smooth="yes"/>
      <point x="528" y="1567"/>
      <point x="432" y="1528"/>
      <point x="365" y="1473" type="curve"/>
      <point x="414" y="1358" type="line"/>
      <point x="483" y="1407"/>
      <point x="537" y="1427"/>
      <point x="610" y="1427" type="curve" smooth="yes"/>
      <point x="709" y="1427"/>
      <point x="758" y="1370"/>
      <point x="758" y="1266" type="curve" smooth="yes"/>
      <point x="758" y="1157"/>
      <point x="668" y="1030"/>
      <point x="422" y="872" type="curve"/>
      <point x="391" y="723" type="line"/>
      <point x="141" y="557"/>
      <point x="41" y="406"/>
      <point x="41" y="242" type="curve" smooth="yes"/>
      <point x="41" y="78"/>
      <point x="143" y="-25"/>
    </contour>
  </outline>
</glyph>
<glyph name="uni1D6B" format="2">
  <advance width="1260"/>
  <unicode hex="1D6B"/>
  <outline>
    <contour>
      <point x="297" y="-20" type="curve" smooth="yes"/>
      <point x="424" y="-20"/>
      <point x="514" y="43"/>
      <point x="578" y="174" type="curve"/>
      <point x="608" y="47"/>
      <point x="688" y="-20"/>
      <point x="813" y="-20" type="curve" smooth="yes"/>
      <point x="907" y="-20"/>
      <point x="989" y="-2"/>
      <point x="1061" y="43" type="curve"/>
      <point x="1061" y="176" type="line"/>
      <point x="981" y="131"/>
      <point x="926" y="113"/>
      <point x="852" y="113" type="curve" smooth="yes"/>
      <point x="739" y="113"/>
      <point x="684" y="180"/>
      <point x="684" y="334" type="curve" smooth="yes"/>
      <point x="684" y="387"/>
      <point x="690" y="442"/>
      <point x="700" y="494" type="curve"/>
      <point x="715" y="494" type="line" smooth="yes"/>
      <point x="1034" y="494"/>
      <point x="1225" y="647"/>
      <point x="1225" y="891" type="curve" smooth="yes"/>
      <point x="1225" y="1042"/>
      <point x="1147" y="1118"/>
      <point x="1018" y="1118" type="curve" smooth="yes"/>
      <point x="940" y="1118"/>
      <point x="864" y="1075"/>
      <point x="795" y="985" type="curve"/>
      <point x="817" y="1098" type="line"/>
      <point x="674" y="1098" type="line"/>
      <point x="524" y="397" type="line" smooth="yes"/>
      <point x="483" y="199"/>
      <point x="418" y="119"/>
      <point x="315" y="119" type="curve" smooth="yes"/>
      <point x="256" y="119"/>
      <point x="215" y="152"/>
      <point x="215" y="229" type="curve" smooth="yes"/>
      <point x="215" y="279"/>
      <point x="223" y="330"/>
      <point x="236" y="385" type="curve" smooth="yes"/>
      <point x="387" y="1098" type="line"/>
      <point x="229" y="1098" type="line"/>
      <point x="80" y="401" type="line" smooth="yes"/>
      <point x="68" y="344"/>
      <point x="57" y="272"/>
      <point x="57" y="223" type="curve" smooth="yes"/>
      <point x="57" y="63"/>
      <point x="156" y="-20"/>
    </contour>
    <contour>
      <point x="723" y="616" type="line"/>
      <point x="774" y="831"/>
      <point x="874" y="985"/>
      <point x="981" y="985" type="curve" smooth="yes"/>
      <point x="1047" y="985"/>
      <point x="1075" y="946"/>
      <point x="1075" y="883" type="curve" smooth="yes"/>
      <point x="1075" y="723"/>
      <point x="973" y="616"/>
      <point x="729" y="616" type="curve" smooth="yes"/>
    </contour>
  </outline>
</glyph>
<glyph name="uni1D71" format="2">
  <advance width="854"/>
  <unicode hex="1D71"/>
  <outline>
    <contour>
      <point x="-100" y="-477" type="line"/>
      <point x="57" y="-477" type="line"/>
      <point x="92" y="-307" type="line"/>
      <point x="117" y="-324"/>
      <point x="145" y="-340"/>
      <point x="178" y="-340" type="curve" smooth="yes"/>
      <point x="266" y="-340"/>
      <point x="338" y="-291"/>
      <point x="373" y="-98" type="curve"/>
      <point x="274" y="-98" type="line"/>
      <point x="254" y="-195"/>
      <point x="229" y="-223"/>
      <point x="184" y="-223" type="curve" smooth="yes"/>
      <point x="162" y="-223"/>
      <point x="141" y="-207"/>
      <point x="119" y="-186" type="curve"/>
      <point x="143" y="-66" type="line" smooth="yes"/>
      <point x="156" y="-8"/>
      <point x="168" y="63"/>
      <point x="180" y="133" type="curve"/>
      <point x="186" y="133" type="line"/>
      <point x="209" y="41"/>
      <point x="276" y="-20"/>
      <point x="369" y="-20" type="curve" smooth="yes"/>
      <point x="666" y="-20"/>
      <point x="811" y="500"/>
      <point x="811" y="813" type="curve" smooth="yes"/>
      <point x="811" y="1018"/>
      <point x="735" y="1118"/>
      <point x="600" y="1118" type="curve" smooth="yes"/>
      <point x="504" y="1118"/>
      <point x="424" y="1059"/>
      <point x="350" y="940" type="curve"/>
      <point x="344" y="940" type="line"/>
      <point x="365" y="1098" type="line"/>
      <point x="233" y="1098" type="line"/>
      <point x="-25" y="-117" type="line"/>
      <point x="-41" y="-109"/>
      <point x="-59" y="-102"/>
      <point x="-82" y="-102" type="curve" smooth="yes"/>
      <point x="-182" y="-102"/>
      <point x="-256" y="-184"/>
      <point x="-291" y="-342" type="curve"/>
      <point x="-195" y="-342" type="line"/>
      <point x="-176" y="-260"/>
      <point x="-145" y="-219"/>
      <point x="-94" y="-219" type="curve" smooth="yes"/>
      <point x="-78" y="-219"/>
      <point x="-63" y="-225"/>
      <point x="-49" y="-236" type="curve"/>
    </contour>
    <contour>
      <point x="352" y="119" type="curve" smooth="yes"/>
      <point x="276" y="119"/>
      <point x="238" y="176"/>
      <point x="238" y="285" type="curve" smooth="yes"/>
      <point x="238" y="510"/>
      <point x="346" y="983"/>
      <point x="545" y="983" type="curve" smooth="yes"/>
      <point x="616" y="983"/>
      <point x="649" y="926"/>
      <point x="649" y="805" type="curve" smooth="yes"/>
      <point x="649" y="551"/>
      <point x="537" y="119"/>
    </contour>
  </outline>
</glyph>
<glyph name="uni1D72" format="2">
  <advance width="586"/>
  <unicode hex="1D72"/>
  <outline>
    <contour>
      <point x="20" y="0" type="line"/>
      <point x="178" y="0" type="line"/>
      <point x="270" y="432" type="line"/>
      <point x="293" y="416"/>
      <point x="319" y="401"/>
      <point x="350" y="401" type="curve" smooth="yes"/>
      <point x="438" y="401"/>
      <point x="510" y="451"/>
      <point x="545" y="643" type="curve"/>
      <point x="449" y="643" type="line"/>
      <point x="428" y="547"/>
      <point x="401" y="518"/>
      <point x="356" y="518" type="curve" smooth="yes"/>
      <point x="334" y="518"/>
      <point x="315" y="535"/>
      <point x="293" y="551" type="curve"/>
      <point x="346" y="801"/>
      <point x="432" y="952"/>
      <point x="559" y="952" type="curve" smooth="yes"/>
      <point x="586" y="952"/>
      <point x="610" y="948"/>
      <point x="633" y="938" type="curve"/>
      <point x="680" y="1106" type="line"/>
      <point x="653" y="1114"/>
      <point x="629" y="1118"/>
      <point x="602" y="1118" type="curve" smooth="yes"/>
      <point x="496" y="1118"/>
      <point x="420" y="1053"/>
      <point x="356" y="918" type="curve"/>
      <point x="352" y="918" type="line"/>
      <point x="375" y="1098" type="line"/>
      <point x="252" y="1098" type="line"/>
      <point x="152" y="623" type="line"/>
      <point x="133" y="633"/>
      <point x="115" y="641"/>
      <point x="90" y="641" type="curve" smooth="yes"/>
      <point x="-10" y="641"/>
      <point x="-84" y="559"/>
      <point x="-119" y="399" type="curve"/>
      <point x="-20" y="399" type="line"/>
      <point x="-2" y="481"/>
      <point x="27" y="524"/>
      <point x="78" y="524" type="curve" smooth="yes"/>
      <point x="96" y="524"/>
      <point x="111" y="516"/>
      <point x="127" y="504" type="curve"/>
    </contour>
  </outline>
</glyph>
<glyph name="uni1D74" format="2">
  <advance width="647"/>
  <unicode hex="1D74"/>
  <outline>
    <contour>
      <point x="205" y="-20" type="curve" smooth="yes"/>
      <point x="412" y="-20"/>
      <point x="530" y="113"/>
      <point x="530" y="317" type="curve" smooth="yes"/>
      <point x="530" y="358"/>
      <point x="524" y="393"/>
      <point x="514" y="424" type="curve"/>
      <point x="588" y="438"/>
      <point x="639" y="502"/>
      <point x="670" y="659" type="curve"/>
      <point x="571" y="659" type="line"/>
      <point x="555" y="575"/>
      <point x="518" y="530"/>
      <point x="465" y="530" type="curve"/>
      <point x="444" y="555"/>
      <point x="412" y="590"/>
      <point x="377" y="627" type="curve" smooth="yes"/>
      <point x="295" y="709"/>
      <point x="274" y="756"/>
      <point x="274" y="829" type="curve" smooth="yes"/>
      <point x="274" y="922"/>
      <point x="334" y="983"/>
      <point x="428" y="983" type="curve" smooth="yes"/>
      <point x="489" y="983"/>
      <point x="553" y="961"/>
      <point x="604" y="920" type="curve"/>
      <point x="674" y="1047" type="line"/>
      <point x="614" y="1090"/>
      <point x="528" y="1118"/>
      <point x="424" y="1118" type="curve" smooth="yes"/>
      <point x="229" y="1118"/>
      <point x="113" y="981"/>
      <point x="113" y="813" type="curve" smooth="yes"/>
      <point x="113" y="748"/>
      <point x="131" y="702"/>
      <point x="158" y="662" type="curve"/>
      <point x="74" y="643"/>
      <point x="20" y="569"/>
      <point x="-6" y="430" type="curve"/>
      <point x="90" y="430" type="line"/>
      <point x="109" y="510"/>
      <point x="135" y="549"/>
      <point x="186" y="549" type="curve" smooth="yes"/>
      <point x="221" y="549"/>
      <point x="254" y="518"/>
      <point x="285" y="487" type="curve"/>
      <point x="346" y="418"/>
      <point x="365" y="367"/>
      <point x="365" y="301" type="curve" smooth="yes"/>
      <point x="365" y="184"/>
      <point x="299" y="121"/>
      <point x="188" y="121" type="curve" smooth="yes"/>
      <point x="115" y="121"/>
      <point x="27" y="154"/>
      <point x="-23" y="193" type="curve"/>
      <point x="-23" y="31" type="line"/>
      <point x="23" y="2"/>
      <point x="109" y="-20"/>
    </contour>
  </outline>
</glyph>
<glyph name="uni1D7E" format="2">
  <advance width="813"/>
  <unicode hex="1D7E"/>
  <outline>
    <contour>
      <point x="301" y="-14" type="curve" smooth="yes"/>
      <point x="510" y="-14"/>
      <point x="608" y="121"/>
      <point x="657" y="340" type="curve" smooth="yes"/>
      <point x="694" y="506" type="line"/>
      <point x="811" y="506" type="line"/>
      <point x="840" y="635" type="line"/>
      <point x="723" y="635" type="line"/>
      <point x="825" y="1102" type="line"/>
      <point x="668" y="1102" type="line"/>
      <point x="565" y="635" type="line"/>
      <point x="293" y="635" type="line"/>
      <point x="395" y="1102" type="line"/>
      <point x="238" y="1102" type="line"/>
      <point x="135" y="635" type="line"/>
      <point x="18" y="635" type="line"/>
      <point x="-8" y="506" type="line"/>
      <point x="106" y="506" type="line"/>
      <point x="70" y="336"/>
      <point x="59" y="287"/>
      <point x="59" y="225" type="curve" smooth="yes"/>
      <point x="59" y="76"/>
      <point x="145" y="-14"/>
    </contour>
    <contour>
      <point x="319" y="125" type="curve" smooth="yes"/>
      <point x="252" y="125"/>
      <point x="217" y="164"/>
      <point x="217" y="244" type="curve" smooth="yes"/>
      <point x="217" y="295"/>
      <point x="225" y="332"/>
      <point x="262" y="506" type="curve"/>
      <point x="537" y="506" type="line"/>
      <point x="504" y="358" type="line" smooth="yes"/>
      <point x="465" y="190"/>
      <point x="414" y="125"/>
    </contour>
  </outline>
</glyph>
<glyph name="uni1D89" format="2">
  <advance width="565"/>
  <unicode hex="1D89"/>
  <outline>
    <contour>
      <point x="0" y="-399" type="curve" smooth="yes"/>
      <point x="117" y="-399"/>
      <point x="180" y="-332"/>
      <point x="207" y="-201" type="curve" smooth="yes"/>
      <point x="283" y="143" type="line"/>
      <point x="188" y="143" type="line"/>
      <point x="279" y="573" type="line" smooth="yes"/>
      <point x="315" y="750"/>
      <point x="397" y="952"/>
      <point x="539" y="952" type="curve" smooth="yes"/>
      <point x="567" y="952"/>
      <point x="590" y="948"/>
      <point x="612" y="938" type="curve"/>
      <point x="659" y="1106" type="line"/>
      <point x="633" y="1114"/>
      <point x="608" y="1118"/>
      <point x="582" y="1118" type="curve" smooth="yes"/>
      <point x="475" y="1118"/>
      <point x="399" y="1053"/>
      <point x="338" y="918" type="curve"/>
      <point x="332" y="918" type="line"/>
      <point x="354" y="1098" type="line"/>
      <point x="231" y="1098" type="line"/>
      <point x="-0.005" y="0" type="line"/>
      <point x="94" y="0" type="line"/>
      <point x="59" y="-162" type="line" smooth="yes"/>
      <point x="45" y="-233"/>
      <point x="18" y="-262"/>
      <point x="-35" y="-262" type="curve" smooth="yes"/>
      <point x="-61" y="-262"/>
      <point x="-86" y="-256"/>
      <point x="-109" y="-246" type="curve"/>
      <point x="-109" y="-381" type="line"/>
      <point x="-82" y="-391"/>
      <point x="-43" y="-399"/>
    </contour>
  </outline>
</glyph>
<glyph name="uni1D93" format="2">
  <advance width="655"/>
  <unicode hex="1D93"/>
  <outline>
    <contour>
      <point x="440" y="-412" type="curve" smooth="yes"/>
      <point x="487" y="-412"/>
      <point x="532" y="-403"/>
      <point x="559" y="-393" type="curve"/>
      <point x="559" y="-260" type="line"/>
      <point x="541" y="-270"/>
      <point x="514" y="-276"/>
      <point x="487" y="-276" type="curve" smooth="yes"/>
      <point x="455" y="-276"/>
      <point x="428" y="-258"/>
      <point x="428" y="-215" type="curve" smooth="yes"/>
      <point x="428" y="-188"/>
      <point x="434" y="-156"/>
      <point x="440" y="-127" type="curve" smooth="yes"/>
      <point x="506" y="178" type="line"/>
      <point x="436" y="137"/>
      <point x="375" y="119"/>
      <point x="307" y="119" type="curve" smooth="yes"/>
      <point x="211" y="119"/>
      <point x="166" y="174"/>
      <point x="166" y="272" type="curve" smooth="yes"/>
      <point x="166" y="408"/>
      <point x="250" y="514"/>
      <point x="395" y="514" type="curve" smooth="yes"/>
      <point x="463" y="514" type="line"/>
      <point x="489" y="641" type="line"/>
      <point x="436" y="641" type="line" smooth="yes"/>
      <point x="348" y="641"/>
      <point x="307" y="688"/>
      <point x="307" y="784" type="curve" smooth="yes"/>
      <point x="307" y="899"/>
      <point x="373" y="981"/>
      <point x="479" y="981" type="curve" smooth="yes"/>
      <point x="532" y="981"/>
      <point x="586" y="963"/>
      <point x="627" y="928" type="curve"/>
      <point x="702" y="1049" type="line"/>
      <point x="639" y="1098"/>
      <point x="563" y="1118"/>
      <point x="475" y="1118" type="curve" smooth="yes"/>
      <point x="274" y="1118"/>
      <point x="156" y="977"/>
      <point x="156" y="795" type="curve" smooth="yes"/>
      <point x="156" y="698"/>
      <point x="193" y="627"/>
      <point x="256" y="592" type="curve"/>
      <point x="254" y="584" type="line"/>
      <point x="90" y="549"/>
      <point x="2" y="412"/>
      <point x="2" y="246" type="curve" smooth="yes"/>
      <point x="2" y="80"/>
      <point x="94" y="-20"/>
      <point x="240" y="-20" type="curve" smooth="yes"/>
      <point x="264" y="-20"/>
      <point x="285" y="-18"/>
      <point x="307" y="-14" type="curve"/>
      <point x="283" y="-123" type="line" smooth="yes"/>
      <point x="272" y="-178"/>
      <point x="266" y="-217"/>
      <point x="266" y="-254" type="curve" smooth="yes"/>
      <point x="266" y="-348"/>
      <point x="328" y="-412"/>
    </contour>
  </outline>
</glyph>
<glyph name="uni1D94" format="2">
  <advance width="647"/>
  <unicode hex="1D94"/>
  <outline>
    <contour>
      <point x="45" y="-412" type="curve" smooth="yes"/>
      <point x="92" y="-412"/>
      <point x="139" y="-403"/>
      <point x="166" y="-393" type="curve"/>
      <point x="166" y="-260" type="line"/>
      <point x="145" y="-270"/>
      <point x="119" y="-276"/>
      <point x="92" y="-276" type="curve" smooth="yes"/>
      <point x="59" y="-276"/>
      <point x="33" y="-258"/>
      <point x="33" y="-215" type="curve" smooth="yes"/>
      <point x="33" y="-188"/>
      <point x="39" y="-156"/>
      <point x="45" y="-127" type="curve" smooth="yes"/>
      <point x="70" y="-6" type="line"/>
      <point x="102" y="-14"/>
      <point x="141" y="-20"/>
      <point x="186" y="-20" type="curve" smooth="yes"/>
      <point x="403" y="-20"/>
      <point x="535" y="141"/>
      <point x="535" y="350" type="curve" smooth="yes"/>
      <point x="535" y="469"/>
      <point x="485" y="551"/>
      <point x="401" y="578" type="curve"/>
      <point x="403" y="586" type="line"/>
      <point x="528" y="627"/>
      <point x="608" y="737"/>
      <point x="608" y="883" type="curve" smooth="yes"/>
      <point x="608" y="1032"/>
      <point x="526" y="1118"/>
      <point x="373" y="1118" type="curve" smooth="yes"/>
      <point x="293" y="1118"/>
      <point x="221" y="1104"/>
      <point x="145" y="1059" type="curve"/>
      <point x="188" y="938" type="line"/>
      <point x="238" y="967"/>
      <point x="285" y="983"/>
      <point x="338" y="983" type="curve" smooth="yes"/>
      <point x="412" y="983"/>
      <point x="451" y="942"/>
      <point x="451" y="856" type="curve" smooth="yes"/>
      <point x="451" y="741"/>
      <point x="367" y="641"/>
      <point x="250" y="641" type="curve" smooth="yes"/>
      <point x="176" y="641" type="line"/>
      <point x="147" y="514" type="line"/>
      <point x="233" y="514" type="line" smooth="yes"/>
      <point x="324" y="514"/>
      <point x="375" y="457"/>
      <point x="375" y="354" type="curve" smooth="yes"/>
      <point x="375" y="213"/>
      <point x="307" y="117"/>
      <point x="168" y="117" type="curve" smooth="yes"/>
      <point x="96" y="117"/>
      <point x="23" y="141"/>
      <point x="-45" y="190" type="curve"/>
      <point x="-111" y="-123" type="line" smooth="yes"/>
      <point x="-123" y="-178"/>
      <point x="-129" y="-217"/>
      <point x="-129" y="-254" type="curve" smooth="yes"/>
      <point x="-129" y="-348"/>
      <point x="-68" y="-412"/>
    </contour>
  </outline>
</glyph>
<glyph name="uni1D95" format="2">
  <advance width="911"/>
  <unicode hex="1D95"/>
  <outline>
    <contour>
      <point x="690" y="-414" type="curve" smooth="yes"/>
      <point x="737" y="-414"/>
      <point x="784" y="-406"/>
      <point x="811" y="-395" type="curve"/>
      <point x="811" y="-262" type="line"/>
      <point x="793" y="-270"/>
      <point x="764" y="-276"/>
      <point x="739" y="-276" type="curve" smooth="yes"/>
      <point x="705" y="-276"/>
      <point x="678" y="-260"/>
      <point x="678" y="-217" type="curve" smooth="yes"/>
      <point x="678" y="-190"/>
      <point x="684" y="-158"/>
      <point x="690" y="-129" type="curve" smooth="yes"/>
      <point x="848" y="604" type="line"/>
      <point x="698" y="604" type="line"/>
      <point x="707" y="662"/>
      <point x="711" y="721"/>
      <point x="711" y="782" type="curve" smooth="yes"/>
      <point x="711" y="995"/>
      <point x="606" y="1118"/>
      <point x="426" y="1118" type="curve" smooth="yes"/>
      <point x="330" y="1118"/>
      <point x="254" y="1100"/>
      <point x="184" y="1059" type="curve"/>
      <point x="166" y="915" type="line"/>
      <point x="250" y="963"/>
      <point x="311" y="985"/>
      <point x="385" y="985" type="curve" smooth="yes"/>
      <point x="498" y="985"/>
      <point x="553" y="915"/>
      <point x="553" y="764" type="curve" smooth="yes"/>
      <point x="553" y="711"/>
      <point x="549" y="657"/>
      <point x="539" y="604" type="curve"/>
      <point x="522" y="604" type="line" smooth="yes"/>
      <point x="203" y="604"/>
      <point x="12" y="451"/>
      <point x="12" y="205" type="curve" smooth="yes"/>
      <point x="12" y="57"/>
      <point x="98" y="-20"/>
      <point x="233" y="-20" type="curve" smooth="yes"/>
      <point x="399" y="-20"/>
      <point x="549" y="125"/>
      <point x="637" y="365" type="curve"/>
      <point x="535" y="-125" type="line" smooth="yes"/>
      <point x="522" y="-180"/>
      <point x="516" y="-219"/>
      <point x="516" y="-254" type="curve" smooth="yes"/>
      <point x="516" y="-350"/>
      <point x="578" y="-414"/>
    </contour>
    <contour>
      <point x="258" y="111" type="curve" smooth="yes"/>
      <point x="195" y="111"/>
      <point x="162" y="147"/>
      <point x="162" y="215" type="curve" smooth="yes"/>
      <point x="162" y="373"/>
      <point x="260" y="481"/>
      <point x="502" y="481" type="curve" smooth="yes"/>
      <point x="514" y="481" type="line"/>
      <point x="461" y="266"/>
      <point x="362" y="111"/>
    </contour>
  </outline>
</glyph>
<glyph name="uni1D97" format="2">
  <advance width="649"/>
  <unicode hex="1D97"/>
  <outline>
    <contour>
      <point x="82" y="-412" type="curve" smooth="yes"/>
      <point x="129" y="-412"/>
      <point x="174" y="-403"/>
      <point x="201" y="-393" type="curve"/>
      <point x="201" y="-260" type="line"/>
      <point x="182" y="-270"/>
      <point x="156" y="-276"/>
      <point x="129" y="-276" type="curve" smooth="yes"/>
      <point x="96" y="-276"/>
      <point x="70" y="-258"/>
      <point x="70" y="-215" type="curve" smooth="yes"/>
      <point x="70" y="-188"/>
      <point x="76" y="-156"/>
      <point x="82" y="-127" type="curve" smooth="yes"/>
      <point x="104" y="-16" type="line"/>
      <point x="121" y="-20"/>
      <point x="135" y="-20"/>
      <point x="152" y="-20" type="curve" smooth="yes"/>
      <point x="461" y="-20"/>
      <point x="598" y="465"/>
      <point x="598" y="788" type="curve" smooth="yes"/>
      <point x="598" y="1004"/>
      <point x="508" y="1118"/>
      <point x="336" y="1118" type="curve" smooth="yes"/>
      <point x="260" y="1118"/>
      <point x="188" y="1094"/>
      <point x="133" y="1061" type="curve"/>
      <point x="133" y="922" type="line"/>
      <point x="195" y="958"/>
      <point x="250" y="979"/>
      <point x="299" y="979" type="curve" smooth="yes"/>
      <point x="391" y="979"/>
      <point x="436" y="913"/>
      <point x="436" y="772" type="curve" smooth="yes"/>
      <point x="436" y="516"/>
      <point x="334" y="119"/>
      <point x="125" y="119" type="curve" smooth="yes"/>
      <point x="76" y="119"/>
      <point x="31" y="133"/>
      <point x="-14" y="164" type="curve"/>
      <point x="-76" y="-123" type="line" smooth="yes"/>
      <point x="-86" y="-178"/>
      <point x="-92" y="-217"/>
      <point x="-92" y="-254" type="curve" smooth="yes"/>
      <point x="-92" y="-348"/>
      <point x="-31" y="-412"/>
    </contour>
  </outline>
</glyph>
<glyph name="uni1D9A" format="2">
  <advance width="690"/>
  <unicode hex="1D9A"/>
  <outline>
    <contour>
      <point x="63" y="-412" type="curve" smooth="yes"/>
      <point x="113" y="-412"/>
      <point x="158" y="-403"/>
      <point x="184" y="-393" type="curve"/>
      <point x="184" y="-260" type="line"/>
      <point x="166" y="-270"/>
      <point x="137" y="-276"/>
      <point x="113" y="-276" type="curve" smooth="yes"/>
      <point x="78" y="-276"/>
      <point x="51" y="-258"/>
      <point x="51" y="-215" type="curve" smooth="yes"/>
      <point x="51" y="-188"/>
      <point x="57" y="-156"/>
      <point x="63" y="-127" type="curve" smooth="yes"/>
      <point x="90" y="-4" type="line"/>
      <point x="121" y="-10"/>
      <point x="152" y="-14"/>
      <point x="186" y="-14" type="curve" smooth="yes"/>
      <point x="418" y="-14"/>
      <point x="569" y="145"/>
      <point x="569" y="365" type="curve" smooth="yes"/>
      <point x="569" y="516"/>
      <point x="504" y="608"/>
      <point x="354" y="629" type="curve"/>
      <point x="662" y="985" type="line"/>
      <point x="684" y="1102" type="line"/>
      <point x="205" y="1102" type="line"/>
      <point x="176" y="965" type="line"/>
      <point x="465" y="965" type="line"/>
      <point x="186" y="631" type="line"/>
      <point x="164" y="522" type="line"/>
      <point x="240" y="522" type="line" smooth="yes"/>
      <point x="352" y="522"/>
      <point x="406" y="471"/>
      <point x="406" y="369" type="curve" smooth="yes"/>
      <point x="406" y="223"/>
      <point x="330" y="123"/>
      <point x="180" y="123" type="curve" smooth="yes"/>
      <point x="104" y="123"/>
      <point x="33" y="141"/>
      <point x="-27" y="184" type="curve"/>
      <point x="-92" y="-123" type="line" smooth="yes"/>
      <point x="-104" y="-178"/>
      <point x="-111" y="-217"/>
      <point x="-111" y="-254" type="curve" smooth="yes"/>
      <point x="-111" y="-348"/>
      <point x="-49" y="-412"/>
    </contour>
  </outline>
</glyph>
<glyph name="isbelowcomb" format="2">
  <unicode hex="1DD0"/>
  <anchor x="-139" y="0" name="_bottom"/>
  <anchor x="-219" y="-467" name="bottom"/>
  <outline>
    <contour>
      <point x="-588" y="-459" type="curve"/>
      <point x="-483" y="-459" type="line"/>
      <point x="-430" y="-354"/>
      <point x="-379" y="-303"/>
      <point x="-291" y="-303" type="curve" smooth="yes"/>
      <point x="-211" y="-303"/>
      <point x="-174" y="-461"/>
      <point x="-8" y="-461" type="curve" smooth="yes"/>
      <point x="104" y="-461"/>
      <point x="219" y="-365"/>
      <point x="219" y="-213" type="curve" smooth="yes"/>
      <point x="219" y="-104"/>
      <point x="166" y="-51"/>
      <point x="98" y="-29" type="curve"/>
      <point x="43" y="-117" type="line"/>
      <point x="82" y="-133"/>
      <point x="113" y="-166"/>
      <point x="113" y="-215" type="curve" smooth="yes"/>
      <point x="113" y="-293"/>
      <point x="59" y="-340"/>
      <point x="0" y="-340" type="curve" smooth="yes"/>
      <point x="-100" y="-340"/>
      <point x="-121" y="-190"/>
      <point x="-256" y="-190" type="curve" smooth="yes"/>
      <point x="-371" y="-190"/>
      <point x="-459" y="-281"/>
    </contour>
    <contour>
      <point x="-596" y="-459" type="line"/>
      <point x="-483" y="-459" type="line"/>
      <point x="-240" y="0" type="line"/>
      <point x="-350" y="0" type="line"/>
    </contour>
  </outline>
</glyph>
<glyph name="usabove" format="2">
  <unicode hex="1DD2"/>
  <anchor x="-51" y="819" name="_top"/>
  <anchor x="109" y="1690" name="top"/>
  <outline>
    <contour>
      <point x="88" y="1055" type="line"/>
      <point x="281" y="1094"/>
      <point x="410" y="1294"/>
      <point x="410" y="1475" type="curve" smooth="yes"/>
      <point x="410" y="1622"/>
      <point x="324" y="1690"/>
      <point x="201" y="1690" type="curve" smooth="yes"/>
      <point x="33" y="1690"/>
      <point x="-74" y="1573"/>
      <point x="-74" y="1425" type="curve" smooth="yes"/>
      <point x="-74" y="1315"/>
      <point x="-12" y="1245"/>
      <point x="98" y="1245" type="curve" smooth="yes"/>
      <point x="129" y="1245"/>
      <point x="156" y="1249"/>
      <point x="178" y="1260" type="curve"/>
      <point x="197" y="1360" type="line"/>
      <point x="176" y="1350"/>
      <point x="152" y="1346"/>
      <point x="125" y="1346" type="curve" smooth="yes"/>
      <point x="78" y="1346"/>
      <point x="43" y="1376"/>
      <point x="43" y="1434" type="curve" smooth="yes"/>
      <point x="43" y="1524"/>
      <point x="111" y="1589"/>
      <point x="195" y="1589" type="curve" smooth="yes"/>
      <point x="252" y="1589"/>
      <point x="295" y="1556"/>
      <point x="295" y="1477" type="curve" smooth="yes"/>
      <point x="295" y="1321"/>
      <point x="211" y="1182"/>
      <point x="109" y="1151" type="curve"/>
    </contour>
  </outline>
</glyph>
<glyph name="uni1DFC" format="2">
  <unicode hex="1DFC"/>
  <anchor x="-113" y="18" name="_bottom"/>
  <outline>
    <contour>
      <point x="-760" y="-444" type="curve"/>
      <point x="-653" y="-444" type="line"/>
      <point x="-629" y="-274"/>
      <point x="-461" y="-227"/>
      <point x="-205" y="-227" type="curve" smooth="yes"/>
      <point x="18" y="-227"/>
      <point x="215" y="-272"/>
      <point x="240" y="-444" type="curve"/>
      <point x="346" y="-444" type="line"/>
      <point x="326" y="-197"/>
      <point x="88" y="-104"/>
      <point x="-207" y="-104" type="curve" smooth="yes"/>
      <point x="-518" y="-104"/>
      <point x="-735" y="-195"/>
    </contour>
  </outline>
</glyph>
<glyph name="uni1FBD" format="2">
  <advance width="854"/>
  <unicode hex="1FBD"/>
  <anchor x="506" y="1098" name="_top"/>
  <outline>
    <contour>
      <point x="457" y="1217" type="line"/>
      <point x="584" y="1227"/>
      <point x="672" y="1341"/>
      <point x="672" y="1440" type="curve" smooth="yes"/>
      <point x="672" y="1509"/>
      <point x="641" y="1536"/>
      <point x="594" y="1536" type="curve" smooth="yes"/>
      <point x="541" y="1536"/>
      <point x="506" y="1493"/>
      <point x="506" y="1442" type="curve" smooth="yes"/>
      <point x="506" y="1393"/>
      <point x="537" y="1372"/>
      <point x="567" y="1372" type="curve"/>
      <point x="555" y="1323"/>
      <point x="510" y="1284"/>
      <point x="469" y="1276" type="curve"/>
    </contour>
  </outline>
</glyph>
<glyph name="uni1FCF" format="2">
  <advance width="854"/>
  <unicode hex="1FCF"/>
  <anchor x="537" y="1083" name="_top"/>
  <anchor x="657" y="1747" name="top"/>
  <outline>
    <contour>
      <point x="342" y="1546" type="curve"/>
      <point x="420" y="1546" type="line"/>
      <point x="438" y="1620"/>
      <point x="465" y="1638"/>
      <point x="514" y="1638" type="curve" smooth="yes"/>
      <point x="586" y="1638"/>
      <point x="633" y="1548"/>
      <point x="731" y="1548" type="curve" smooth="yes"/>
      <point x="811" y="1548"/>
      <point x="866" y="1597"/>
      <point x="897" y="1747" type="curve"/>
      <point x="819" y="1747" type="line"/>
      <point x="803" y="1683"/>
      <point x="776" y="1655"/>
      <point x="731" y="1655" type="curve" smooth="yes"/>
      <point x="666" y="1655"/>
      <point x="614" y="1745"/>
      <point x="520" y="1745" type="curve" smooth="yes"/>
      <point x="434" y="1745"/>
      <point x="377" y="1702"/>
    </contour>
    <contour>
      <point x="453" y="1210" type="line"/>
      <point x="580" y="1221"/>
      <point x="664" y="1321"/>
      <point x="664" y="1419" type="curve" smooth="yes"/>
      <point x="664" y="1489"/>
      <point x="633" y="1516"/>
      <point x="584" y="1516" type="curve" smooth="yes"/>
      <point x="535" y="1516"/>
      <point x="500" y="1477"/>
      <point x="500" y="1425" type="curve" smooth="yes"/>
      <point x="500" y="1378"/>
      <point x="528" y="1360"/>
      <point x="559" y="1360" type="curve"/>
      <point x="549" y="1313"/>
      <point x="506" y="1276"/>
      <point x="465" y="1268" type="curve"/>
    </contour>
  </outline>
</glyph>
<glyph name="undertie" format="2">
  <advance width="1047"/>
  <unicode hex="203F"/>
  <outline>
    <contour>
      <point x="313" y="-537" type="curve" smooth="yes"/>
      <point x="551" y="-537"/>
      <point x="711" y="-371"/>
      <point x="819" y="-137" type="curve"/>
      <point x="739" y="-102" type="line"/>
      <point x="645" y="-272"/>
      <point x="512" y="-414"/>
      <point x="313" y="-414" type="curve" smooth="yes"/>
      <point x="98" y="-414"/>
      <point x="25" y="-266"/>
      <point x="-8" y="-102" type="curve"/>
      <point x="-98" y="-133" type="line"/>
      <point x="-70" y="-367"/>
      <point x="66" y="-537"/>
    </contour>
  </outline>
</glyph>
<glyph name="swungdash" format="2">
  <advance width="2048"/>
  <unicode hex="2053"/>
  <outline>
    <contour>
      <point x="184" y="365" type="curve"/>
      <point x="287" y="365" type="line"/>
      <point x="317" y="500"/>
      <point x="401" y="567"/>
      <point x="588" y="567" type="curve" smooth="yes"/>
      <point x="924" y="567"/>
      <point x="1120" y="369"/>
      <point x="1477" y="369" type="curve"/>
      <point x="1720" y="369"/>
      <point x="1860" y="483"/>
      <point x="1894" y="688" type="curve"/>
      <point x="1792" y="688" type="line"/>
      <point x="1763" y="555"/>
      <point x="1677" y="489"/>
      <point x="1497" y="489" type="curve" smooth="yes"/>
      <point x="1159" y="489"/>
      <point x="973" y="686"/>
      <point x="602" y="686" type="curve" smooth="yes"/>
      <point x="369" y="686"/>
      <point x="221" y="571"/>
    </contour>
  </outline>
</glyph>
<glyph name="sixsuperior" format="2">
  <advance width="569"/>
  <unicode hex="2076"/>
  <outline>
    <contour>
      <point x="338" y="834" type="curve" smooth="yes"/>
      <point x="514" y="834"/>
      <point x="627" y="1034"/>
      <point x="627" y="1212" type="curve" smooth="yes"/>
      <point x="627" y="1343"/>
      <point x="571" y="1413"/>
      <point x="465" y="1413" type="curve" smooth="yes"/>
      <point x="399" y="1413"/>
      <point x="344" y="1380"/>
      <point x="303" y="1323" type="curve"/>
      <point x="297" y="1323" type="line"/>
      <point x="344" y="1522"/>
      <point x="436" y="1634"/>
      <point x="559" y="1634" type="curve" smooth="yes"/>
      <point x="600" y="1634"/>
      <point x="639" y="1628"/>
      <point x="668" y="1616" type="curve"/>
      <point x="692" y="1733" type="line"/>
      <point x="664" y="1743"/>
      <point x="621" y="1749"/>
      <point x="571" y="1749" type="curve" smooth="yes"/>
      <point x="293" y="1749"/>
      <point x="135" y="1397"/>
      <point x="135" y="1087" type="curve" smooth="yes"/>
      <point x="135" y="918"/>
      <point x="209" y="834"/>
    </contour>
    <contour>
      <point x="342" y="946" type="curve" smooth="yes"/>
      <point x="291" y="946"/>
      <point x="262" y="987"/>
      <point x="262" y="1079" type="curve" smooth="yes"/>
      <point x="262" y="1192"/>
      <point x="315" y="1313"/>
      <point x="416" y="1313" type="curve" smooth="yes"/>
      <point x="473" y="1313"/>
      <point x="496" y="1274"/>
      <point x="496" y="1202" type="curve" smooth="yes"/>
      <point x="496" y="1098"/>
      <point x="446" y="946"/>
    </contour>
  </outline>
</glyph>
<glyph name="uni20A2" format="2">
  <advance width="999"/>
  <unicode hex="20A2"/>
  <outline>
    <contour>
      <point x="440" y="-20" type="curve" smooth="yes"/>
      <point x="520" y="-20"/>
      <point x="616" y="-4"/>
      <point x="702" y="33" type="curve"/>
      <point x="702" y="178" type="line"/>
      <point x="637" y="150"/>
      <point x="582" y="133"/>
      <point x="530" y="129" type="curve"/>
      <point x="590" y="414" type="line" smooth="yes"/>
      <point x="623" y="594"/>
      <point x="688" y="793"/>
      <point x="807" y="793" type="curve" smooth="yes"/>
      <point x="831" y="793"/>
      <point x="852" y="786"/>
      <point x="870" y="776" type="curve"/>
      <point x="909" y="934" type="line"/>
      <point x="893" y="942"/>
      <point x="870" y="946"/>
      <point x="846" y="946" type="curve" smooth="yes"/>
      <point x="760" y="946"/>
      <point x="700" y="891"/>
      <point x="647" y="764" type="curve"/>
      <point x="641" y="764" type="line"/>
      <point x="662" y="926" type="line"/>
      <point x="559" y="926" type="line"/>
      <point x="397" y="145" type="line"/>
      <point x="313" y="178"/>
      <point x="266" y="283"/>
      <point x="266" y="465" type="curve" smooth="yes"/>
      <point x="266" y="762"/>
      <point x="418" y="1335"/>
      <point x="735" y="1335" type="curve" smooth="yes"/>
      <point x="797" y="1335"/>
      <point x="864" y="1313"/>
      <point x="920" y="1270" type="curve"/>
      <point x="995" y="1405" type="line"/>
      <point x="924" y="1460"/>
      <point x="829" y="1485"/>
      <point x="731" y="1485" type="curve" smooth="yes"/>
      <point x="307" y="1485"/>
      <point x="96" y="858"/>
      <point x="96" y="451" type="curve" smooth="yes"/>
      <point x="96" y="139"/>
      <point x="227" y="-20"/>
    </contour>
  </outline>
</glyph>
<glyph name="peseta" format="2">
  <advance width="1163"/>
  <unicode hex="20A7"/>
  <outline>
    <contour>
      <point x="-10" y="0" type="line"/>
      <point x="150" y="0" type="line"/>
      <point x="270" y="571" type="line"/>
      <point x="311" y="571" type="line" smooth="yes"/>
      <point x="641" y="571"/>
      <point x="799" y="850"/>
      <point x="799" y="1143" type="curve" smooth="yes"/>
      <point x="799" y="1346"/>
      <point x="676" y="1462"/>
      <point x="465" y="1462" type="curve" smooth="yes"/>
      <point x="301" y="1462" type="line"/>
    </contour>
    <contour>
      <point x="301" y="719" type="line"/>
      <point x="428" y="1315" type="line"/>
      <point x="449" y="1315" type="line" smooth="yes"/>
      <point x="573" y="1315"/>
      <point x="635" y="1243"/>
      <point x="635" y="1122" type="curve" smooth="yes"/>
      <point x="635" y="905"/>
      <point x="547" y="719"/>
      <point x="324" y="719" type="curve" smooth="yes"/>
    </contour>
    <contour>
      <point x="891" y="-20" type="curve" smooth="yes"/>
      <point x="938" y="-20"/>
      <point x="989" y="-10"/>
      <point x="1038" y="10" type="curve"/>
      <point x="1038" y="139" type="line"/>
      <point x="1008" y="127"/>
      <point x="979" y="121"/>
      <point x="954" y="121" type="curve" smooth="yes"/>
      <point x="909" y="121"/>
      <point x="891" y="145"/>
      <point x="891" y="195" type="curve" smooth="yes"/>
      <point x="891" y="223"/>
      <point x="895" y="258"/>
      <point x="903" y="299" type="curve" smooth="yes"/>
      <point x="989" y="700" type="line"/>
      <point x="1145" y="700" type="line"/>
      <point x="1171" y="831" type="line"/>
      <point x="1016" y="831" type="line"/>
      <point x="1071" y="1090" type="line"/>
      <point x="965" y="1090" type="line"/>
      <point x="870" y="827" type="line"/>
      <point x="760" y="774" type="line"/>
      <point x="743" y="700" type="line"/>
      <point x="838" y="700" type="line"/>
      <point x="754" y="301" type="line" smooth="yes"/>
      <point x="741" y="244"/>
      <point x="735" y="199"/>
      <point x="735" y="160" type="curve" smooth="yes"/>
      <point x="735" y="47"/>
      <point x="784" y="-20"/>
    </contour>
  </outline>
</glyph>
<glyph name="afii61248" format="2">
  <advance width="1106"/>
  <unicode hex="2105"/>
  <outline>
    <contour>
      <point x="90" y="0" type="line"/>
      <point x="215" y="0" type="line"/>
      <point x="1012" y="1462" type="line"/>
      <point x="887" y="1462" type="line"/>
    </contour>
    <contour>
      <point x="705" y="-14" type="curve" smooth="yes"/>
      <point x="897" y="-14"/>
      <point x="1001" y="254"/>
      <point x="1001" y="469" type="curve" smooth="yes"/>
      <point x="1001" y="606"/>
      <point x="940" y="688"/>
      <point x="823" y="688" type="curve" smooth="yes"/>
      <point x="627" y="688"/>
      <point x="524" y="416"/>
      <point x="524" y="205" type="curve" smooth="yes"/>
      <point x="524" y="66"/>
      <point x="588" y="-14"/>
    </contour>
    <contour>
      <point x="713" y="96" type="curve" smooth="yes"/>
      <point x="668" y="96"/>
      <point x="647" y="133"/>
      <point x="647" y="203" type="curve" smooth="yes"/>
      <point x="647" y="322"/>
      <point x="700" y="580"/>
      <point x="813" y="580" type="curve" smooth="yes"/>
      <point x="858" y="580"/>
      <point x="879" y="543"/>
      <point x="879" y="475" type="curve" smooth="yes"/>
      <point x="879" y="354"/>
      <point x="821" y="96"/>
    </contour>
    <contour>
      <point x="330" y="774" type="curve" smooth="yes"/>
      <point x="381" y="774"/>
      <point x="424" y="786"/>
      <point x="465" y="811" type="curve"/>
      <point x="487" y="924" type="line"/>
      <point x="442" y="899"/>
      <point x="401" y="887"/>
      <point x="362" y="887" type="curve" smooth="yes"/>
      <point x="303" y="887"/>
      <point x="274" y="926"/>
      <point x="274" y="1010" type="curve" smooth="yes"/>
      <point x="274" y="1147"/>
      <point x="338" y="1364"/>
      <point x="461" y="1364" type="curve" smooth="yes"/>
      <point x="492" y="1364"/>
      <point x="524" y="1354"/>
      <point x="555" y="1331" type="curve"/>
      <point x="608" y="1440" type="line"/>
      <point x="569" y="1464"/>
      <point x="520" y="1477"/>
      <point x="469" y="1477" type="curve" smooth="yes"/>
      <point x="258" y="1477"/>
      <point x="143" y="1217"/>
      <point x="143" y="1004" type="curve" smooth="yes"/>
      <point x="143" y="854"/>
      <point x="209" y="774"/>
    </contour>
  </outline>
</glyph>
<glyph name="lbbarsymbol" format="2">
  <advance width="1247"/>
  <unicode hex="2114"/>
  <outline>
    <contour>
      <point x="754" y="-20" type="curve" smooth="yes"/>
      <point x="1063" y="-20"/>
      <point x="1200" y="489"/>
      <point x="1200" y="799" type="curve" smooth="yes"/>
      <point x="1200" y="991"/>
      <point x="1122" y="1096"/>
      <point x="989" y="1096" type="curve" smooth="yes"/>
      <point x="895" y="1096"/>
      <point x="811" y="1040"/>
      <point x="741" y="928" type="curve"/>
      <point x="737" y="928" type="line"/>
      <point x="750" y="969"/>
      <point x="760" y="1008"/>
      <point x="766" y="1036" type="curve" smooth="yes"/>
      <point x="877" y="1556" type="line"/>
      <point x="721" y="1556" type="line"/>
      <point x="391" y="0" type="line"/>
      <point x="516" y="0" type="line"/>
      <point x="565" y="127" type="line"/>
      <point x="571" y="127" type="line"/>
      <point x="596" y="37"/>
      <point x="664" y="-20"/>
    </contour>
    <contour>
      <point x="741" y="117" type="curve" smooth="yes"/>
      <point x="666" y="117"/>
      <point x="627" y="170"/>
      <point x="627" y="279" type="curve" smooth="yes"/>
      <point x="627" y="545"/>
      <point x="739" y="958"/>
      <point x="930" y="958" type="curve" smooth="yes"/>
      <point x="1008" y="958"/>
      <point x="1036" y="903"/>
      <point x="1036" y="797" type="curve" smooth="yes"/>
      <point x="1036" y="543"/>
      <point x="928" y="117"/>
    </contour>
    <contour>
      <point x="154" y="1251" type="line"/>
      <point x="1024" y="1251" type="line"/>
      <point x="1049" y="1374" type="line"/>
      <point x="178" y="1374" type="line"/>
    </contour>
    <component base="l"/>
  </outline>
</glyph>
<glyph name="Fscript" format="2">
  <advance width="1688"/>
  <unicode hex="2131"/>
  <outline>
    <contour>
      <point x="238" y="-20" type="curve" smooth="yes"/>
      <point x="621" y="-20"/>
      <point x="846" y="233"/>
      <point x="971" y="580" type="curve"/>
      <point x="977" y="600" type="line"/>
      <point x="1020" y="604"/>
      <point x="1059" y="606"/>
      <point x="1081" y="606" type="curve"/>
      <point x="1073" y="549"/>
      <point x="1010" y="426"/>
      <point x="965" y="348" type="curve"/>
      <point x="1124" y="393" type="line"/>
      <point x="1137" y="428"/>
      <point x="1198" y="598"/>
      <point x="1171" y="637" type="curve"/>
      <point x="1270" y="715"/>
      <point x="1317" y="770"/>
      <point x="1317" y="813" type="curve" smooth="yes"/>
      <point x="1317" y="838"/>
      <point x="1307" y="866"/>
      <point x="1270" y="866" type="curve" smooth="yes"/>
      <point x="1178" y="866"/>
      <point x="1114" y="692"/>
      <point x="1104" y="666" type="curve"/>
      <point x="1090" y="653"/>
      <point x="1063" y="645"/>
      <point x="1049" y="641" type="curve"/>
      <point x="989" y="633" type="line"/>
      <point x="1057" y="848"/>
      <point x="1073" y="1059"/>
      <point x="1225" y="1206" type="curve"/>
      <point x="1198" y="1227" type="line"/>
      <point x="930" y="1032"/>
      <point x="840" y="848"/>
      <point x="727" y="610" type="curve"/>
      <point x="537" y="596"/>
      <point x="401" y="496"/>
      <point x="352" y="424" type="curve"/>
      <point x="383" y="399" type="line"/>
      <point x="442" y="479"/>
      <point x="557" y="555"/>
      <point x="711" y="573" type="curve"/>
      <point x="645" y="440" type="line" smooth="yes"/>
      <point x="520" y="197"/>
      <point x="406" y="16"/>
      <point x="225" y="16" type="curve" smooth="yes"/>
      <point x="14" y="16"/>
      <point x="-8" y="166"/>
      <point x="-8" y="188" type="curve" smooth="yes"/>
      <point x="-8" y="254"/>
      <point x="57" y="242"/>
      <point x="104" y="248" type="curve" smooth="yes"/>
      <point x="164" y="256"/>
      <point x="215" y="289"/>
      <point x="215" y="377" type="curve" smooth="yes"/>
      <point x="215" y="418"/>
      <point x="184" y="485"/>
      <point x="86" y="487" type="curve" smooth="yes"/>
      <point x="-6" y="487"/>
      <point x="-84" y="401"/>
      <point x="-84" y="293" type="curve" smooth="yes"/>
      <point x="-84" y="246"/>
      <point x="-76" y="-20"/>
    </contour>
    <contour>
      <point x="352" y="633" type="curve" smooth="yes"/>
      <point x="623" y="633"/>
      <point x="762" y="881"/>
      <point x="762" y="1038" type="curve" smooth="yes"/>
      <point x="762" y="1128"/>
      <point x="743" y="1208"/>
      <point x="698" y="1288" type="curve"/>
      <point x="670" y="1274" type="line"/>
      <point x="684" y="1210"/>
      <point x="684" y="1184"/>
      <point x="684" y="1157" type="curve" smooth="yes"/>
      <point x="684" y="1010"/>
      <point x="496" y="672"/>
      <point x="330" y="672" type="curve" smooth="yes"/>
      <point x="295" y="672"/>
      <point x="197" y="690"/>
      <point x="197" y="848" type="curve" smooth="yes"/>
      <point x="197" y="1145"/>
      <point x="526" y="1421"/>
      <point x="823" y="1421" type="curve" smooth="yes"/>
      <point x="1042" y="1421"/>
      <point x="1194" y="1255"/>
      <point x="1403" y="1255" type="curve" smooth="yes"/>
      <point x="1524" y="1255"/>
      <point x="1620" y="1364"/>
      <point x="1659" y="1446" type="curve"/>
      <point x="1624" y="1466" type="line"/>
      <point x="1587" y="1427"/>
      <point x="1550" y="1401"/>
      <point x="1450" y="1401" type="curve" smooth="yes"/>
      <point x="1266" y="1401"/>
      <point x="1237" y="1493"/>
      <point x="956" y="1493" type="curve" smooth="yes"/>
      <point x="389" y="1493"/>
      <point x="160" y="1079"/>
      <point x="160" y="856" type="curve" smooth="yes"/>
      <point x="160" y="803"/>
      <point x="170" y="633"/>
    </contour>
  </outline>
</glyph>
<glyph name="infinity" format="2">
  <advance width="1450"/>
  <unicode hex="221E"/>
  <outline>
    <contour>
      <point x="1057" y="401" type="curve" smooth="yes"/>
      <point x="1227" y="401"/>
      <point x="1352" y="539"/>
      <point x="1352" y="715" type="curve" smooth="yes"/>
      <point x="1352" y="893"/>
      <point x="1231" y="1026"/>
      <point x="1057" y="1026" type="curve" smooth="yes"/>
      <point x="932" y="1026"/>
      <point x="825" y="956"/>
      <point x="741" y="819" type="curve"/>
      <point x="662" y="969"/>
      <point x="561" y="1036"/>
      <point x="432" y="1036" type="curve" smooth="yes"/>
      <point x="254" y="1036"/>
      <point x="133" y="903"/>
      <point x="133" y="723" type="curve" smooth="yes"/>
      <point x="133" y="537"/>
      <point x="248" y="408"/>
      <point x="430" y="408" type="curve" smooth="yes"/>
      <point x="549" y="408"/>
      <point x="655" y="483"/>
      <point x="735" y="621" type="curve"/>
      <point x="819" y="473"/>
      <point x="928" y="401"/>
    </contour>
    <contour>
      <point x="440" y="535" type="curve" smooth="yes"/>
      <point x="334" y="535"/>
      <point x="260" y="604"/>
      <point x="260" y="721" type="curve" smooth="yes"/>
      <point x="260" y="831"/>
      <point x="330" y="909"/>
      <point x="440" y="909" type="curve" smooth="yes"/>
      <point x="532" y="909"/>
      <point x="600" y="850"/>
      <point x="668" y="721" type="curve"/>
      <point x="598" y="592"/>
      <point x="528" y="535"/>
    </contour>
    <contour>
      <point x="1047" y="528" type="curve" smooth="yes"/>
      <point x="956" y="528"/>
      <point x="883" y="592"/>
      <point x="815" y="717" type="curve"/>
      <point x="881" y="827"/>
      <point x="948" y="899"/>
      <point x="1042" y="899" type="curve" smooth="yes"/>
      <point x="1153" y="899"/>
      <point x="1225" y="825"/>
      <point x="1225" y="717" type="curve" smooth="yes"/>
      <point x="1225" y="608"/>
      <point x="1155" y="528"/>
    </contour>
  </outline>
</glyph>
<glyph name="uni2C6D" format="2">
  <advance width="1051"/>
  <unicode hex="2C6D"/>
  <anchor x="412" y="0" name="bottom"/>
  <anchor x="721" y="1462" name="top"/>
  <outline>
    <contour>
      <point x="362" y="-20" type="curve"/>
      <point x="512" y="-20"/>
      <point x="602" y="61"/>
      <point x="662" y="168" type="curve"/>
      <point x="668" y="168" type="line"/>
      <point x="647" y="0" type="line"/>
      <point x="782" y="0" type="line"/>
      <point x="1092" y="1462" type="line"/>
      <point x="950" y="1462" type="line"/>
      <point x="895" y="1292" type="line"/>
      <point x="889" y="1292" type="line"/>
      <point x="850" y="1421"/>
      <point x="776" y="1483"/>
      <point x="647" y="1483" type="curve" smooth="yes"/>
      <point x="258" y="1483"/>
      <point x="78" y="868"/>
      <point x="78" y="412" type="curve" smooth="yes"/>
      <point x="78" y="117"/>
      <point x="172" y="-20"/>
    </contour>
    <contour>
      <point x="412" y="129" type="curve" smooth="yes"/>
      <point x="303" y="129"/>
      <point x="246" y="209"/>
      <point x="246" y="412" type="curve" smooth="yes"/>
      <point x="246" y="666"/>
      <point x="354" y="1335"/>
      <point x="664" y="1335" type="curve" smooth="yes"/>
      <point x="774" y="1335"/>
      <point x="836" y="1268"/>
      <point x="836" y="1108" type="curve" smooth="yes"/>
      <point x="836" y="1038"/>
      <point x="821" y="963"/>
      <point x="807" y="895" type="curve" smooth="yes"/>
      <point x="723" y="500" type="line" smooth="yes"/>
      <point x="684" y="313"/>
      <point x="602" y="129"/>
    </contour>
  </outline>
</glyph>
<glyph name="Turnede" format="2">
  <advance width="637"/>
  <unicode hex="2C7B"/>
  <anchor x="205" y="0" name="bottom"/>
  <anchor x="434" y="1083" name="top"/>
  <outline>
    <contour>
      <point x="-31" y="0" type="line"/>
      <point x="397" y="0" type="line"/>
      <point x="637" y="1102" type="line"/>
      <point x="207" y="1102" type="line"/>
      <point x="178" y="965" type="line"/>
      <point x="451" y="965" type="line"/>
      <point x="379" y="641" type="line"/>
      <point x="127" y="641" type="line"/>
      <point x="94" y="506" type="line"/>
      <point x="352" y="506" type="line"/>
      <point x="270" y="137" type="line"/>
      <point x="-4" y="137" type="line"/>
    </contour>
  </outline>
</glyph>
<glyph name="rightangledottedsubstitutionmarker" format="2">
  <advance width="1024"/>
  <unicode hex="2E01"/>
  <outline>
    <contour>
      <point x="246" y="565" type="line"/>
      <point x="354" y="565" type="line"/>
      <point x="354" y="1354" type="line"/>
      <point x="778" y="1354" type="line"/>
      <point x="778" y="1462" type="line"/>
      <point x="246" y="1462" type="line"/>
    </contour>
    <contour>
      <point x="596" y="936" type="curve" smooth="yes"/>
      <point x="651" y="936"/>
      <point x="686" y="969"/>
      <point x="686" y="1040" type="curve" smooth="yes"/>
      <point x="686" y="1110"/>
      <point x="651" y="1145"/>
      <point x="596" y="1145" type="curve" smooth="yes"/>
      <point x="541" y="1145"/>
      <point x="506" y="1110"/>
      <point x="506" y="1040" type="curve" smooth="yes"/>
      <point x="506" y="969"/>
      <point x="541" y="936"/>
    </contour>
  </outline>
</glyph>
<glyph name="rightdottedsubstitutionbracket" format="2">
  <advance width="1024"/>
  <unicode hex="2E05"/>
  <outline>
    <contour>
      <point x="664" y="565" type="line"/>
      <point x="770" y="565" type="line"/>
      <point x="770" y="1208" type="line"/>
      <point x="324" y="1462" type="line"/>
      <point x="270" y="1368" type="line"/>
      <point x="664" y="1149" type="line"/>
    </contour>
    <contour>
      <point x="397" y="840" type="curve" smooth="yes"/>
      <point x="453" y="840"/>
      <point x="487" y="872"/>
      <point x="487" y="944" type="curve" smooth="yes"/>
      <point x="487" y="1014"/>
      <point x="453" y="1049"/>
      <point x="397" y="1049" type="curve" smooth="yes"/>
      <point x="342" y="1049"/>
      <point x="307" y="1014"/>
      <point x="307" y="944" type="curve" smooth="yes"/>
      <point x="307" y="872"/>
      <point x="342" y="840"/>
    </contour>
  </outline>
</glyph>
<glyph name="upwardsancora" format="2">
  <advance width="1536"/>
  <unicode hex="2E15"/>
  <outline>
    <contour>
      <point x="311" y="74" type="line"/>
      <point x="1104" y="868" type="line"/>
      <point x="1194" y="760"/>
      <point x="1206" y="662"/>
      <point x="1165" y="551" type="curve"/>
      <point x="1247" y="469" type="line"/>
      <point x="1337" y="662"/>
      <point x="1290" y="831"/>
      <point x="1143" y="979" type="curve"/>
      <point x="995" y="1126"/>
      <point x="825" y="1174"/>
      <point x="633" y="1083" type="curve"/>
      <point x="715" y="1001" type="line"/>
      <point x="825" y="1044"/>
      <point x="924" y="1030"/>
      <point x="1032" y="942" type="curve"/>
      <point x="238" y="147" type="line"/>
    </contour>
  </outline>
</glyph>
<glyph name="uniA64C" format="2">
  <advance width="1393"/>
  <unicode hex="A64C"/>
  <outline>
    <contour>
      <point x="358" y="-20" type="curve" smooth="yes"/>
      <point x="455" y="-20"/>
      <point x="522" y="18"/>
      <point x="590" y="86" type="curve"/>
      <point x="631" y="18"/>
      <point x="700" y="-20"/>
      <point x="819" y="-20" type="curve" smooth="yes"/>
      <point x="1176" y="-20"/>
      <point x="1370" y="621"/>
      <point x="1370" y="1081" type="curve" smooth="yes"/>
      <point x="1370" y="1354"/>
      <point x="1278" y="1483"/>
      <point x="1102" y="1483" type="curve" smooth="yes"/>
      <point x="1038" y="1483"/>
      <point x="967" y="1462"/>
      <point x="909" y="1421" type="curve"/>
      <point x="940" y="1286" type="line"/>
      <point x="979" y="1317"/>
      <point x="1022" y="1335"/>
      <point x="1075" y="1335" type="curve" smooth="yes"/>
      <point x="1161" y="1335"/>
      <point x="1204" y="1253"/>
      <point x="1204" y="1085" type="curve" smooth="yes"/>
      <point x="1204" y="762"/>
      <point x="1061" y="129"/>
      <point x="819" y="129" type="curve" smooth="yes"/>
      <point x="756" y="129"/>
      <point x="705" y="158"/>
      <point x="690" y="197" type="curve"/>
      <point x="788" y="659" type="line"/>
      <point x="629" y="659" type="line"/>
      <point x="530" y="195" type="line"/>
      <point x="508" y="166"/>
      <point x="455" y="129"/>
      <point x="389" y="129" type="curve" smooth="yes"/>
      <point x="303" y="129"/>
      <point x="250" y="213"/>
      <point x="250" y="406" type="curve" smooth="yes"/>
      <point x="250" y="707"/>
      <point x="397" y="1335"/>
      <point x="631" y="1335" type="curve" smooth="yes"/>
      <point x="674" y="1335"/>
      <point x="711" y="1323"/>
      <point x="741" y="1288" type="curve"/>
      <point x="823" y="1421" type="line"/>
      <point x="774" y="1462"/>
      <point x="709" y="1483"/>
      <point x="631" y="1483" type="curve" smooth="yes"/>
      <point x="287" y="1483"/>
      <point x="84" y="838"/>
      <point x="84" y="412" type="curve" smooth="yes"/>
      <point x="84" y="123"/>
      <point x="174" y="-20"/>
    </contour>
  </outline>
</glyph>
<glyph name="uniA64D" format="2">
  <advance width="1135"/>
  <unicode hex="A64D"/>
  <outline>
    <contour>
      <point x="266" y="-20" type="curve" smooth="yes"/>
      <point x="342" y="-20"/>
      <point x="403" y="6"/>
      <point x="467" y="76" type="curve"/>
      <point x="506" y="14"/>
      <point x="561" y="-20"/>
      <point x="657" y="-20" type="curve" smooth="yes"/>
      <point x="934" y="-20"/>
      <point x="1090" y="483"/>
      <point x="1090" y="815" type="curve" smooth="yes"/>
      <point x="1090" y="1026"/>
      <point x="1016" y="1118"/>
      <point x="868" y="1118" type="curve" smooth="yes"/>
      <point x="821" y="1118"/>
      <point x="768" y="1104"/>
      <point x="717" y="1073" type="curve"/>
      <point x="729" y="946" type="line"/>
      <point x="766" y="971"/>
      <point x="801" y="979"/>
      <point x="829" y="979" type="curve" smooth="yes"/>
      <point x="897" y="979"/>
      <point x="932" y="924"/>
      <point x="932" y="805" type="curve" smooth="yes"/>
      <point x="932" y="584"/>
      <point x="815" y="117"/>
      <point x="653" y="117" type="curve" smooth="yes"/>
      <point x="614" y="117"/>
      <point x="584" y="135"/>
      <point x="565" y="168" type="curve"/>
      <point x="657" y="592" type="line"/>
      <point x="500" y="592" type="line"/>
      <point x="410" y="174" type="line"/>
      <point x="385" y="141"/>
      <point x="346" y="117"/>
      <point x="297" y="117" type="curve" smooth="yes"/>
      <point x="238" y="117"/>
      <point x="205" y="176"/>
      <point x="205" y="301" type="curve" smooth="yes"/>
      <point x="205" y="504"/>
      <point x="301" y="979"/>
      <point x="485" y="979" type="curve" smooth="yes"/>
      <point x="514" y="979"/>
      <point x="543" y="969"/>
      <point x="567" y="944" type="curve"/>
      <point x="637" y="1075" type="line"/>
      <point x="596" y="1104"/>
      <point x="543" y="1118"/>
      <point x="487" y="1118" type="curve" smooth="yes"/>
      <point x="186" y="1118"/>
      <point x="45" y="602"/>
      <point x="45" y="268" type="curve" smooth="yes"/>
      <point x="45" y="74"/>
      <point x="119" y="-20"/>
    </contour>
  </outline>
</glyph>
<glyph name="uniA659" format="2">
  <advance width="696"/>
  <unicode hex="A659"/>
  <outline>
    <contour>
      <point x="-115" y="0" type="line"/>
      <point x="51" y="0" type="line"/>
      <point x="250" y="492" type="line"/>
      <point x="414" y="492" type="line"/>
      <point x="410" y="0" type="line"/>
      <point x="567" y="0" type="line"/>
      <point x="551" y="1098" type="line"/>
      <point x="360" y="1098" type="line"/>
    </contour>
    <contour>
      <point x="-33" y="0" type="line"/>
      <point x="477" y="0" type="line"/>
      <point x="477" y="125" type="line"/>
      <point x="18" y="125" type="line"/>
    </contour>
    <contour>
      <point x="299" y="616" type="line"/>
      <point x="354" y="760" type="line" smooth="yes"/>
      <point x="377" y="819"/>
      <point x="399" y="877"/>
      <point x="420" y="944" type="curve"/>
      <point x="428" y="944" type="line"/>
      <point x="424" y="897"/>
      <point x="418" y="762"/>
      <point x="416" y="707" type="curve" smooth="yes"/>
      <point x="414" y="616" type="line"/>
    </contour>
  </outline>
</glyph>
<glyph name="uniA673" format="2">
  <advance width="1120"/>
  <unicode hex="A673"/>
  <outline>
    <contour>
      <point x="647" y="584" type="line"/>
      <point x="784" y="823" type="line"/>
      <point x="1069" y="823" type="line"/>
      <point x="926" y="1069" type="line"/>
      <point x="1069" y="1317" type="line"/>
      <point x="784" y="1317" type="line"/>
      <point x="647" y="1556" type="line"/>
      <point x="508" y="1317" type="line"/>
      <point x="223" y="1317" type="line"/>
      <point x="365" y="1069" type="line"/>
      <point x="223" y="823" type="line"/>
      <point x="508" y="823" type="line"/>
    </contour>
    <contour>
      <point x="647" y="745" type="line"/>
      <point x="555" y="905" type="line"/>
      <point x="365" y="905" type="line"/>
      <point x="459" y="1069" type="line"/>
      <point x="365" y="1235" type="line"/>
      <point x="555" y="1235" type="line"/>
      <point x="647" y="1395" type="line"/>
      <point x="739" y="1235" type="line"/>
      <point x="928" y="1235" type="line"/>
      <point x="834" y="1069" type="line"/>
      <point x="928" y="905" type="line"/>
      <point x="739" y="905" type="line"/>
    </contour>
  </outline>
</glyph>
<glyph name="uniA68C" format="2">
  <advance width="702"/>
  <unicode hex="A68C"/>
  <outline>
    <contour>
      <point x="342" y="-20" type="curve" smooth="yes"/>
      <point x="387" y="-20"/>
      <point x="440" y="-8"/>
      <point x="483" y="12" type="curve"/>
      <point x="483" y="152" type="line"/>
      <point x="451" y="139"/>
      <point x="424" y="129"/>
      <point x="397" y="129" type="curve" smooth="yes"/>
      <point x="365" y="129"/>
      <point x="348" y="152"/>
      <point x="348" y="188" type="curve" smooth="yes"/>
      <point x="348" y="213"/>
      <point x="352" y="240"/>
      <point x="358" y="272" type="curve" smooth="yes"/>
      <point x="580" y="1313" type="line"/>
      <point x="831" y="1313" type="line"/>
      <point x="862" y="1462" type="line"/>
      <point x="195" y="1462" type="line"/>
      <point x="164" y="1313" type="line"/>
      <point x="416" y="1313" type="line"/>
      <point x="195" y="276" type="line" smooth="yes"/>
      <point x="184" y="227"/>
      <point x="178" y="176"/>
      <point x="178" y="145" type="curve" smooth="yes"/>
      <point x="178" y="39"/>
      <point x="238" y="-20"/>
    </contour>
  </outline>
</glyph>
<glyph name="uniA71D" format="2">
  <advance width="457"/>
  <unicode hex="A71D"/>
  <outline>
    <contour>
      <point x="252" y="1051" type="line"/>
      <point x="356" y="1051" type="line"/>
      <point x="539" y="1784" type="line"/>
      <point x="387" y="1784" type="line"/>
    </contour>
    <contour>
      <point x="262" y="735" type="curve" smooth="yes"/>
      <point x="317" y="735"/>
      <point x="354" y="770"/>
      <point x="354" y="838" type="curve" smooth="yes"/>
      <point x="354" y="893"/>
      <point x="326" y="920"/>
      <point x="276" y="920" type="curve" smooth="yes"/>
      <point x="217" y="920"/>
      <point x="182" y="883"/>
      <point x="182" y="819" type="curve" smooth="yes"/>
      <point x="182" y="768"/>
      <point x="209" y="735"/>
    </contour>
  </outline>
</glyph>
<glyph name="uniA71E" format="2">
  <advance width="403"/>
  <unicode hex="A71E"/>
  <outline>
    <contour>
      <point x="170" y="735" type="line"/>
      <point x="322" y="735" type="line"/>
      <point x="457" y="1470" type="line"/>
      <point x="352" y="1470" type="line"/>
    </contour>
    <contour>
      <point x="434" y="1599" type="curve" smooth="yes"/>
      <point x="492" y="1599"/>
      <point x="526" y="1638"/>
      <point x="526" y="1702" type="curve" smooth="yes"/>
      <point x="526" y="1751"/>
      <point x="502" y="1784"/>
      <point x="446" y="1784" type="curve" smooth="yes"/>
      <point x="391" y="1784"/>
      <point x="354" y="1749"/>
      <point x="354" y="1683" type="curve" smooth="yes"/>
      <point x="354" y="1628"/>
      <point x="383" y="1599"/>
    </contour>
  </outline>
</glyph>
<glyph name="uniA727" format="2">
  <advance width="842"/>
  <unicode hex="A727"/>
  <anchor x="258" y="-401" name="bottom"/>
  <anchor x="686" y="1559" name="top"/>
  <outline>
    <contour>
      <point x="340" y="-410" type="curve" smooth="yes"/>
      <point x="471" y="-410"/>
      <point x="535" y="-334"/>
      <point x="571" y="-162" type="curve" smooth="yes"/>
      <point x="754" y="692" type="line" smooth="yes"/>
      <point x="768" y="764"/>
      <point x="784" y="852"/>
      <point x="784" y="909" type="curve" smooth="yes"/>
      <point x="784" y="1047"/>
      <point x="711" y="1118"/>
      <point x="594" y="1118" type="curve" smooth="yes"/>
      <point x="492" y="1118"/>
      <point x="412" y="1063"/>
      <point x="354" y="958" type="curve"/>
      <point x="350" y="958" type="line"/>
      <point x="369" y="1020"/>
      <point x="385" y="1085"/>
      <point x="399" y="1147" type="curve" smooth="yes"/>
      <point x="487" y="1556" type="line"/>
      <point x="330" y="1556" type="line"/>
      <point x="0" y="0" type="line"/>
      <point x="158" y="0" type="line"/>
      <point x="287" y="606" type="line" smooth="yes"/>
      <point x="340" y="862"/>
      <point x="418" y="973"/>
      <point x="530" y="973" type="curve" smooth="yes"/>
      <point x="590" y="973"/>
      <point x="621" y="938"/>
      <point x="621" y="877" type="curve" smooth="yes"/>
      <point x="621" y="815"/>
      <point x="606" y="741"/>
      <point x="590" y="670" type="curve" smooth="yes"/>
      <point x="422" y="-125" type="line" smooth="yes"/>
      <point x="397" y="-236"/>
      <point x="367" y="-272"/>
      <point x="305" y="-272" type="curve" smooth="yes"/>
      <point x="279" y="-272"/>
      <point x="254" y="-266"/>
      <point x="231" y="-256" type="curve"/>
      <point x="231" y="-391" type="line"/>
      <point x="258" y="-401"/>
      <point x="297" y="-410"/>
    </contour>
  </outline>
</glyph>
<glyph name="uniA72D" format="2">
  <advance width="760"/>
  <unicode hex="A72D"/>
  <outline>
    <contour>
      <point x="-84" y="0" type="line"/>
      <point x="522" y="0" type="line"/>
      <point x="756" y="1098" type="line"/>
      <point x="584" y="1098" type="line"/>
      <point x="-57" y="129" type="line"/>
    </contour>
    <contour>
      <point x="201" y="-492" type="curve" smooth="yes"/>
      <point x="356" y="-492"/>
      <point x="438" y="-391"/>
      <point x="479" y="-205" type="curve" smooth="yes"/>
      <point x="543" y="88" type="line"/>
      <point x="385" y="82" type="line"/>
      <point x="326" y="-195" type="line" smooth="yes"/>
      <point x="303" y="-295"/>
      <point x="256" y="-356"/>
      <point x="178" y="-356" type="curve" smooth="yes"/>
      <point x="137" y="-356"/>
      <point x="104" y="-346"/>
      <point x="72" y="-334" type="curve"/>
      <point x="72" y="-469" type="line"/>
      <point x="106" y="-485"/>
      <point x="147" y="-492"/>
    </contour>
    <contour>
      <point x="82" y="137" type="line"/>
      <point x="442" y="686" type="line" smooth="yes"/>
      <point x="475" y="737"/>
      <point x="504" y="788"/>
      <point x="555" y="883" type="curve"/>
      <point x="561" y="883" type="line"/>
      <point x="547" y="821"/>
      <point x="526" y="750"/>
      <point x="512" y="688" type="curve" smooth="yes"/>
      <point x="393" y="137" type="line"/>
    </contour>
  </outline>
</glyph>
<glyph name="uniA72E" format="2">
  <advance width="918"/>
  <unicode hex="A72E"/>
  <outline>
    <contour>
      <point x="-31" y="344" type="line"/>
      <point x="817" y="344" type="line"/>
      <point x="848" y="485" type="line"/>
      <point x="604" y="485" type="line"/>
      <point x="815" y="1475" type="line"/>
      <point x="639" y="1475" type="line"/>
      <point x="-4" y="473" type="line"/>
    </contour>
    <contour>
      <point x="281" y="-20" type="curve" smooth="yes"/>
      <point x="436" y="-20"/>
      <point x="520" y="80"/>
      <point x="559" y="266" type="curve" smooth="yes"/>
      <point x="594" y="428" type="line"/>
      <point x="432" y="422" type="line"/>
      <point x="401" y="276" type="line" smooth="yes"/>
      <point x="381" y="176"/>
      <point x="336" y="121"/>
      <point x="258" y="121" type="curve" smooth="yes"/>
      <point x="217" y="121"/>
      <point x="184" y="131"/>
      <point x="152" y="143" type="curve"/>
      <point x="152" y="2" type="line"/>
      <point x="186" y="-12"/>
      <point x="227" y="-20"/>
    </contour>
    <contour>
      <point x="551" y="0" type="line"/>
      <point x="639" y="0" type="line"/>
      <point x="711" y="66"/>
      <point x="774" y="156"/>
      <point x="809" y="236" type="curve"/>
      <point x="809" y="256" type="line"/>
      <point x="659" y="256" type="line"/>
      <point x="633" y="174"/>
      <point x="596" y="92"/>
      <point x="551" y="27" type="curve"/>
    </contour>
    <contour>
      <point x="141" y="485" type="line"/>
      <point x="498" y="1055" type="line" smooth="yes"/>
      <point x="530" y="1108"/>
      <point x="559" y="1157"/>
      <point x="608" y="1251" type="curve"/>
      <point x="616" y="1251" type="line"/>
      <point x="600" y="1190"/>
      <point x="582" y="1120"/>
      <point x="567" y="1059" type="curve" smooth="yes"/>
      <point x="444" y="485" type="line"/>
    </contour>
  </outline>
</glyph>
<glyph name="uniA72F" format="2">
  <advance width="956"/>
  <unicode hex="A72F"/>
  <outline>
    <contour>
      <point x="213" y="-492" type="curve" smooth="yes"/>
      <point x="369" y="-492"/>
      <point x="451" y="-391"/>
      <point x="494" y="-205" type="curve" smooth="yes"/>
      <point x="537" y="0" type="line"/>
      <point x="811" y="0" type="line"/>
      <point x="840" y="137" type="line"/>
      <point x="565" y="137" type="line"/>
      <point x="770" y="1098" type="line"/>
      <point x="598" y="1098" type="line"/>
      <point x="-43" y="129" type="line"/>
      <point x="-70" y="0" type="line"/>
      <point x="379" y="0" type="line"/>
      <point x="338" y="-195" type="line" smooth="yes"/>
      <point x="317" y="-295"/>
      <point x="270" y="-356"/>
      <point x="193" y="-356" type="curve" smooth="yes"/>
      <point x="150" y="-356"/>
      <point x="117" y="-346"/>
      <point x="86" y="-334" type="curve"/>
      <point x="86" y="-469" type="line"/>
      <point x="121" y="-485"/>
      <point x="162" y="-492"/>
    </contour>
    <contour>
      <point x="528" y="-434" type="line"/>
      <point x="616" y="-434" type="line"/>
      <point x="682" y="-369"/>
      <point x="760" y="-229"/>
      <point x="793" y="-150" type="curve"/>
      <point x="793" y="-129" type="line"/>
      <point x="643" y="-129" type="line"/>
      <point x="618" y="-211"/>
      <point x="567" y="-342"/>
      <point x="528" y="-408" type="curve"/>
    </contour>
    <contour>
      <point x="98" y="137" type="line"/>
      <point x="459" y="686" type="line" smooth="yes"/>
      <point x="492" y="737"/>
      <point x="520" y="788"/>
      <point x="569" y="883" type="curve"/>
      <point x="578" y="883" type="line"/>
      <point x="561" y="821"/>
      <point x="543" y="750"/>
      <point x="528" y="688" type="curve" smooth="yes"/>
      <point x="410" y="137" type="line"/>
    </contour>
  </outline>
</glyph>
<glyph name="uniA73B" format="2">
  <advance width="1188"/>
  <unicode hex="A73B"/>
  <outline>
    <contour>
      <point x="635" y="535" type="line"/>
      <point x="932" y="535" type="line"/>
      <point x="956" y="643" type="line"/>
      <point x="659" y="643" type="line"/>
    </contour>
    <component base="uniA739"/>
  </outline>
</glyph>
<glyph name="uniA73D" format="2">
  <advance width="1194"/>
  <unicode hex="A73D"/>
  <outline>
    <contour>
      <point x="305" y="-494" type="curve" smooth="yes"/>
      <point x="463" y="-494"/>
      <point x="537" y="-391"/>
      <point x="629" y="-211" type="curve" smooth="yes"/>
      <point x="1300" y="1098" type="line"/>
      <point x="1130" y="1098" type="line"/>
      <point x="760" y="346" type="line" smooth="yes"/>
      <point x="727" y="281"/>
      <point x="690" y="190"/>
      <point x="659" y="109" type="curve"/>
      <point x="649" y="109" type="line"/>
      <point x="666" y="180"/>
      <point x="686" y="285"/>
      <point x="702" y="356" type="curve" smooth="yes"/>
      <point x="860" y="1098" type="line"/>
      <point x="725" y="1098" type="line"/>
      <point x="680" y="958" type="line"/>
      <point x="674" y="958" type="line"/>
      <point x="647" y="1065"/>
      <point x="584" y="1118"/>
      <point x="492" y="1118" type="curve" smooth="yes"/>
      <point x="186" y="1118"/>
      <point x="49" y="590"/>
      <point x="49" y="285" type="curve" smooth="yes"/>
      <point x="49" y="88"/>
      <point x="125" y="-20"/>
      <point x="264" y="-20" type="curve" smooth="yes"/>
      <point x="360" y="-20"/>
      <point x="451" y="41"/>
      <point x="530" y="178" type="curve"/>
      <point x="537" y="178" type="line"/>
      <point x="539" y="-61" type="line"/>
      <point x="477" y="-180" type="line" smooth="yes"/>
      <point x="418" y="-303"/>
      <point x="373" y="-348"/>
      <point x="309" y="-348" type="curve" smooth="yes"/>
      <point x="264" y="-348"/>
      <point x="231" y="-342"/>
      <point x="205" y="-332" type="curve"/>
      <point x="201" y="-473" type="line"/>
      <point x="231" y="-485"/>
      <point x="260" y="-494"/>
    </contour>
    <contour>
      <point x="315" y="119" type="curve" smooth="yes"/>
      <point x="246" y="119"/>
      <point x="213" y="176"/>
      <point x="213" y="297" type="curve" smooth="yes"/>
      <point x="213" y="547"/>
      <point x="324" y="977"/>
      <point x="510" y="977" type="curve" smooth="yes"/>
      <point x="582" y="977"/>
      <point x="625" y="918"/>
      <point x="625" y="815" type="curve" smooth="yes"/>
      <point x="625" y="723"/>
      <point x="608" y="623"/>
      <point x="575" y="492" type="curve" smooth="yes"/>
      <point x="528" y="309"/>
      <point x="453" y="119"/>
    </contour>
  </outline>
</glyph>
<glyph name="uniA740" format="2">
  <advance width="829"/>
  <unicode hex="A740"/>
  <anchor x="301" y="0" name="bottom"/>
  <anchor x="610" y="1462" name="top"/>
  <outline>
    <contour>
      <point x="145" y="1210" type="line"/>
      <point x="541" y="1210" type="line"/>
      <point x="565" y="1327" type="line"/>
      <point x="170" y="1327" type="line"/>
    </contour>
    <component base="K"/>
  </outline>
</glyph>
<glyph name="uniA74A" format="2">
  <advance width="1016"/>
  <unicode hex="A74A"/>
  <outline>
    <contour>
      <point x="8" y="676" type="line"/>
      <point x="1030" y="676" type="line"/>
      <point x="1061" y="817" type="line"/>
      <point x="39" y="817" type="line"/>
    </contour>
    <component base="O"/>
  </outline>
</glyph>
<glyph name="uniA754" format="2">
  <advance width="1176"/>
  <unicode hex="A754"/>
  <outline>
    <contour>
      <point x="426" y="571" type="curve" smooth="yes"/>
      <point x="559" y="571" type="line"/>
      <point x="590" y="719" type="line"/>
      <point x="467" y="719" type="line" smooth="yes"/>
      <point x="391" y="719"/>
      <point x="348" y="743"/>
      <point x="348" y="815" type="curve" smooth="yes"/>
      <point x="348" y="846"/>
      <point x="352" y="889"/>
      <point x="358" y="920" type="curve" smooth="yes"/>
      <point x="420" y="1202" type="line" smooth="yes"/>
      <point x="428" y="1241"/>
      <point x="432" y="1276"/>
      <point x="432" y="1307" type="curve" smooth="yes"/>
      <point x="432" y="1423"/>
      <point x="373" y="1483"/>
      <point x="240" y="1483" type="curve" smooth="yes"/>
      <point x="201" y="1483"/>
      <point x="158" y="1477"/>
      <point x="129" y="1468" type="curve"/>
      <point x="129" y="1327" type="line"/>
      <point x="150" y="1333"/>
      <point x="164" y="1335"/>
      <point x="190" y="1335" type="curve" smooth="yes"/>
      <point x="240" y="1335"/>
      <point x="264" y="1315"/>
      <point x="264" y="1266" type="curve" smooth="yes"/>
      <point x="264" y="1247"/>
      <point x="260" y="1219"/>
      <point x="256" y="1196" type="curve" smooth="yes"/>
      <point x="195" y="907" type="line" smooth="yes"/>
      <point x="188" y="868"/>
      <point x="182" y="831"/>
      <point x="182" y="797" type="curve" smooth="yes"/>
      <point x="182" y="657"/>
      <point x="260" y="571"/>
    </contour>
    <component base="P" xOffset="348"/>
  </outline>
</glyph>
<glyph name="uniA755" format="2">
  <advance width="1249"/>
  <unicode hex="A755"/>
  <outline>
    <contour>
      <point x="293" y="-477" type="line"/>
      <point x="451" y="-477" type="line"/>
      <point x="670" y="557" type="line" smooth="yes"/>
      <point x="713" y="764"/>
      <point x="803" y="983"/>
      <point x="938" y="983" type="curve" smooth="yes"/>
      <point x="1012" y="983"/>
      <point x="1042" y="924"/>
      <point x="1042" y="809" type="curve" smooth="yes"/>
      <point x="1042" y="500"/>
      <point x="926" y="121"/>
      <point x="639" y="121" type="curve" smooth="yes"/>
      <point x="522" y="121"/>
      <point x="428" y="137"/>
      <point x="358" y="176" type="curve" smooth="yes"/>
      <point x="301" y="209"/>
      <point x="279" y="270"/>
      <point x="279" y="365" type="curve" smooth="yes"/>
      <point x="279" y="401"/>
      <point x="283" y="444"/>
      <point x="293" y="489" type="curve" smooth="yes"/>
      <point x="367" y="834" type="line" smooth="yes"/>
      <point x="375" y="877"/>
      <point x="379" y="913"/>
      <point x="379" y="946" type="curve" smooth="yes"/>
      <point x="379" y="1057"/>
      <point x="322" y="1116"/>
      <point x="197" y="1116" type="curve" smooth="yes"/>
      <point x="154" y="1116"/>
      <point x="117" y="1108"/>
      <point x="88" y="1100" type="curve"/>
      <point x="61" y="967" type="line"/>
      <point x="78" y="973"/>
      <point x="109" y="979"/>
      <point x="137" y="979" type="curve" smooth="yes"/>
      <point x="193" y="979"/>
      <point x="215" y="952"/>
      <point x="215" y="901" type="curve" smooth="yes"/>
      <point x="215" y="883"/>
      <point x="213" y="864"/>
      <point x="207" y="838" type="curve" smooth="yes"/>
      <point x="133" y="496" type="line" smooth="yes"/>
      <point x="123" y="440"/>
      <point x="117" y="393"/>
      <point x="117" y="348" type="curve" smooth="yes"/>
      <point x="117" y="205"/>
      <point x="172" y="92"/>
      <point x="274" y="41" type="curve" smooth="yes"/>
      <point x="362" y="-4"/>
      <point x="463" y="-20"/>
      <point x="618" y="-20" type="curve" smooth="yes"/>
      <point x="1038" y="-23"/>
      <point x="1204" y="403"/>
      <point x="1204" y="819" type="curve" smooth="yes"/>
      <point x="1204" y="1020"/>
      <point x="1128" y="1118"/>
      <point x="993" y="1118" type="curve" smooth="yes"/>
      <point x="897" y="1118"/>
      <point x="815" y="1057"/>
      <point x="743" y="940" type="curve"/>
      <point x="737" y="940" type="line"/>
      <point x="758" y="1098" type="line"/>
      <point x="627" y="1098" type="line"/>
    </contour>
  </outline>
</glyph>
<glyph name="uniA759" format="2">
  <advance width="1139"/>
  <unicode hex="A759"/>
  <outline>
    <contour>
      <point x="106" y="-489" type="line"/>
      <point x="936" y="281" type="line" smooth="yes"/>
      <point x="1079" y="410"/>
      <point x="1153" y="496"/>
      <point x="1153" y="645" type="curve" smooth="yes"/>
      <point x="1153" y="799"/>
      <point x="1053" y="895"/>
      <point x="891" y="897" type="curve"/>
      <point x="891" y="795" type="line"/>
      <point x="993" y="795"/>
      <point x="1049" y="731"/>
      <point x="1049" y="637" type="curve" smooth="yes"/>
      <point x="1049" y="541"/>
      <point x="991" y="461"/>
      <point x="874" y="354" type="curve" smooth="yes"/>
      <point x="43" y="-420" type="line"/>
    </contour>
    <component base="q"/>
  </outline>
</glyph>
<glyph name="uniA760" format="2">
  <advance width="1337"/>
  <unicode hex="A760"/>
  <outline>
    <contour>
      <point x="520" y="-489" type="curve" smooth="yes"/>
      <point x="676" y="-489"/>
      <point x="764" y="-389"/>
      <point x="854" y="-170" type="curve" smooth="yes"/>
      <point x="1499" y="1462" type="line"/>
      <point x="1331" y="1462" type="line"/>
      <point x="979" y="559" type="line" smooth="yes"/>
      <point x="944" y="465"/>
      <point x="909" y="373"/>
      <point x="868" y="258" type="curve"/>
      <point x="864" y="258" type="line"/>
      <point x="870" y="348"/>
      <point x="879" y="442"/>
      <point x="883" y="573" type="curve" smooth="yes"/>
      <point x="913" y="1462" type="line"/>
      <point x="764" y="1462" type="line"/>
      <point x="406" y="545" type="line" smooth="yes"/>
      <point x="369" y="449"/>
      <point x="332" y="352"/>
      <point x="299" y="258" type="curve"/>
      <point x="295" y="258" type="line"/>
      <point x="301" y="330"/>
      <point x="307" y="424"/>
      <point x="311" y="545" type="curve" smooth="yes"/>
      <point x="338" y="1462" type="line"/>
      <point x="178" y="1462" type="line"/>
      <point x="143" y="0" type="line"/>
      <point x="336" y="0" type="line"/>
      <point x="700" y="940" type="line" smooth="yes"/>
      <point x="725" y="1004"/>
      <point x="748" y="1073"/>
      <point x="770" y="1139" type="curve"/>
      <point x="774" y="1139" type="line"/>
      <point x="768" y="1065"/>
      <point x="762" y="989"/>
      <point x="760" y="928" type="curve" smooth="yes"/>
      <point x="723" y="-39" type="line"/>
      <point x="682" y="-147" type="line" smooth="yes"/>
      <point x="621" y="-311"/>
      <point x="571" y="-344"/>
      <point x="498" y="-344" type="curve" smooth="yes"/>
      <point x="465" y="-344"/>
      <point x="432" y="-338"/>
      <point x="403" y="-322" type="curve"/>
      <point x="403" y="-469" type="line"/>
      <point x="434" y="-481"/>
      <point x="469" y="-489"/>
    </contour>
  </outline>
</glyph>
<glyph name="uniA763" format="2">
  <advance width="764"/>
  <unicode hex="A763"/>
  <outline>
    <contour>
      <point x="109" y="-492" type="curve" smooth="yes"/>
      <point x="399" y="-492"/>
      <point x="578" y="-264"/>
      <point x="578" y="14" type="curve" smooth="yes"/>
      <point x="578" y="215"/>
      <point x="498" y="336"/>
      <point x="313" y="356" type="curve"/>
      <point x="682" y="784" type="line"/>
      <point x="707" y="915" type="line"/>
      <point x="557" y="915" type="line" smooth="yes"/>
      <point x="393" y="915"/>
      <point x="322" y="977"/>
      <point x="322" y="1098" type="curve" smooth="yes"/>
      <point x="322" y="1243"/>
      <point x="410" y="1329"/>
      <point x="541" y="1329" type="curve" smooth="yes"/>
      <point x="586" y="1329"/>
      <point x="633" y="1319"/>
      <point x="684" y="1290" type="curve"/>
      <point x="745" y="1438" type="line"/>
      <point x="686" y="1468"/>
      <point x="614" y="1483"/>
      <point x="553" y="1483" type="curve" smooth="yes"/>
      <point x="297" y="1483"/>
      <point x="150" y="1329"/>
      <point x="150" y="1083" type="curve" smooth="yes"/>
      <point x="150" y="874"/>
      <point x="291" y="772"/>
      <point x="442" y="772" type="curve" smooth="yes"/>
      <point x="481" y="772" type="line"/>
      <point x="125" y="356" type="line"/>
      <point x="102" y="236" type="line"/>
      <point x="182" y="236" type="line" smooth="yes"/>
      <point x="334" y="236"/>
      <point x="408" y="172"/>
      <point x="408" y="20" type="curve" smooth="yes"/>
      <point x="408" y="-180"/>
      <point x="309" y="-342"/>
      <point x="102" y="-342" type="curve" smooth="yes"/>
      <point x="10" y="-342"/>
      <point x="-80" y="-313"/>
      <point x="-143" y="-262" type="curve"/>
      <point x="-143" y="-434" type="line"/>
      <point x="-78" y="-473"/>
      <point x="18" y="-492"/>
    </contour>
  </outline>
</glyph>
<glyph name="uniA769" format="2">
  <advance width="758"/>
  <unicode hex="A769"/>
  <outline>
    <contour>
      <point x="-109" y="-492" type="line"/>
      <point x="49" y="-492" type="line"/>
      <point x="154" y="-8" type="line"/>
      <point x="870" y="1098" type="line"/>
      <point x="694" y="1098" type="line"/>
      <point x="322" y="496" type="line" smooth="yes"/>
      <point x="287" y="438"/>
      <point x="254" y="371"/>
      <point x="221" y="305" type="curve"/>
      <point x="213" y="305" type="line"/>
      <point x="225" y="350"/>
      <point x="256" y="494"/>
      <point x="270" y="555" type="curve" smooth="yes"/>
      <point x="387" y="1098" type="line"/>
      <point x="231" y="1098" type="line"/>
    </contour>
  </outline>
</glyph>
<glyph name="uniA76E" format="2">
  <advance width="926"/>
  <unicode hex="A76E"/>
  <outline>
    <contour>
      <point x="127" y="-18" type="line"/>
      <point x="600" y="33"/>
      <point x="901" y="473"/>
      <point x="901" y="1038" type="curve" smooth="yes"/>
      <point x="901" y="1333"/>
      <point x="778" y="1483"/>
      <point x="559" y="1483" type="curve" smooth="yes"/>
      <point x="240" y="1483"/>
      <point x="106" y="1128"/>
      <point x="106" y="854" type="curve" smooth="yes"/>
      <point x="106" y="635"/>
      <point x="205" y="506"/>
      <point x="387" y="506" type="curve" smooth="yes"/>
      <point x="428" y="506"/>
      <point x="469" y="512"/>
      <point x="506" y="526" type="curve"/>
      <point x="514" y="672" type="line"/>
      <point x="487" y="657"/>
      <point x="461" y="651"/>
      <point x="430" y="651" type="curve" smooth="yes"/>
      <point x="334" y="651"/>
      <point x="276" y="719"/>
      <point x="276" y="874" type="curve" smooth="yes"/>
      <point x="276" y="1061"/>
      <point x="356" y="1335"/>
      <point x="547" y="1335" type="curve" smooth="yes"/>
      <point x="659" y="1335"/>
      <point x="733" y="1266"/>
      <point x="733" y="1030" type="curve" smooth="yes"/>
      <point x="733" y="567"/>
      <point x="518" y="178"/>
      <point x="127" y="133" type="curve"/>
    </contour>
  </outline>
</glyph>
<glyph name="uniA798" format="2">
  <advance width="664"/>
  <unicode hex="A798"/>
  <outline>
    <contour>
      <point x="-117" y="-492" type="curve" smooth="yes"/>
      <point x="2" y="-492"/>
      <point x="70" y="-428"/>
      <point x="100" y="-291" type="curve" smooth="yes"/>
      <point x="291" y="606" type="line"/>
      <point x="575" y="606" type="line"/>
      <point x="602" y="735" type="line"/>
      <point x="317" y="735" type="line"/>
      <point x="440" y="1313" type="line"/>
      <point x="766" y="1313" type="line"/>
      <point x="799" y="1462" type="line"/>
      <point x="307" y="1462" type="line"/>
      <point x="154" y="735" type="line"/>
      <point x="41" y="735" type="line"/>
      <point x="14" y="606" type="line"/>
      <point x="127" y="606" type="line"/>
      <point x="-55" y="-254" type="line" smooth="yes"/>
      <point x="-72" y="-326"/>
      <point x="-102" y="-354"/>
      <point x="-154" y="-354" type="curve" smooth="yes"/>
      <point x="-180" y="-354"/>
      <point x="-207" y="-348"/>
      <point x="-229" y="-336" type="curve"/>
      <point x="-229" y="-473" type="line"/>
      <point x="-201" y="-483"/>
      <point x="-160" y="-492"/>
    </contour>
  </outline>
</glyph>
<glyph name="uniA7A0" format="2">
  <advance width="1008"/>
  <unicode hex="A7A0"/>
  <outline>
    <contour>
      <point x="465" y="-20" type="curve" smooth="yes"/>
      <point x="563" y="-20"/>
      <point x="674" y="2"/>
      <point x="780" y="43" type="curve"/>
      <point x="928" y="735" type="line"/>
      <point x="598" y="735" type="line"/>
      <point x="567" y="590" type="line"/>
      <point x="733" y="590" type="line"/>
      <point x="641" y="152" type="line"/>
      <point x="590" y="135"/>
      <point x="537" y="127"/>
      <point x="479" y="127" type="curve" smooth="yes"/>
      <point x="322" y="127"/>
      <point x="244" y="225"/>
      <point x="244" y="453" type="curve" smooth="yes"/>
      <point x="244" y="866"/>
      <point x="434" y="1335"/>
      <point x="731" y="1335" type="curve" smooth="yes"/>
      <point x="817" y="1335"/>
      <point x="891" y="1311"/>
      <point x="971" y="1251" type="curve"/>
      <point x="1053" y="1393" type="line"/>
      <point x="975" y="1448"/>
      <point x="866" y="1485"/>
      <point x="745" y="1485" type="curve" smooth="yes"/>
      <point x="356" y="1485"/>
      <point x="74" y="1020"/>
      <point x="74" y="444" type="curve" smooth="yes"/>
      <point x="74" y="139"/>
      <point x="201" y="-20"/>
    </contour>
    <contour>
      <point x="33" y="690" type="line"/>
      <point x="1085" y="981" type="line"/>
      <point x="1110" y="1098" type="line"/>
      <point x="57" y="809" type="line"/>
    </contour>
  </outline>
</glyph>
<glyph name="uniA7FA" format="2">
  <advance width="1174"/>
  <unicode hex="A7FA"/>
  <anchor x="469" y="2" name="bottom"/>
  <anchor x="709" y="1098" name="top"/>
  <outline>
    <contour>
      <point x="2" y="0" type="line"/>
      <point x="940" y="0" type="line"/>
      <point x="1171" y="1098" type="line"/>
      <point x="1016" y="1098" type="line"/>
      <point x="813" y="139" type="line"/>
      <point x="578" y="139" type="line"/>
      <point x="780" y="1098" type="line"/>
      <point x="625" y="1098" type="line"/>
      <point x="422" y="139" type="line"/>
      <point x="186" y="139" type="line"/>
      <point x="389" y="1098" type="line"/>
      <point x="233" y="1098" type="line"/>
    </contour>
  </outline>
</glyph>
<glyph name="uniA7FF" format="2">
  <advance width="1653"/>
  <unicode hex="A7FF"/>
  <outline>
    <contour>
      <point x="-129" y="0" type="line"/>
      <point x="39" y="0" type="line"/>
      <point x="391" y="901" type="line" smooth="yes"/>
      <point x="426" y="995"/>
      <point x="463" y="1087"/>
      <point x="502" y="1202" type="curve"/>
      <point x="506" y="1202" type="line"/>
      <point x="500" y="1112"/>
      <point x="492" y="1018"/>
      <point x="487" y="887" type="curve" smooth="yes"/>
      <point x="463" y="0" type="line"/>
      <point x="647" y="0" type="line"/>
      <point x="1016" y="950" type="line" smooth="yes"/>
      <point x="1042" y="1014"/>
      <point x="1065" y="1083"/>
      <point x="1085" y="1151" type="curve"/>
      <point x="1090" y="1151" type="line"/>
      <point x="1083" y="1075"/>
      <point x="1079" y="999"/>
      <point x="1077" y="938" type="curve" smooth="yes"/>
      <point x="1038" y="0" type="line"/>
      <point x="1233" y="0" type="line"/>
      <point x="1815" y="1462" type="line"/>
      <point x="1649" y="1462" type="line"/>
      <point x="1292" y="559" type="line" smooth="yes"/>
      <point x="1255" y="465"/>
      <point x="1221" y="373"/>
      <point x="1180" y="258" type="curve"/>
      <point x="1178" y="258" type="line"/>
      <point x="1184" y="348"/>
      <point x="1192" y="442"/>
      <point x="1196" y="573" type="curve" smooth="yes"/>
      <point x="1231" y="1462" type="line"/>
      <point x="1075" y="1462" type="line"/>
      <point x="717" y="545" type="line" smooth="yes"/>
      <point x="680" y="449"/>
      <point x="645" y="352"/>
      <point x="612" y="258" type="curve"/>
      <point x="608" y="258" type="line"/>
      <point x="614" y="334"/>
      <point x="621" y="424"/>
      <point x="625" y="539" type="curve" smooth="yes"/>
      <point x="655" y="1462" type="line"/>
      <point x="451" y="1462" type="line"/>
    </contour>
  </outline>
</glyph>
<glyph name="uniAB31" format="2">
  <advance width="1284"/>
  <unicode hex="AB31"/>
  <outline>
    <contour>
      <point x="264" y="-20" type="curve" smooth="yes"/>
      <point x="362" y="-20"/>
      <point x="440" y="49"/>
      <point x="512" y="166" type="curve"/>
      <point x="518" y="166" type="line"/>
      <point x="504" y="0" type="line"/>
      <point x="602" y="0" type="line"/>
      <point x="645" y="180" type="line"/>
      <point x="684" y="45"/>
      <point x="766" y="-20"/>
      <point x="885" y="-20" type="curve" smooth="yes"/>
      <point x="1077" y="-20"/>
      <point x="1169" y="127"/>
      <point x="1169" y="287" type="curve" smooth="yes"/>
      <point x="1169" y="444"/>
      <point x="1094" y="584"/>
      <point x="788" y="606" type="curve" smooth="yes"/>
      <point x="758" y="608" type="line"/>
      <point x="799" y="852"/>
      <point x="905" y="985"/>
      <point x="1071" y="985" type="curve" smooth="yes"/>
      <point x="1139" y="985"/>
      <point x="1206" y="967"/>
      <point x="1268" y="920" type="curve"/>
      <point x="1268" y="1061" type="line"/>
      <point x="1221" y="1100"/>
      <point x="1149" y="1118"/>
      <point x="1071" y="1118" type="curve" smooth="yes"/>
      <point x="967" y="1118"/>
      <point x="881" y="1073"/>
      <point x="817" y="1001" type="curve"/>
      <point x="831" y="1098" type="line"/>
      <point x="725" y="1098" type="line"/>
      <point x="682" y="958" type="line"/>
      <point x="676" y="958" type="line"/>
      <point x="647" y="1065"/>
      <point x="584" y="1118"/>
      <point x="492" y="1118" type="curve" smooth="yes"/>
      <point x="186" y="1118"/>
      <point x="49" y="590"/>
      <point x="49" y="285" type="curve" smooth="yes"/>
      <point x="49" y="88"/>
      <point x="125" y="-20"/>
    </contour>
    <contour>
      <point x="315" y="119" type="curve" smooth="yes"/>
      <point x="246" y="119"/>
      <point x="213" y="176"/>
      <point x="213" y="297" type="curve" smooth="yes"/>
      <point x="213" y="547"/>
      <point x="324" y="977"/>
      <point x="510" y="977" type="curve" smooth="yes"/>
      <point x="582" y="977"/>
      <point x="625" y="918"/>
      <point x="625" y="815" type="curve" smooth="yes"/>
      <point x="625" y="723"/>
      <point x="608" y="623"/>
      <point x="575" y="492" type="curve" smooth="yes"/>
      <point x="528" y="309"/>
      <point x="453" y="119"/>
    </contour>
    <contour>
      <point x="891" y="111" type="curve" smooth="yes"/>
      <point x="782" y="111"/>
      <point x="731" y="231"/>
      <point x="731" y="395" type="curve" smooth="yes"/>
      <point x="731" y="420"/>
      <point x="735" y="467"/>
      <point x="737" y="487" type="curve"/>
      <point x="766" y="485" type="line" smooth="yes"/>
      <point x="967" y="477"/>
      <point x="1018" y="381"/>
      <point x="1018" y="287" type="curve" smooth="yes"/>
      <point x="1018" y="188"/>
      <point x="975" y="111"/>
    </contour>
  </outline>
</glyph>
<glyph name="uniAB47" format="2">
  <advance width="512"/>
  <unicode hex="AB47"/>
  <outline>
    <contour>
      <point x="-0.005" y="0" type="line"/>
      <point x="158" y="0" type="line"/>
      <point x="279" y="573" type="line" smooth="yes"/>
      <point x="315" y="748"/>
      <point x="395" y="948"/>
      <point x="545" y="952" type="curve"/>
      <point x="578" y="1118" type="line"/>
      <point x="473" y="1116"/>
      <point x="399" y="1051"/>
      <point x="338" y="918" type="curve"/>
      <point x="332" y="918" type="line"/>
      <point x="354" y="1098" type="line"/>
      <point x="231" y="1098" type="line"/>
    </contour>
  </outline>
</glyph>
<glyph name="uniFE22" format="2">
  <unicode hex="FE22"/>
  <anchor x="109" y="1098" name="_top"/>
  <outline>
    <contour>
      <point x="-426" y="1243" type="curve"/>
      <point x="-334" y="1243" type="line"/>
      <point x="-305" y="1323"/>
      <point x="-246" y="1372"/>
      <point x="-139" y="1372" type="curve" smooth="yes"/>
      <point x="-35" y="1372"/>
      <point x="57" y="1339"/>
      <point x="152" y="1307" type="curve"/>
      <point x="180" y="1436" type="line"/>
      <point x="90" y="1468"/>
      <point x="-4" y="1499"/>
      <point x="-117" y="1499" type="curve" smooth="yes"/>
      <point x="-258" y="1499"/>
      <point x="-369" y="1421"/>
    </contour>
  </outline>
</glyph>
<glyph name="ItalicjDoubleStruckdotless" format="2">
  <advance width="702"/>
  <anchor x="-8" y="-489" name="bottom"/>
  <anchor x="401" y="1098" name="top"/>
  <outline>
    <contour>
      <point x="-209" y="-492" type="curve" smooth="yes"/>
      <point x="135" y="-492"/>
      <point x="293" y="-225"/>
      <point x="330" y="-51" type="curve" smooth="yes"/>
      <point x="578" y="1098" type="line"/>
      <point x="221" y="1098" type="line"/>
      <point x="-57" y="-211" type="line" smooth="yes"/>
      <point x="-84" y="-340"/>
      <point x="-154" y="-379"/>
      <point x="-227" y="-379" type="curve" smooth="yes"/>
      <point x="-274" y="-379"/>
      <point x="-311" y="-367"/>
      <point x="-350" y="-350" type="curve"/>
      <point x="-373" y="-459" type="line"/>
      <point x="-317" y="-483"/>
      <point x="-264" y="-492"/>
    </contour>
    <contour>
      <point x="25" y="-334" type="curve"/>
      <point x="305" y="989" type="line"/>
      <point x="440" y="989" type="line"/>
      <point x="225" y="-37" type="line" smooth="yes"/>
      <point x="190" y="-201"/>
      <point x="106" y="-279"/>
    </contour>
  </outline>
</glyph>
<glyph name="braceright.sc" format="2">
  <advance width="549"/>
  <outline>
    <contour>
      <point x="-100" y="-256" type="line"/>
      <point x="-66" y="-256" type="line" smooth="yes"/>
      <point x="127" y="-256"/>
      <point x="186" y="-186"/>
      <point x="223" y="-12" type="curve" smooth="yes"/>
      <point x="274" y="219" type="line" smooth="yes"/>
      <point x="297" y="330"/>
      <point x="348" y="383"/>
      <point x="473" y="383" type="curve"/>
      <point x="502" y="510" type="line"/>
      <point x="393" y="510"/>
      <point x="365" y="559"/>
      <point x="365" y="633" type="curve" smooth="yes"/>
      <point x="365" y="655"/>
      <point x="371" y="682"/>
      <point x="375" y="711" type="curve" smooth="yes"/>
      <point x="414" y="887" type="line" smooth="yes"/>
      <point x="420" y="909"/>
      <point x="430" y="973"/>
      <point x="430" y="995" type="curve" smooth="yes"/>
      <point x="430" y="1102"/>
      <point x="348" y="1167"/>
      <point x="209" y="1167" type="curve"/>
      <point x="180" y="1167" type="line"/>
      <point x="156" y="1034" type="line"/>
      <point x="233" y="1034"/>
      <point x="279" y="1018"/>
      <point x="279" y="950" type="curve" smooth="yes"/>
      <point x="279" y="932"/>
      <point x="274" y="907"/>
      <point x="270" y="883" type="curve" smooth="yes"/>
      <point x="231" y="709" type="line" smooth="yes"/>
      <point x="225" y="680"/>
      <point x="217" y="645"/>
      <point x="217" y="618" type="curve" smooth="yes"/>
      <point x="217" y="535"/>
      <point x="252" y="477"/>
      <point x="334" y="455" type="curve"/>
      <point x="334" y="451" type="line"/>
      <point x="213" y="434"/>
      <point x="162" y="367"/>
      <point x="135" y="254" type="curve" smooth="yes"/>
      <point x="78" y="0" type="line" smooth="yes"/>
      <point x="53" y="-109"/>
      <point x="8" y="-131"/>
      <point x="-98" y="-131" type="curve"/>
    </contour>
  </outline>
</glyph>
<glyph name="circumflexgravecomb" format="2">
  <outline>
    <contour>
      <point x="-692" y="1243" type="line"/>
      <point x="-610" y="1243" type="line"/>
      <point x="-537" y="1298"/>
      <point x="-469" y="1356"/>
      <point x="-416" y="1409" type="curve"/>
      <point x="-381" y="1348"/>
      <point x="-342" y="1292"/>
      <point x="-301" y="1243" type="curve"/>
      <point x="-219" y="1243" type="line"/>
      <point x="-217" y="1266" type="line"/>
      <point x="-252" y="1335"/>
      <point x="-291" y="1425"/>
      <point x="-317" y="1522" type="curve"/>
      <point x="-477" y="1522" type="line"/>
      <point x="-543" y="1427"/>
      <point x="-618" y="1337"/>
      <point x="-690" y="1266" type="curve"/>
    </contour>
    <contour>
      <point x="-682" y="1434" type="curve"/>
      <point x="-596" y="1434" type="line"/>
      <point x="-594" y="1456" type="line"/>
      <point x="-623" y="1509"/>
      <point x="-653" y="1602"/>
      <point x="-659" y="1663" type="curve"/>
      <point x="-811" y="1663" type="line"/>
      <point x="-811" y="1645" type="line"/>
      <point x="-786" y="1575"/>
      <point x="-739" y="1499"/>
    </contour>
  </outline>
</glyph>
<glyph name="one.osf" format="2">
  <advance width="629"/>
  <outline>
    <contour>
      <point x="186" y="0" type="line"/>
      <point x="352" y="0" type="line"/>
      <point x="592" y="1126" type="line"/>
      <point x="444" y="1126" type="line"/>
      <point x="68" y="803" type="line"/>
      <point x="152" y="705" type="line"/>
      <point x="315" y="844" type="line" smooth="yes"/>
      <point x="342" y="868"/>
      <point x="367" y="895"/>
      <point x="391" y="918" type="curve"/>
      <point x="365" y="825"/>
      <point x="344" y="741"/>
      <point x="326" y="659" type="curve" smooth="yes"/>
    </contour>
  </outline>
</glyph>
<glyph name="parenright.sc" format="2">
  <advance width="451"/>
  <outline>
    <contour>
      <point x="-147" y="-258" type="curve"/>
      <point x="-23" y="-258" type="line"/>
      <point x="219" y="0"/>
      <point x="371" y="397"/>
      <point x="371" y="768" type="curve" smooth="yes"/>
      <point x="371" y="913"/>
      <point x="348" y="1065"/>
      <point x="291" y="1180" type="curve"/>
      <point x="164" y="1180" type="line"/>
      <point x="207" y="1069"/>
      <point x="227" y="901"/>
      <point x="227" y="764" type="curve" smooth="yes"/>
      <point x="227" y="403"/>
      <point x="78" y="25"/>
    </contour>
  </outline>
</glyph>
<glyph name="r.sc" format="2">
  <advance width="752"/>
  <anchor x="252" y="0" name="bottom"/>
  <anchor x="500" y="1169" name="top"/>
  <anchor x="836" y="1169" name="topright"/>
  <outline>
    <contour>
      <point x="0" y="0" type="line"/>
      <point x="156" y="0" type="line"/>
      <point x="258" y="479" type="line"/>
      <point x="342" y="479" type="line"/>
      <point x="428" y="0" type="line"/>
      <point x="600" y="0" type="line"/>
      <point x="492" y="512" type="line"/>
      <point x="637" y="551"/>
      <point x="731" y="715"/>
      <point x="731" y="909" type="curve" smooth="yes"/>
      <point x="731" y="1073"/>
      <point x="633" y="1169"/>
      <point x="446" y="1169" type="curve" smooth="yes"/>
      <point x="252" y="1169" type="line"/>
    </contour>
    <contour>
      <point x="289" y="610" type="line"/>
      <point x="379" y="1034" type="line"/>
      <point x="426" y="1034" type="line" smooth="yes"/>
      <point x="516" y="1034"/>
      <point x="565" y="983"/>
      <point x="565" y="891" type="curve" smooth="yes"/>
      <point x="565" y="750"/>
      <point x="498" y="610"/>
      <point x="352" y="610" type="curve" smooth="yes"/>
    </contour>
  </outline>
</glyph>
<glyph name="uni02E7_uni02E8" format="2">
  <advance width="784"/>
  <outline>
    <contour>
      <point x="410" y="0" type="line"/>
      <point x="547" y="0" type="line"/>
      <point x="547" y="1409" type="line"/>
      <point x="410" y="1409" type="line"/>
      <point x="410" y="502" type="line"/>
      <point x="106" y="805" type="line"/>
      <point x="14" y="702" type="line"/>
      <point x="410" y="307" type="line"/>
    </contour>
  </outline>
</glyph>
<glyph name="uni02E8_uni02E7_uni02E5" format="2">
  <advance width="1110"/>
  <outline>
    <contour>
      <point x="737" y="0" type="line"/>
      <point x="872" y="0" type="line"/>
      <point x="872" y="1409" type="line"/>
      <point x="737" y="1409" type="line"/>
      <point x="410" y="782" type="line"/>
      <point x="68" y="440" type="line"/>
      <point x="158" y="342" type="line"/>
      <point x="520" y="702" type="line"/>
      <point x="737" y="1114" type="line"/>
    </contour>
  </outline>
</glyph>
